G04 PROTEUS GERBER X2 FILE*
%TF.GenerationSoftware,Labcenter,Proteus,8.17-SP5-Build39395*%
%TF.CreationDate,2024-11-13T15:27:42+00:00*%
%TF.FileFunction,Paste,Top*%
%TF.FilePolarity,Positive*%
%TF.Part,Single*%
%TF.SameCoordinates,{0a1d241a-e0a6-4a76-8978-5e44ef8297c2}*%
%FSLAX45Y45*%
%MOMM*%
G01*
%TA.AperFunction,Material*%
%ADD95R,0.590000X1.150000*%
%ADD96R,0.300000X1.150000*%
%TA.AperFunction,Material*%
%ADD97R,0.889000X1.524000*%
%TA.AperFunction,Material*%
%ADD98R,1.092200X0.609600*%
%TA.AperFunction,Material*%
%ADD99R,2.000000X0.900000*%
%ADD100R,0.900000X2.000000*%
%ADD101R,1.330000X1.330000*%
%TA.AperFunction,Material*%
%ADD102R,2.032000X0.635000*%
%TA.AperFunction,Material*%
%ADD103R,1.524000X1.016000*%
%TA.AperFunction,Material*%
%ADD104R,1.016000X1.524000*%
%TA.AperFunction,Material*%
%ADD105R,0.700000X1.200000*%
%ADD106R,1.000000X1.200000*%
%ADD107R,1.000000X2.800000*%
%ADD108R,1.300000X1.899920*%
%ADD109R,1.000000X0.800100*%
%TA.AperFunction,Material*%
%ADD110R,1.000000X0.500000*%
%ADD111R,0.500000X0.800000*%
%TA.AperFunction,Material*%
%ADD112R,2.000000X0.600000*%
%ADD113R,1.000000X0.750000*%
%TA.AperFunction,Material*%
%ADD114R,1.000000X1.400000*%
%TA.AperFunction,Material*%
%ADD115R,1.270000X0.558800*%
%TA.AperFunction,Material*%
%ADD116R,1.250000X1.100000*%
%ADD117R,1.000000X1.800000*%
%TA.AperFunction,Material*%
%ADD118R,0.939800X0.609600*%
%ADD119R,0.700000X1.000000*%
%TA.AperFunction,Material*%
%ADD120R,2.540000X1.524000*%
%TA.AperFunction,Material*%
%ADD121R,0.600000X2.000000*%
%ADD122R,0.750000X1.000000*%
%TA.AperFunction,Material*%
%ADD123R,1.524000X0.889000*%
%TA.AperFunction,Profile*%
%ADD43C,0.101600*%
%TD.AperFunction*%
D95*
X-7220000Y+1680000D03*
X-7140000Y+1680000D03*
D96*
X-7025000Y+1680000D03*
X-6925000Y+1680000D03*
X-6875000Y+1680000D03*
X-6775000Y+1680000D03*
D95*
X-6580000Y+1680000D03*
X-6660000Y+1680000D03*
D96*
X-6724994Y+1680000D03*
X-6825000Y+1680000D03*
X-6975000Y+1680000D03*
X-7075006Y+1680000D03*
D97*
X-8018875Y+1570000D03*
X-8358875Y+1570000D03*
D98*
X-8975612Y+2391008D03*
X-8975612Y+2296008D03*
X-8975612Y+2201008D03*
X-8695612Y+2201008D03*
X-8695612Y+2391008D03*
D99*
X-7750000Y+6020000D03*
X-7750000Y+5893000D03*
X-7750000Y+5766000D03*
X-7750000Y+5639000D03*
X-7750000Y+5512000D03*
X-7750000Y+5385000D03*
X-7750000Y+5258000D03*
X-7750000Y+5131000D03*
X-7750000Y+5004000D03*
X-7750000Y+4877000D03*
X-7750000Y+4750000D03*
X-7750000Y+4623000D03*
X-7750000Y+4496000D03*
X-7750000Y+4369000D03*
D100*
X-7471500Y+4269000D03*
X-7344500Y+4269000D03*
X-7217500Y+4269000D03*
X-7090500Y+4269000D03*
X-6963500Y+4269000D03*
X-6836500Y+4269000D03*
X-6709500Y+4269000D03*
X-6582500Y+4269000D03*
X-6455500Y+4269000D03*
X-6328500Y+4269000D03*
D99*
X-6050000Y+4369000D03*
X-6050000Y+4496000D03*
X-6050000Y+4623000D03*
X-6050000Y+4750000D03*
X-6050000Y+4877000D03*
X-6050000Y+5004000D03*
X-6050000Y+5131000D03*
X-6050000Y+5258000D03*
X-6050000Y+5385000D03*
X-6050000Y+5512000D03*
X-6050000Y+5639000D03*
X-6050000Y+5766000D03*
X-6050000Y+5893000D03*
X-6050000Y+6020000D03*
D101*
X-7183000Y+5454000D03*
X-7000000Y+5454000D03*
X-6817000Y+5454000D03*
X-7183000Y+5270000D03*
X-7000000Y+5270000D03*
X-6817000Y+5270000D03*
X-7183000Y+5087000D03*
X-7000000Y+5087000D03*
X-6817000Y+5087000D03*
D102*
X-5315350Y+4395000D03*
X-5315350Y+4268000D03*
X-5315350Y+4141000D03*
X-5315350Y+4014000D03*
X-5315350Y+3887000D03*
X-5315350Y+3760000D03*
X-5315350Y+3633000D03*
X-5315350Y+3506000D03*
X-4794650Y+3506000D03*
X-4794650Y+3633000D03*
X-4794650Y+3760000D03*
X-4794650Y+3887000D03*
X-4794650Y+4014000D03*
X-4794650Y+4141000D03*
X-4794650Y+4268000D03*
X-4794650Y+4395000D03*
D103*
X-6790000Y+1991170D03*
X-6790000Y+2306130D03*
X-7000000Y+1991170D03*
X-7000000Y+2306130D03*
X-5030000Y+4907520D03*
X-5030000Y+5222480D03*
X-5240000Y+4907520D03*
X-5240000Y+5222480D03*
X-7280000Y+3400000D03*
X-7280000Y+3260000D03*
X-7280000Y+3120000D03*
X-6530000Y+3400000D03*
X-6530000Y+3260000D03*
X-6530000Y+3120000D03*
D104*
X-6900000Y+3630000D03*
X-6900000Y+2880000D03*
D105*
X-5083000Y+2798000D03*
X-5193000Y+2798000D03*
X-5302000Y+2798000D03*
X-5413000Y+2798000D03*
X-5523000Y+2798000D03*
X-5632000Y+2798000D03*
X-5742000Y+2798000D03*
X-5852506Y+2798000D03*
D106*
X-6042498Y+2368000D03*
D107*
X-6042498Y+1332488D03*
D108*
X-4692488Y+1288000D03*
D106*
X-4927000Y+2798000D03*
D109*
X-6042498Y+1747000D03*
D105*
X-5947502Y+2798000D03*
D103*
X-6580000Y+1991170D03*
X-6580000Y+2306130D03*
X-7210000Y+1991170D03*
X-7210000Y+2306130D03*
D110*
X-9629120Y+2325000D03*
X-9629120Y+2025000D03*
X-9629120Y+1875000D03*
D111*
X-9709120Y+1755000D03*
X-9919120Y+1755000D03*
X-9919120Y+2445000D03*
X-9709120Y+2445000D03*
D112*
X-9671600Y+2863940D03*
D113*
X-9901600Y+2703940D03*
X-9901600Y+3123940D03*
D112*
X-9671600Y+2963940D03*
D114*
X-8829384Y+1513834D03*
X-8639392Y+1513834D03*
X-8734388Y+1733834D03*
D97*
X-8018875Y+1200000D03*
X-8358875Y+1200000D03*
D104*
X-8576908Y+1200000D03*
X-8891868Y+1200000D03*
X-8445842Y+2101008D03*
X-8130882Y+2101008D03*
X-8445842Y+2391008D03*
X-8130882Y+2391008D03*
D115*
X-9820000Y+4199020D03*
X-9820000Y+4105040D03*
X-9820000Y+4011060D03*
X-9560920Y+4011060D03*
X-9560920Y+4199020D03*
D103*
X-9561840Y+3807205D03*
X-9561840Y+3492245D03*
X-9570000Y+4485040D03*
X-9570000Y+4800000D03*
X-9820000Y+4485040D03*
X-9820000Y+4800000D03*
X-9820920Y+3807205D03*
X-9820920Y+3492245D03*
D102*
X-8480000Y+3510000D03*
X-8480000Y+3637000D03*
X-8480000Y+3764000D03*
X-8480000Y+3891000D03*
X-8480000Y+4018000D03*
X-8480000Y+4145000D03*
X-8480000Y+4272000D03*
X-8480000Y+4399000D03*
X-9000700Y+4399000D03*
X-9000700Y+4272000D03*
X-9000700Y+4145000D03*
X-9000700Y+4018000D03*
X-9000700Y+3891000D03*
X-9000700Y+3764000D03*
X-9000700Y+3637000D03*
X-9000700Y+3510000D03*
D103*
X-8590000Y+2775660D03*
X-8590000Y+3090620D03*
X-8380000Y+2775660D03*
X-8380000Y+3090620D03*
X-8170000Y+2775660D03*
X-8170000Y+3090620D03*
X-7960000Y+2775660D03*
X-7960000Y+3090620D03*
X-9010000Y+2775660D03*
X-9010000Y+3090620D03*
X-8800000Y+2775660D03*
X-8800000Y+3090620D03*
X-9220000Y+3090620D03*
X-9220000Y+2775660D03*
D104*
X-8735040Y+4820000D03*
X-9050000Y+4820000D03*
X-8735040Y+4610000D03*
X-9050000Y+4610000D03*
X-8735040Y+5040000D03*
X-9050000Y+5040000D03*
D103*
X-8170000Y+6062480D03*
X-8170000Y+5747520D03*
X-8385000Y+6062480D03*
X-8385000Y+5747520D03*
D104*
X-9857480Y+5250000D03*
X-9542520Y+5250000D03*
X-9542520Y+5460000D03*
X-9857480Y+5460000D03*
D116*
X-8730000Y+6500000D03*
X-9230000Y+6500000D03*
D104*
X-9857480Y+5953940D03*
X-9542520Y+5953940D03*
X-9542520Y+5738940D03*
X-9857480Y+5738940D03*
D116*
X-8550000Y+6500000D03*
X-8050000Y+6500000D03*
D104*
X-4357480Y+1770000D03*
X-4042520Y+1770000D03*
X-4357480Y+1990000D03*
X-4042520Y+1990000D03*
D117*
X-8920000Y+5520000D03*
X-8670000Y+5520000D03*
D103*
X-8675000Y+5747520D03*
X-8675000Y+6062480D03*
X-8915000Y+5747520D03*
X-8915000Y+6062480D03*
D118*
X-4287484Y+3705000D03*
X-4287484Y+3895000D03*
X-4517484Y+3800000D03*
X-4287484Y+4165000D03*
X-4287484Y+4355000D03*
X-4517484Y+4260000D03*
X-4287484Y+4625000D03*
X-4287484Y+4815000D03*
X-4517484Y+4720000D03*
D103*
X-4077484Y+3945040D03*
X-4077484Y+3630080D03*
X-4077484Y+4420040D03*
X-4077484Y+4105080D03*
X-4077484Y+4890080D03*
X-4077484Y+4575120D03*
D119*
X-4110000Y+2880000D03*
X-4299992Y+2880000D03*
X-4204996Y+2620000D03*
D104*
X-4357480Y+2210000D03*
X-4042520Y+2210000D03*
X-4042520Y+2420000D03*
X-4357480Y+2420000D03*
X-4890000Y+5800000D03*
X-5204960Y+5800000D03*
D103*
X-4820000Y+4907520D03*
X-4820000Y+5222480D03*
D120*
X-4530000Y+3360000D03*
X-4530000Y+3080000D03*
D104*
X-4250000Y+3360000D03*
X-3935040Y+3360000D03*
X-4250000Y+3080000D03*
X-3935040Y+3080000D03*
D121*
X-5400000Y+6464120D03*
X-5300000Y+6464120D03*
X-5200000Y+6464120D03*
X-5100000Y+6464120D03*
X-5000000Y+6464120D03*
X-4900000Y+6464120D03*
X-4800000Y+6464120D03*
X-4700000Y+6464120D03*
D122*
X-5560000Y+6694120D03*
X-4540000Y+6684120D03*
D123*
X-7700000Y+1560000D03*
X-7700000Y+1220000D03*
D103*
X-7420000Y+1990000D03*
X-7420000Y+2304960D03*
D112*
X-4130000Y+5800000D03*
X-4130000Y+5700000D03*
X-4130000Y+5600000D03*
X-4130000Y+5500000D03*
X-4130000Y+5400000D03*
D113*
X-3900000Y+5960000D03*
X-3900000Y+5240000D03*
D43*
X-10000000Y+1000000D02*
X-3800000Y+1000000D01*
X-3800000Y+6800000D01*
X-10000000Y+6800000D01*
X-10000000Y+1000000D01*
M02*
