G04 PROTEUS GERBER X2 FILE*
%TF.GenerationSoftware,Labcenter,Proteus,8.17-SP5-Build39395*%
%TF.CreationDate,2024-11-13T15:27:42+00:00*%
%TF.FileFunction,Soldermask,Top*%
%TF.FilePolarity,Negative*%
%TF.Part,Single*%
%TF.SameCoordinates,{0a1d241a-e0a6-4a76-8978-5e44ef8297c2}*%
%FSLAX45Y45*%
%MOMM*%
G01*
%TA.AperFunction,Material*%
%ADD55C,1.016000*%
%AMPPAD050*
4,1,4,
-0.295000,0.575000,
0.295000,0.575000,
0.295000,-0.575000,
-0.295000,-0.575000,
-0.295000,0.575000,
0*%
%TA.AperFunction,Material*%
%ADD56PPAD050*%
%AMPPAD051*
4,1,4,
-0.150000,0.575000,
0.150000,0.575000,
0.150000,-0.575000,
-0.150000,-0.575000,
-0.150000,0.575000,
0*%
%ADD57PPAD051*%
%AMPPAD052*
4,1,36,
-0.195200,1.227000,
0.195200,1.227000,
0.282210,1.218230,
0.363260,1.193060,
0.436600,1.153240,
0.500510,1.100510,
0.553240,1.036600,
0.593060,0.963260,
0.618230,0.882210,
0.627000,0.795200,
0.627000,-0.795200,
0.618230,-0.882210,
0.593060,-0.963260,
0.553240,-1.036600,
0.500510,-1.100510,
0.436600,-1.153240,
0.363260,-1.193060,
0.282210,-1.218230,
0.195200,-1.227000,
-0.195200,-1.227000,
-0.282210,-1.218230,
-0.363260,-1.193060,
-0.436600,-1.153240,
-0.500510,-1.100510,
-0.553240,-1.036600,
-0.593060,-0.963260,
-0.618230,-0.882210,
-0.627000,-0.795200,
-0.627000,0.795200,
-0.618230,0.882210,
-0.593060,0.963260,
-0.553240,1.036600,
-0.500510,1.100510,
-0.436600,1.153240,
-0.363260,1.193060,
-0.282210,1.218230,
-0.195200,1.227000,
0*%
%ADD58PPAD052*%
%AMPPAD053*
4,1,36,
0.444500,-0.889000,
-0.444500,-0.889000,
-0.470090,-0.886420,
-0.493930,-0.879020,
-0.515500,-0.867310,
-0.534300,-0.851800,
-0.549810,-0.833000,
-0.561520,-0.811430,
-0.568920,-0.787590,
-0.571500,-0.762000,
-0.571500,0.762000,
-0.568920,0.787590,
-0.561520,0.811430,
-0.549810,0.833000,
-0.534300,0.851800,
-0.515500,0.867310,
-0.493930,0.879020,
-0.470090,0.886420,
-0.444500,0.889000,
0.444500,0.889000,
0.470090,0.886420,
0.493930,0.879020,
0.515500,0.867310,
0.534300,0.851800,
0.549810,0.833000,
0.561520,0.811430,
0.568920,0.787590,
0.571500,0.762000,
0.571500,-0.762000,
0.568920,-0.787590,
0.561520,-0.811430,
0.549810,-0.833000,
0.534300,-0.851800,
0.515500,-0.867310,
0.493930,-0.879020,
0.470090,-0.886420,
0.444500,-0.889000,
0*%
%TA.AperFunction,Material*%
%ADD59PPAD053*%
%AMPPAD054*
4,1,4,
-0.546100,-0.304800,
-0.546100,0.304800,
0.546100,0.304800,
0.546100,-0.304800,
-0.546100,-0.304800,
0*%
%TA.AperFunction,Material*%
%ADD60PPAD054*%
%AMPPAD055*
4,1,4,
-1.000000,0.450000,
1.000000,0.450000,
1.000000,-0.450000,
-1.000000,-0.450000,
-1.000000,0.450000,
0*%
%TA.AperFunction,Material*%
%ADD61PPAD055*%
%AMPPAD056*
4,1,4,
-0.450000,1.000000,
0.450000,1.000000,
0.450000,-1.000000,
-0.450000,-1.000000,
-0.450000,1.000000,
0*%
%ADD62PPAD056*%
%AMPPAD057*
4,1,4,
-0.665000,0.665000,
0.665000,0.665000,
0.665000,-0.665000,
-0.665000,-0.665000,
-0.665000,0.665000,
0*%
%ADD63PPAD057*%
%AMPPAD058*
4,1,36,
-1.143000,-0.317500,
-1.143000,0.317500,
-1.140420,0.343090,
-1.133020,0.366930,
-1.121310,0.388500,
-1.105800,0.407300,
-1.087000,0.422810,
-1.065430,0.434520,
-1.041590,0.441920,
-1.016000,0.444500,
1.016000,0.444500,
1.041590,0.441920,
1.065430,0.434520,
1.087000,0.422810,
1.105800,0.407300,
1.121310,0.388500,
1.133020,0.366930,
1.140420,0.343090,
1.143000,0.317500,
1.143000,-0.317500,
1.140420,-0.343090,
1.133020,-0.366930,
1.121310,-0.388500,
1.105800,-0.407300,
1.087000,-0.422810,
1.065430,-0.434520,
1.041590,-0.441920,
1.016000,-0.444500,
-1.016000,-0.444500,
-1.041590,-0.441920,
-1.065430,-0.434520,
-1.087000,-0.422810,
-1.105800,-0.407300,
-1.121310,-0.388500,
-1.133020,-0.366930,
-1.140420,-0.343090,
-1.143000,-0.317500,
0*%
%TA.AperFunction,Material*%
%ADD64PPAD058*%
%AMPPAD059*
4,1,36,
-0.889000,-0.508000,
-0.889000,0.508000,
-0.886420,0.533590,
-0.879020,0.557430,
-0.867310,0.579000,
-0.851800,0.597800,
-0.833000,0.613310,
-0.811430,0.625020,
-0.787590,0.632420,
-0.762000,0.635000,
0.762000,0.635000,
0.787590,0.632420,
0.811430,0.625020,
0.833000,0.613310,
0.851800,0.597800,
0.867310,0.579000,
0.879020,0.557430,
0.886420,0.533590,
0.889000,0.508000,
0.889000,-0.508000,
0.886420,-0.533590,
0.879020,-0.557430,
0.867310,-0.579000,
0.851800,-0.597800,
0.833000,-0.613310,
0.811430,-0.625020,
0.787590,-0.632420,
0.762000,-0.635000,
-0.762000,-0.635000,
-0.787590,-0.632420,
-0.811430,-0.625020,
-0.833000,-0.613310,
-0.851800,-0.597800,
-0.867310,-0.579000,
-0.879020,-0.557430,
-0.886420,-0.533590,
-0.889000,-0.508000,
0*%
%TA.AperFunction,Material*%
%ADD65PPAD059*%
%AMPPAD060*
4,1,36,
-0.508000,0.889000,
0.508000,0.889000,
0.533590,0.886420,
0.557430,0.879020,
0.579000,0.867310,
0.597800,0.851800,
0.613310,0.833000,
0.625020,0.811430,
0.632420,0.787590,
0.635000,0.762000,
0.635000,-0.762000,
0.632420,-0.787590,
0.625020,-0.811430,
0.613310,-0.833000,
0.597800,-0.851800,
0.579000,-0.867310,
0.557430,-0.879020,
0.533590,-0.886420,
0.508000,-0.889000,
-0.508000,-0.889000,
-0.533590,-0.886420,
-0.557430,-0.879020,
-0.579000,-0.867310,
-0.597800,-0.851800,
-0.613310,-0.833000,
-0.625020,-0.811430,
-0.632420,-0.787590,
-0.635000,-0.762000,
-0.635000,0.762000,
-0.632420,0.787590,
-0.625020,0.811430,
-0.613310,0.833000,
-0.597800,0.851800,
-0.579000,0.867310,
-0.557430,0.879020,
-0.533590,0.886420,
-0.508000,0.889000,
0*%
%TA.AperFunction,Material*%
%ADD66PPAD060*%
%AMPPAD061*
4,1,4,
-0.350000,0.600000,
0.350000,0.600000,
0.350000,-0.600000,
-0.350000,-0.600000,
-0.350000,0.600000,
0*%
%TA.AperFunction,Material*%
%ADD67PPAD061*%
%AMPPAD062*
4,1,4,
-0.500000,0.600000,
0.500000,0.600000,
0.500000,-0.600000,
-0.500000,-0.600000,
-0.500000,0.600000,
0*%
%ADD68PPAD062*%
%AMPPAD063*
4,1,4,
-0.500000,1.400000,
0.500000,1.400000,
0.500000,-1.400000,
-0.500000,-1.400000,
-0.500000,1.400000,
0*%
%ADD69PPAD063*%
%AMPPAD064*
4,1,4,
-0.650000,0.949960,
0.650000,0.949960,
0.650000,-0.949960,
-0.650000,-0.949960,
-0.650000,0.949960,
0*%
%ADD74PPAD064*%
%AMPPAD065*
4,1,4,
-0.500000,0.400050,
0.500000,0.400050,
0.500000,-0.400050,
-0.500000,-0.400050,
-0.500000,0.400050,
0*%
%ADD75PPAD065*%
%AMPPAD066*
4,1,4,
0.500000,0.250000,
0.500000,-0.250000,
-0.500000,-0.250000,
-0.500000,0.250000,
0.500000,0.250000,
0*%
%TA.AperFunction,Material*%
%ADD76PPAD066*%
%ADD77C,0.850000*%
%AMPPAD068*
4,1,4,
0.250000,0.400000,
0.250000,-0.400000,
-0.250000,-0.400000,
-0.250000,0.400000,
0.250000,0.400000,
0*%
%ADD78PPAD068*%
%AMPPAD069*
4,1,36,
-1.127000,-0.300000,
-1.127000,0.300000,
-1.124420,0.325590,
-1.117020,0.349430,
-1.105310,0.371000,
-1.089800,0.389800,
-1.071000,0.405310,
-1.049430,0.417020,
-1.025590,0.424420,
-1.000000,0.427000,
1.000000,0.427000,
1.025590,0.424420,
1.049430,0.417020,
1.071000,0.405310,
1.089800,0.389800,
1.105310,0.371000,
1.117020,0.349430,
1.124420,0.325590,
1.127000,0.300000,
1.127000,-0.300000,
1.124420,-0.325590,
1.117020,-0.349430,
1.105310,-0.371000,
1.089800,-0.389800,
1.071000,-0.405310,
1.049430,-0.417020,
1.025590,-0.424420,
1.000000,-0.427000,
-1.000000,-0.427000,
-1.025590,-0.424420,
-1.049430,-0.417020,
-1.071000,-0.405310,
-1.089800,-0.389800,
-1.105310,-0.371000,
-1.117020,-0.349430,
-1.124420,-0.325590,
-1.127000,-0.300000,
0*%
%TA.AperFunction,Material*%
%ADD79PPAD069*%
%AMPPAD070*
4,1,36,
-0.627000,-0.375000,
-0.627000,0.375000,
-0.624420,0.400590,
-0.617020,0.424430,
-0.605310,0.446000,
-0.589800,0.464800,
-0.571000,0.480310,
-0.549430,0.492020,
-0.525590,0.499420,
-0.500000,0.502000,
0.500000,0.502000,
0.525590,0.499420,
0.549430,0.492020,
0.571000,0.480310,
0.589800,0.464800,
0.605310,0.446000,
0.617020,0.424430,
0.624420,0.400590,
0.627000,0.375000,
0.627000,-0.375000,
0.624420,-0.400590,
0.617020,-0.424430,
0.605310,-0.446000,
0.589800,-0.464800,
0.571000,-0.480310,
0.549430,-0.492020,
0.525590,-0.499420,
0.500000,-0.502000,
-0.500000,-0.502000,
-0.525590,-0.499420,
-0.549430,-0.492020,
-0.571000,-0.480310,
-0.589800,-0.464800,
-0.605310,-0.446000,
-0.617020,-0.424430,
-0.624420,-0.400590,
-0.627000,-0.375000,
0*%
%ADD80PPAD070*%
%TA.AperFunction,Material*%
%ADD81C,5.080000*%
%AMPPAD072*
4,1,4,
-0.500000,0.700000,
0.500000,0.700000,
0.500000,-0.700000,
-0.500000,-0.700000,
-0.500000,0.700000,
0*%
%TA.AperFunction,Material*%
%ADD82PPAD072*%
%AMPPAD073*
4,1,4,
-0.635000,0.279400,
0.635000,0.279400,
0.635000,-0.279400,
-0.635000,-0.279400,
-0.635000,0.279400,
0*%
%TA.AperFunction,Material*%
%ADD83PPAD073*%
%AMPPAD074*
4,1,36,
0.625000,-0.677000,
-0.625000,-0.677000,
-0.650590,-0.674420,
-0.674430,-0.667020,
-0.696000,-0.655310,
-0.714800,-0.639800,
-0.730310,-0.621000,
-0.742020,-0.599430,
-0.749420,-0.575590,
-0.752000,-0.550000,
-0.752000,0.550000,
-0.749420,0.575590,
-0.742020,0.599430,
-0.730310,0.621000,
-0.714800,0.639800,
-0.696000,0.655310,
-0.674430,0.667020,
-0.650590,0.674420,
-0.625000,0.677000,
0.625000,0.677000,
0.650590,0.674420,
0.674430,0.667020,
0.696000,0.655310,
0.714800,0.639800,
0.730310,0.621000,
0.742020,0.599430,
0.749420,0.575590,
0.752000,0.550000,
0.752000,-0.550000,
0.749420,-0.575590,
0.742020,-0.599430,
0.730310,-0.621000,
0.714800,-0.639800,
0.696000,-0.655310,
0.674430,-0.667020,
0.650590,-0.674420,
0.625000,-0.677000,
0*%
%TA.AperFunction,Material*%
%ADD84PPAD074*%
%AMPPAD075*
4,1,4,
-0.500000,0.900000,
0.500000,0.900000,
0.500000,-0.900000,
-0.500000,-0.900000,
-0.500000,0.900000,
0*%
%ADD85PPAD075*%
%AMPPAD076*
4,1,4,
0.469900,0.304800,
0.469900,-0.304800,
-0.469900,-0.304800,
-0.469900,0.304800,
0.469900,0.304800,
0*%
%TA.AperFunction,Material*%
%ADD86PPAD076*%
%AMPPAD077*
4,1,4,
0.350000,-0.500000,
-0.350000,-0.500000,
-0.350000,0.500000,
0.350000,0.500000,
0.350000,-0.500000,
0*%
%ADD87PPAD077*%
%AMPPAD078*
4,1,36,
1.397000,0.762000,
1.397000,-0.762000,
1.394420,-0.787590,
1.387020,-0.811430,
1.375310,-0.833000,
1.359800,-0.851800,
1.341000,-0.867310,
1.319430,-0.879020,
1.295590,-0.886420,
1.270000,-0.889000,
-1.270000,-0.889000,
-1.295590,-0.886420,
-1.319430,-0.879020,
-1.341000,-0.867310,
-1.359800,-0.851800,
-1.375310,-0.833000,
-1.387020,-0.811430,
-1.394420,-0.787590,
-1.397000,-0.762000,
-1.397000,0.762000,
-1.394420,0.787590,
-1.387020,0.811430,
-1.375310,0.833000,
-1.359800,0.851800,
-1.341000,0.867310,
-1.319430,0.879020,
-1.295590,0.886420,
-1.270000,0.889000,
1.270000,0.889000,
1.295590,0.886420,
1.319430,0.879020,
1.341000,0.867310,
1.359800,0.851800,
1.375310,0.833000,
1.387020,0.811430,
1.394420,0.787590,
1.397000,0.762000,
0*%
%TA.AperFunction,Material*%
%ADD88PPAD078*%
%AMPPAD079*
4,1,36,
-0.300000,1.127000,
0.300000,1.127000,
0.325590,1.124420,
0.349430,1.117020,
0.371000,1.105310,
0.389800,1.089800,
0.405310,1.071000,
0.417020,1.049430,
0.424420,1.025590,
0.427000,1.000000,
0.427000,-1.000000,
0.424420,-1.025590,
0.417020,-1.049430,
0.405310,-1.071000,
0.389800,-1.089800,
0.371000,-1.105310,
0.349430,-1.117020,
0.325590,-1.124420,
0.300000,-1.127000,
-0.300000,-1.127000,
-0.325590,-1.124420,
-0.349430,-1.117020,
-0.371000,-1.105310,
-0.389800,-1.089800,
-0.405310,-1.071000,
-0.417020,-1.049430,
-0.424420,-1.025590,
-0.427000,-1.000000,
-0.427000,1.000000,
-0.424420,1.025590,
-0.417020,1.049430,
-0.405310,1.071000,
-0.389800,1.089800,
-0.371000,1.105310,
-0.349430,1.117020,
-0.325590,1.124420,
-0.300000,1.127000,
0*%
%TA.AperFunction,Material*%
%ADD89PPAD079*%
%AMPPAD080*
4,1,36,
-0.375000,0.627000,
0.375000,0.627000,
0.400590,0.624420,
0.424430,0.617020,
0.446000,0.605310,
0.464800,0.589800,
0.480310,0.571000,
0.492020,0.549430,
0.499420,0.525590,
0.502000,0.500000,
0.502000,-0.500000,
0.499420,-0.525590,
0.492020,-0.549430,
0.480310,-0.571000,
0.464800,-0.589800,
0.446000,-0.605310,
0.424430,-0.617020,
0.400590,-0.624420,
0.375000,-0.627000,
-0.375000,-0.627000,
-0.400590,-0.624420,
-0.424430,-0.617020,
-0.446000,-0.605310,
-0.464800,-0.589800,
-0.480310,-0.571000,
-0.492020,-0.549430,
-0.499420,-0.525590,
-0.502000,-0.500000,
-0.502000,0.500000,
-0.499420,0.525590,
-0.492020,0.549430,
-0.480310,0.571000,
-0.464800,0.589800,
-0.446000,0.605310,
-0.424430,0.617020,
-0.400590,0.624420,
-0.375000,0.627000,
0*%
%ADD90PPAD080*%
%AMPPAD081*
4,1,36,
0.889000,0.444500,
0.889000,-0.444500,
0.886420,-0.470090,
0.879020,-0.493930,
0.867310,-0.515500,
0.851800,-0.534300,
0.833000,-0.549810,
0.811430,-0.561520,
0.787590,-0.568920,
0.762000,-0.571500,
-0.762000,-0.571500,
-0.787590,-0.568920,
-0.811430,-0.561520,
-0.833000,-0.549810,
-0.851800,-0.534300,
-0.867310,-0.515500,
-0.879020,-0.493930,
-0.886420,-0.470090,
-0.889000,-0.444500,
-0.889000,0.444500,
-0.886420,0.470090,
-0.879020,0.493930,
-0.867310,0.515500,
-0.851800,0.534300,
-0.833000,0.549810,
-0.811430,0.561520,
-0.787590,0.568920,
-0.762000,0.571500,
0.762000,0.571500,
0.787590,0.568920,
0.811430,0.561520,
0.833000,0.549810,
0.851800,0.534300,
0.867310,0.515500,
0.879020,0.493930,
0.886420,0.470090,
0.889000,0.444500,
0*%
%TA.AperFunction,Material*%
%ADD91PPAD081*%
%TA.AperFunction,Profile*%
%ADD43C,0.101600*%
%TD.AperFunction*%
D55*
X-7939907Y+5384997D03*
X-7940252Y+5511980D03*
X-8300234Y+4272345D03*
X-8300122Y+4144942D03*
X-8800000Y+3300000D03*
X-8800000Y+3800000D03*
X-8398114Y+5257935D03*
X-9700000Y+4600000D03*
X-5899936Y+4623438D03*
X-9300000Y+5000000D03*
X-4800000Y+6300000D03*
X-5900000Y+5893081D03*
X-6900000Y+5170000D03*
X-6900000Y+5370000D03*
X-7600273Y+4368634D03*
X-7100000Y+5170000D03*
X-7100000Y+5370000D03*
X-5000000Y+6300000D03*
X-5900268Y+4876823D03*
X-9300000Y+5560000D03*
X-5200000Y+6300000D03*
X-8640000Y+1400000D03*
X-9509072Y+2024082D03*
X-7599158Y+4496077D03*
X-5412946Y+2669540D03*
X-7100000Y+2700000D03*
X-6400000Y+3260000D03*
X-6990286Y+2589199D03*
X-5500000Y+2400000D03*
X-9300000Y+3400000D03*
X-9225712Y+4200452D03*
X-9147318Y+4400097D03*
X-7940155Y+5639069D03*
X-9400000Y+4200000D03*
X-9400000Y+4500000D03*
X-9400000Y+4800000D03*
X-9812491Y+5113161D03*
X-9360000Y+6100000D03*
X-5100000Y+6200000D03*
X-4900000Y+6200000D03*
X-5900000Y+4750000D03*
X-5900489Y+4495974D03*
X-4700000Y+6200000D03*
X-4610000Y+3800000D03*
X-6327783Y+4099684D03*
X-5400000Y+3200000D03*
X-5600000Y+3900000D03*
X-5700000Y+5200000D03*
X-5790000Y+3200000D03*
X-5700000Y+4000000D03*
X-5600000Y+3200000D03*
X-5700000Y+3800000D03*
X-5900000Y+5004000D03*
X-7700000Y+3600000D03*
X-4402318Y+3898946D03*
X-4402447Y+4349596D03*
X-4664053Y+4543324D03*
X-7939864Y+5765983D03*
X-4610000Y+4261362D03*
X-5241263Y+4798737D03*
X-4440000Y+5600000D03*
X-4420000Y+2620000D03*
X-5313169Y+4509120D03*
X-6200000Y+2800000D03*
X-6200000Y+3402711D03*
X-8500000Y+1840000D03*
X-9080002Y+1840000D03*
X-9400000Y+2500000D03*
X-9400000Y+3552861D03*
X-7700000Y+3500000D03*
X-8590000Y+3300000D03*
X-7700000Y+3400000D03*
X-8380000Y+3300000D03*
X-7700000Y+3200000D03*
X-9010000Y+3200000D03*
X-9200000Y+3963845D03*
X-8170000Y+3200000D03*
X-7600000Y+1990000D03*
X-7700000Y+1650000D03*
X-4300000Y+5500000D03*
X-5030000Y+5000000D03*
X-7344572Y+4420036D03*
X-6690000Y+4620000D03*
X-6973453Y+1851247D03*
X-6803120Y+1826880D03*
X-6300000Y+1900000D03*
X-4470000Y+2210000D03*
X-6630000Y+1810000D03*
X-7140000Y+1790000D03*
X-7900000Y+6500000D03*
X-6206739Y+4370000D03*
X-6300000Y+4600000D03*
X-6300000Y+4902540D03*
X-6300000Y+6300000D03*
X-6200000Y+6500000D03*
X-7900000Y+6200000D03*
X-5700000Y+6420000D03*
D56*
X-7220000Y+1680000D03*
X-7140000Y+1680000D03*
D57*
X-7025000Y+1680000D03*
X-6925000Y+1680000D03*
X-6875000Y+1680000D03*
X-6775000Y+1680000D03*
D56*
X-6580000Y+1680000D03*
X-6660000Y+1680000D03*
D57*
X-6724994Y+1680000D03*
X-6825000Y+1680000D03*
X-6975000Y+1680000D03*
X-7075006Y+1680000D03*
D58*
X-7332000Y+1223000D03*
X-7332000Y+1622990D03*
X-6468000Y+1622988D03*
X-6468000Y+1223000D03*
D59*
X-8018875Y+1570000D03*
X-8358875Y+1570000D03*
D60*
X-8975612Y+2391008D03*
X-8975612Y+2296008D03*
X-8975612Y+2201008D03*
X-8695612Y+2201008D03*
X-8695612Y+2391008D03*
D55*
X-8000000Y+2100000D03*
X-8835612Y+2061008D03*
D61*
X-7750000Y+6020000D03*
X-7750000Y+5893000D03*
X-7750000Y+5766000D03*
X-7750000Y+5639000D03*
X-7750000Y+5512000D03*
X-7750000Y+5385000D03*
X-7750000Y+5258000D03*
X-7750000Y+5131000D03*
X-7750000Y+5004000D03*
X-7750000Y+4877000D03*
X-7750000Y+4750000D03*
X-7750000Y+4623000D03*
X-7750000Y+4496000D03*
X-7750000Y+4369000D03*
D62*
X-7471500Y+4269000D03*
X-7344500Y+4269000D03*
X-7217500Y+4269000D03*
X-7090500Y+4269000D03*
X-6963500Y+4269000D03*
X-6836500Y+4269000D03*
X-6709500Y+4269000D03*
X-6582500Y+4269000D03*
X-6455500Y+4269000D03*
X-6328500Y+4269000D03*
D61*
X-6050000Y+4369000D03*
X-6050000Y+4496000D03*
X-6050000Y+4623000D03*
X-6050000Y+4750000D03*
X-6050000Y+4877000D03*
X-6050000Y+5004000D03*
X-6050000Y+5131000D03*
X-6050000Y+5258000D03*
X-6050000Y+5385000D03*
X-6050000Y+5512000D03*
X-6050000Y+5639000D03*
X-6050000Y+5766000D03*
X-6050000Y+5893000D03*
X-6050000Y+6020000D03*
D63*
X-7183000Y+5454000D03*
X-7000000Y+5454000D03*
X-6817000Y+5454000D03*
X-7183000Y+5270000D03*
X-7000000Y+5270000D03*
X-6817000Y+5270000D03*
X-7183000Y+5087000D03*
X-7000000Y+5087000D03*
X-6817000Y+5087000D03*
D55*
X-7900000Y+6020000D03*
D64*
X-5315350Y+4395000D03*
X-5315350Y+4268000D03*
X-5315350Y+4141000D03*
X-5315350Y+4014000D03*
X-5315350Y+3887000D03*
X-5315350Y+3760000D03*
X-5315350Y+3633000D03*
X-5315350Y+3506000D03*
X-4794650Y+3506000D03*
X-4794650Y+3633000D03*
X-4794650Y+3760000D03*
X-4794650Y+3887000D03*
X-4794650Y+4014000D03*
X-4794650Y+4141000D03*
X-4794650Y+4268000D03*
X-4794650Y+4395000D03*
D65*
X-6790000Y+1991170D03*
X-6790000Y+2306130D03*
X-7000000Y+1991170D03*
X-7000000Y+2306130D03*
X-5030000Y+4907520D03*
X-5030000Y+5222480D03*
X-5240000Y+4907520D03*
X-5240000Y+5222480D03*
X-7280000Y+3400000D03*
X-7280000Y+3260000D03*
X-7280000Y+3120000D03*
X-6530000Y+3400000D03*
X-6530000Y+3260000D03*
X-6530000Y+3120000D03*
D66*
X-6900000Y+3630000D03*
X-6900000Y+2880000D03*
D67*
X-5083000Y+2798000D03*
X-5193000Y+2798000D03*
X-5302000Y+2798000D03*
X-5413000Y+2798000D03*
X-5523000Y+2798000D03*
X-5632000Y+2798000D03*
X-5742000Y+2798000D03*
X-5852506Y+2798000D03*
D68*
X-6042498Y+2368000D03*
D69*
X-6042498Y+1332488D03*
D74*
X-4692488Y+1288000D03*
D68*
X-4927000Y+2798000D03*
D75*
X-6042498Y+1747000D03*
D67*
X-5947502Y+2798000D03*
D65*
X-6580000Y+1991170D03*
X-6580000Y+2306130D03*
X-7210000Y+1991170D03*
X-7210000Y+2306130D03*
D55*
X-6580000Y+2420000D03*
X-7210000Y+2420000D03*
D76*
X-9629120Y+2325000D03*
X-9629120Y+2025000D03*
X-9629120Y+1875000D03*
D77*
X-9814120Y+2250000D03*
X-9814120Y+1950000D03*
D78*
X-9709120Y+1755000D03*
X-9919120Y+1755000D03*
X-9919120Y+2445000D03*
X-9709120Y+2445000D03*
D79*
X-9671600Y+2863940D03*
D80*
X-9901600Y+2703940D03*
X-9901600Y+3123940D03*
D79*
X-9671600Y+2963940D03*
D81*
X-9700000Y+1300000D03*
X-9700000Y+6500000D03*
X-4100000Y+6500000D03*
X-4100000Y+1300000D03*
D82*
X-8829384Y+1513834D03*
X-8639392Y+1513834D03*
X-8734388Y+1733834D03*
D59*
X-8018875Y+1200000D03*
X-8358875Y+1200000D03*
D66*
X-8576908Y+1200000D03*
X-8891868Y+1200000D03*
D55*
X-9110000Y+1200000D03*
D66*
X-8445842Y+2101008D03*
X-8130882Y+2101008D03*
X-8445842Y+2391008D03*
X-8130882Y+2391008D03*
D55*
X-8000000Y+2390000D03*
D83*
X-9820000Y+4199020D03*
X-9820000Y+4105040D03*
X-9820000Y+4011060D03*
X-9560920Y+4011060D03*
X-9560920Y+4199020D03*
D55*
X-9690920Y+4301060D03*
D65*
X-9561840Y+3807205D03*
X-9561840Y+3492245D03*
D55*
X-9562760Y+3353050D03*
D65*
X-9570000Y+4485040D03*
X-9570000Y+4800000D03*
D55*
X-9570000Y+4921060D03*
D65*
X-9820000Y+4485040D03*
X-9820000Y+4800000D03*
X-9820920Y+3807205D03*
X-9820920Y+3492245D03*
D55*
X-9821840Y+3353050D03*
X-7470000Y+4100000D03*
D64*
X-8480000Y+3510000D03*
X-8480000Y+3637000D03*
X-8480000Y+3764000D03*
X-8480000Y+3891000D03*
X-8480000Y+4018000D03*
X-8480000Y+4145000D03*
X-8480000Y+4272000D03*
X-8480000Y+4399000D03*
X-9000700Y+4399000D03*
X-9000700Y+4272000D03*
X-9000700Y+4145000D03*
X-9000700Y+4018000D03*
X-9000700Y+3891000D03*
X-9000700Y+3764000D03*
X-9000700Y+3637000D03*
X-9000700Y+3510000D03*
D65*
X-8590000Y+2775660D03*
X-8590000Y+3090620D03*
X-8380000Y+2775660D03*
X-8380000Y+3090620D03*
X-8170000Y+2775660D03*
X-8170000Y+3090620D03*
X-7960000Y+2775660D03*
X-7960000Y+3090620D03*
X-9010000Y+2775660D03*
X-9010000Y+3090620D03*
X-8800000Y+2775660D03*
X-8800000Y+3090620D03*
D55*
X-8480000Y+4500000D03*
X-8660000Y+4020000D03*
D65*
X-9220000Y+3090620D03*
X-9220000Y+2775660D03*
D55*
X-9220000Y+2660000D03*
D66*
X-8735040Y+4820000D03*
X-9050000Y+4820000D03*
X-8735040Y+4610000D03*
X-9050000Y+4610000D03*
X-8735040Y+5040000D03*
X-9050000Y+5040000D03*
D65*
X-8170000Y+6062480D03*
X-8170000Y+5747520D03*
X-8385000Y+6062480D03*
X-8385000Y+5747520D03*
D66*
X-9857480Y+5250000D03*
X-9542520Y+5250000D03*
X-9542520Y+5460000D03*
X-9857480Y+5460000D03*
D84*
X-8730000Y+6500000D03*
X-9230000Y+6500000D03*
D66*
X-9857480Y+5953940D03*
X-9542520Y+5953940D03*
X-9542520Y+5738940D03*
X-9857480Y+5738940D03*
D84*
X-8550000Y+6500000D03*
X-8050000Y+6500000D03*
D66*
X-4357480Y+1770000D03*
X-4042520Y+1770000D03*
X-4357480Y+1990000D03*
X-4042520Y+1990000D03*
D55*
X-8530000Y+5750000D03*
D85*
X-8920000Y+5520000D03*
X-8670000Y+5520000D03*
D65*
X-8675000Y+5747520D03*
X-8675000Y+6062480D03*
X-8915000Y+5747520D03*
X-8915000Y+6062480D03*
D55*
X-8530000Y+6060000D03*
X-9410000Y+5953940D03*
X-9750000Y+5460000D03*
X-9050000Y+5160000D03*
D86*
X-4287484Y+3705000D03*
X-4287484Y+3895000D03*
X-4517484Y+3800000D03*
X-4287484Y+4165000D03*
X-4287484Y+4355000D03*
X-4517484Y+4260000D03*
X-4287484Y+4625000D03*
X-4287484Y+4815000D03*
X-4517484Y+4720000D03*
D65*
X-4077484Y+3945040D03*
X-4077484Y+3630080D03*
X-4077484Y+4420040D03*
X-4077484Y+4105080D03*
X-4077484Y+4890080D03*
X-4077484Y+4575120D03*
D87*
X-4110000Y+2880000D03*
X-4299992Y+2880000D03*
X-4204996Y+2620000D03*
D66*
X-4357480Y+2210000D03*
X-4042520Y+2210000D03*
X-4042520Y+2420000D03*
X-4357480Y+2420000D03*
X-4890000Y+5800000D03*
X-5204960Y+5800000D03*
D65*
X-4820000Y+4907520D03*
X-4820000Y+5222480D03*
D88*
X-4530000Y+3360000D03*
X-4530000Y+3080000D03*
D55*
X-4930000Y+2930000D03*
D66*
X-4250000Y+3360000D03*
X-3935040Y+3360000D03*
X-4250000Y+3080000D03*
X-3935040Y+3080000D03*
D89*
X-5400000Y+6464120D03*
X-5300000Y+6464120D03*
X-5200000Y+6464120D03*
X-5100000Y+6464120D03*
X-5000000Y+6464120D03*
X-4900000Y+6464120D03*
X-4800000Y+6464120D03*
X-4700000Y+6464120D03*
D90*
X-5560000Y+6694120D03*
X-4540000Y+6684120D03*
D55*
X-3930000Y+1990000D03*
X-4410000Y+2880000D03*
X-4470000Y+2420000D03*
X-6300000Y+2200000D03*
X-5630000Y+2930000D03*
X-8550000Y+6400000D03*
X-5300000Y+6300000D03*
X-5800000Y+6020000D03*
X-4690000Y+1130000D03*
D91*
X-7700000Y+1560000D03*
X-7700000Y+1220000D03*
D65*
X-7420000Y+1990000D03*
X-7420000Y+2304960D03*
D55*
X-3930000Y+2880000D03*
D79*
X-4130000Y+5800000D03*
X-4130000Y+5700000D03*
X-4130000Y+5600000D03*
X-4130000Y+5500000D03*
X-4130000Y+5400000D03*
D80*
X-3900000Y+5960000D03*
X-3900000Y+5240000D03*
D55*
X-4300000Y+5800000D03*
X-7420000Y+3260000D03*
X-4680000Y+5220000D03*
D43*
X-10000000Y+1000000D02*
X-3800000Y+1000000D01*
X-3800000Y+6800000D01*
X-10000000Y+6800000D01*
X-10000000Y+1000000D01*
M02*
