G04 PROTEUS GERBER X2 FILE*
%TF.GenerationSoftware,Labcenter,Proteus,8.17-SP5-Build39395*%
%TF.CreationDate,2024-11-13T15:27:42+00:00*%
%TF.FileFunction,Copper,L2,Bot*%
%TF.FilePolarity,Positive*%
%TF.Part,Single*%
%TF.SameCoordinates,{0a1d241a-e0a6-4a76-8978-5e44ef8297c2}*%
%FSLAX45Y45*%
%MOMM*%
G01*
%TA.AperFunction,Conductor*%
%ADD11C,0.381000*%
%ADD12C,0.254000*%
%TA.AperFunction,ViaPad*%
%ADD13C,0.762000*%
%TA.AperFunction,Conductor*%
%ADD10C,0.508000*%
%AMPPAD006*
4,1,36,
-0.195200,1.100000,
0.195200,1.100000,
0.256620,1.093810,
0.313830,1.076040,
0.365610,1.047940,
0.410720,1.010720,
0.447940,0.965600,
0.476040,0.913830,
0.493810,0.856620,
0.500000,0.795200,
0.500000,-0.795200,
0.493810,-0.856620,
0.476040,-0.913830,
0.447940,-0.965600,
0.410720,-1.010720,
0.365610,-1.047940,
0.313830,-1.076040,
0.256620,-1.093810,
0.195200,-1.100000,
-0.195200,-1.100000,
-0.256620,-1.093810,
-0.313830,-1.076040,
-0.365610,-1.047940,
-0.410720,-1.010720,
-0.447940,-0.965600,
-0.476040,-0.913830,
-0.493810,-0.856620,
-0.500000,-0.795200,
-0.500000,0.795200,
-0.493810,0.856620,
-0.476040,0.913830,
-0.447940,0.965600,
-0.410720,1.010720,
-0.365610,1.047940,
-0.313830,1.076040,
-0.256620,1.093810,
-0.195200,1.100000,
0*%
%TA.AperFunction,WasherPad*%
%ADD16PPAD006*%
%TA.AperFunction,OtherPad,Unknown*%
%ADD19C,0.762000*%
%TA.AperFunction,ComponentPad*%
%ADD72C,0.850000*%
%TA.AperFunction,OtherPad,Unknown*%
%ADD32C,4.572000*%
%TA.AperFunction,SMDPad,CuDef*%
%ADD44R,1.270000X1.016000*%
%TA.AperFunction,SMDPad,CuDef*%
%ADD40R,0.600000X2.000000*%
%ADD41R,0.750000X1.000000*%
%TA.AperFunction,Profile*%
%ADD43C,0.101600*%
%TD.AperFunction*%
%TA.AperFunction,Conductor*%
G36*
X-4250992Y+6725976D02*
X-4292176Y+6692177D01*
X-4325975Y+6650993D01*
X-4351090Y+6604006D01*
X-4366556Y+6553022D01*
X-4371779Y+6500000D01*
X-4366557Y+6446979D01*
X-4351091Y+6395995D01*
X-4325976Y+6349008D01*
X-4292177Y+6307824D01*
X-4250993Y+6274025D01*
X-4204006Y+6248910D01*
X-4153022Y+6233444D01*
X-4100000Y+6228221D01*
X-4046979Y+6233443D01*
X-3995995Y+6248909D01*
X-3949008Y+6274024D01*
X-3907824Y+6307823D01*
X-3874025Y+6349007D01*
X-3855880Y+6382954D01*
X-3855880Y+2903220D01*
X-3857255Y+2910132D01*
X-3874323Y+2935677D01*
X-3899868Y+2952746D01*
X-3930000Y+2958739D01*
X-3960132Y+2952745D01*
X-3985677Y+2935677D01*
X-4002746Y+2910132D01*
X-4008739Y+2880000D01*
X-4002745Y+2849868D01*
X-3985677Y+2824323D01*
X-3960132Y+2807254D01*
X-3930000Y+2801261D01*
X-3899868Y+2807255D01*
X-3874323Y+2824323D01*
X-3857254Y+2849868D01*
X-3855880Y+2856776D01*
X-3855880Y+2013220D01*
X-3857255Y+2020132D01*
X-3874323Y+2045677D01*
X-3899868Y+2062746D01*
X-3930000Y+2068739D01*
X-3960132Y+2062745D01*
X-3985677Y+2045677D01*
X-4002746Y+2020132D01*
X-4008739Y+1990000D01*
X-4002745Y+1959868D01*
X-3985677Y+1934323D01*
X-3960132Y+1917254D01*
X-3930000Y+1911261D01*
X-3899868Y+1917255D01*
X-3874323Y+1934323D01*
X-3857254Y+1959868D01*
X-3855880Y+1966776D01*
X-3855880Y+1417047D01*
X-3874024Y+1450992D01*
X-3907823Y+1492176D01*
X-3949007Y+1525975D01*
X-3995994Y+1551090D01*
X-4046978Y+1566556D01*
X-4100000Y+1571779D01*
X-4153021Y+1566557D01*
X-4204005Y+1551091D01*
X-4250992Y+1525976D01*
X-4292176Y+1492177D01*
X-4325975Y+1450993D01*
X-4351090Y+1404006D01*
X-4366556Y+1353022D01*
X-4371779Y+1300000D01*
X-4366557Y+1246979D01*
X-4351091Y+1195995D01*
X-4325976Y+1149008D01*
X-4292177Y+1107824D01*
X-4250993Y+1074025D01*
X-4217046Y+1055880D01*
X-4666780Y+1055880D01*
X-4659868Y+1057255D01*
X-4634323Y+1074323D01*
X-4617254Y+1099868D01*
X-4611261Y+1130000D01*
X-4617255Y+1160132D01*
X-4634323Y+1185677D01*
X-4659868Y+1202746D01*
X-4690000Y+1208739D01*
X-4720132Y+1202745D01*
X-4745677Y+1185677D01*
X-4762746Y+1160132D01*
X-4768739Y+1130000D01*
X-4762745Y+1099868D01*
X-4745677Y+1074323D01*
X-4720132Y+1057254D01*
X-4713224Y+1055880D01*
X-9582953Y+1055880D01*
X-9549008Y+1074024D01*
X-9507824Y+1107823D01*
X-9474025Y+1149007D01*
X-9448910Y+1195994D01*
X-9433444Y+1246978D01*
X-9428221Y+1300000D01*
X-9433443Y+1353021D01*
X-9448909Y+1404005D01*
X-9474024Y+1450992D01*
X-9507823Y+1492176D01*
X-9549007Y+1525975D01*
X-9595994Y+1551090D01*
X-9646978Y+1566556D01*
X-9700000Y+1571779D01*
X-9753021Y+1566557D01*
X-9804005Y+1551091D01*
X-9850992Y+1525976D01*
X-9892176Y+1492177D01*
X-9925975Y+1450993D01*
X-9944120Y+1417046D01*
X-9944120Y+6382953D01*
X-9925976Y+6349008D01*
X-9892177Y+6307824D01*
X-9850993Y+6274025D01*
X-9804006Y+6248910D01*
X-9753022Y+6233444D01*
X-9700000Y+6228221D01*
X-9646979Y+6233443D01*
X-9595995Y+6248909D01*
X-9549008Y+6274024D01*
X-9507824Y+6307823D01*
X-9474025Y+6349007D01*
X-9448910Y+6395994D01*
X-9433444Y+6446978D01*
X-9428221Y+6500000D01*
X-9433443Y+6553021D01*
X-9448909Y+6604005D01*
X-9474024Y+6650992D01*
X-9507823Y+6692176D01*
X-9549007Y+6725975D01*
X-9582954Y+6744120D01*
X-4217047Y+6744120D01*
X-4250992Y+6725976D01*
G37*
%TD.AperFunction*%
%LPC*%
G36*
X-7243901Y+1074901D02*
X-7420099Y+1074901D01*
X-7420099Y+1371099D01*
X-7243901Y+1371099D01*
X-7243901Y+1074901D01*
G37*
G36*
X-7243901Y+1474891D02*
X-7420099Y+1474891D01*
X-7420099Y+1771089D01*
X-7243901Y+1771089D01*
X-7243901Y+1474891D01*
G37*
G36*
X-6379901Y+1474889D02*
X-6556099Y+1474889D01*
X-6556099Y+1771087D01*
X-6379901Y+1771087D01*
X-6379901Y+1474889D01*
G37*
G36*
X-6379901Y+1074901D02*
X-6556099Y+1074901D01*
X-6556099Y+1371099D01*
X-6379901Y+1371099D01*
X-6379901Y+1074901D01*
G37*
G36*
X-8072746Y+2130132D02*
X-8055677Y+2155677D01*
X-8030132Y+2172745D01*
X-8000000Y+2178739D01*
X-7969868Y+2172746D01*
X-7944323Y+2155677D01*
X-7927255Y+2130132D01*
X-7921261Y+2100000D01*
X-7927254Y+2069868D01*
X-7944323Y+2044323D01*
X-7969868Y+2027255D01*
X-8000000Y+2021261D01*
X-8030132Y+2027254D01*
X-8055677Y+2044323D01*
X-8072745Y+2069868D01*
X-8078739Y+2100000D01*
X-8072746Y+2130132D01*
G37*
G36*
X-8762866Y+2030876D02*
X-8779935Y+2005331D01*
X-8805480Y+1988263D01*
X-8835612Y+1982269D01*
X-8865744Y+1988262D01*
X-8891289Y+2005331D01*
X-8908357Y+2030876D01*
X-8914351Y+2061008D01*
X-8908358Y+2091140D01*
X-8891289Y+2116685D01*
X-8865744Y+2133753D01*
X-8835612Y+2139747D01*
X-8805480Y+2133754D01*
X-8779935Y+2116685D01*
X-8762867Y+2091140D01*
X-8756873Y+2061008D01*
X-8762866Y+2030876D01*
G37*
G36*
X-7827254Y+5989868D02*
X-7844323Y+5964323D01*
X-7869868Y+5947255D01*
X-7900000Y+5941261D01*
X-7930132Y+5947254D01*
X-7955677Y+5964323D01*
X-7972745Y+5989868D01*
X-7978739Y+6020000D01*
X-7972746Y+6050132D01*
X-7955677Y+6075677D01*
X-7930132Y+6092745D01*
X-7900000Y+6098739D01*
X-7869868Y+6092746D01*
X-7844323Y+6075677D01*
X-7827255Y+6050132D01*
X-7821261Y+6020000D01*
X-7827254Y+5989868D01*
G37*
G36*
X-6799907Y+3028541D02*
X-6823392Y+2993393D01*
X-6858540Y+2969908D01*
X-6900000Y+2961661D01*
X-6941459Y+2969907D01*
X-6976607Y+2993392D01*
X-7000092Y+3028540D01*
X-7008339Y+3070000D01*
X-7000093Y+3111459D01*
X-6976608Y+3146607D01*
X-6941460Y+3170092D01*
X-6900000Y+3178339D01*
X-6858541Y+3170093D01*
X-6823393Y+3146608D01*
X-6799908Y+3111460D01*
X-6791661Y+3070000D01*
X-6799907Y+3028541D01*
G37*
G36*
X-6799907Y+3408541D02*
X-6823392Y+3373393D01*
X-6858540Y+3349908D01*
X-6900000Y+3341661D01*
X-6941459Y+3349907D01*
X-6976607Y+3373392D01*
X-7000092Y+3408540D01*
X-7008339Y+3450000D01*
X-7000093Y+3491459D01*
X-6976608Y+3526607D01*
X-6941460Y+3550092D01*
X-6900000Y+3558339D01*
X-6858541Y+3550093D01*
X-6823393Y+3526608D01*
X-6799908Y+3491460D01*
X-6791661Y+3450000D01*
X-6799907Y+3408541D01*
G37*
G36*
X-6652746Y+2450132D02*
X-6635677Y+2475677D01*
X-6610132Y+2492745D01*
X-6580000Y+2498739D01*
X-6549868Y+2492746D01*
X-6524323Y+2475677D01*
X-6507255Y+2450132D01*
X-6501261Y+2420000D01*
X-6507254Y+2389868D01*
X-6524323Y+2364323D01*
X-6549868Y+2347255D01*
X-6580000Y+2341261D01*
X-6610132Y+2347254D01*
X-6635677Y+2364323D01*
X-6652745Y+2389868D01*
X-6658739Y+2420000D01*
X-6652746Y+2450132D01*
G37*
G36*
X-7282746Y+2450132D02*
X-7265677Y+2475677D01*
X-7240132Y+2492745D01*
X-7210000Y+2498739D01*
X-7179868Y+2492746D01*
X-7154323Y+2475677D01*
X-7137255Y+2450132D01*
X-7131261Y+2420000D01*
X-7137254Y+2389868D01*
X-7154323Y+2364323D01*
X-7179868Y+2347255D01*
X-7210000Y+2341261D01*
X-7240132Y+2347254D01*
X-7265677Y+2364323D01*
X-7282745Y+2389868D01*
X-7288739Y+2420000D01*
X-7282746Y+2450132D01*
G37*
G36*
X-9845936Y+2173190D02*
X-9872908Y+2191212D01*
X-9890930Y+2218184D01*
X-9897259Y+2250000D01*
X-9890930Y+2281816D01*
X-9872908Y+2308788D01*
X-9845936Y+2326810D01*
X-9814120Y+2333139D01*
X-9782304Y+2326810D01*
X-9755332Y+2308788D01*
X-9737310Y+2281816D01*
X-9730981Y+2250000D01*
X-9737310Y+2218184D01*
X-9755332Y+2191212D01*
X-9782304Y+2173190D01*
X-9814120Y+2166861D01*
X-9845936Y+2173190D01*
G37*
G36*
X-9845936Y+1873190D02*
X-9872908Y+1891212D01*
X-9890930Y+1918184D01*
X-9897259Y+1950000D01*
X-9890930Y+1981816D01*
X-9872908Y+2008788D01*
X-9845936Y+2026810D01*
X-9814120Y+2033139D01*
X-9782304Y+2026810D01*
X-9755332Y+2008788D01*
X-9737310Y+1981816D01*
X-9730981Y+1950000D01*
X-9737310Y+1918184D01*
X-9755332Y+1891212D01*
X-9782304Y+1873190D01*
X-9814120Y+1866861D01*
X-9845936Y+1873190D01*
G37*
G36*
X-9037254Y+1169868D02*
X-9054323Y+1144323D01*
X-9079868Y+1127255D01*
X-9110000Y+1121261D01*
X-9140132Y+1127254D01*
X-9165677Y+1144323D01*
X-9182745Y+1169868D01*
X-9188739Y+1200000D01*
X-9182746Y+1230132D01*
X-9165677Y+1255677D01*
X-9140132Y+1272745D01*
X-9110000Y+1278739D01*
X-9079868Y+1272746D01*
X-9054323Y+1255677D01*
X-9037255Y+1230132D01*
X-9031261Y+1200000D01*
X-9037254Y+1169868D01*
G37*
G36*
X-8072746Y+2420132D02*
X-8055677Y+2445677D01*
X-8030132Y+2462745D01*
X-8000000Y+2468739D01*
X-7969868Y+2462746D01*
X-7944323Y+2445677D01*
X-7927255Y+2420132D01*
X-7921261Y+2390000D01*
X-7927254Y+2359868D01*
X-7944323Y+2334323D01*
X-7969868Y+2317255D01*
X-8000000Y+2311261D01*
X-8030132Y+2317254D01*
X-8055677Y+2334323D01*
X-8072745Y+2359868D01*
X-8078739Y+2390000D01*
X-8072746Y+2420132D01*
G37*
G36*
X-9618174Y+4270928D02*
X-9635243Y+4245383D01*
X-9660788Y+4228315D01*
X-9690920Y+4222321D01*
X-9721052Y+4228314D01*
X-9746597Y+4245383D01*
X-9763665Y+4270928D01*
X-9769659Y+4301060D01*
X-9763666Y+4331192D01*
X-9746597Y+4356737D01*
X-9721052Y+4373805D01*
X-9690920Y+4379799D01*
X-9660788Y+4373806D01*
X-9635243Y+4356737D01*
X-9618175Y+4331192D01*
X-9612181Y+4301060D01*
X-9618174Y+4270928D01*
G37*
G36*
X-9635506Y+3383182D02*
X-9618437Y+3408727D01*
X-9592892Y+3425795D01*
X-9562760Y+3431789D01*
X-9532628Y+3425796D01*
X-9507083Y+3408727D01*
X-9490015Y+3383182D01*
X-9484021Y+3353050D01*
X-9490014Y+3322918D01*
X-9507083Y+3297373D01*
X-9532628Y+3280305D01*
X-9562760Y+3274311D01*
X-9592892Y+3280304D01*
X-9618437Y+3297373D01*
X-9635505Y+3322918D01*
X-9641499Y+3353050D01*
X-9635506Y+3383182D01*
G37*
G36*
X-9497254Y+4890928D02*
X-9514323Y+4865383D01*
X-9539868Y+4848315D01*
X-9570000Y+4842321D01*
X-9600132Y+4848314D01*
X-9625677Y+4865383D01*
X-9642745Y+4890928D01*
X-9648739Y+4921060D01*
X-9642746Y+4951192D01*
X-9625677Y+4976737D01*
X-9600132Y+4993805D01*
X-9570000Y+4999799D01*
X-9539868Y+4993806D01*
X-9514323Y+4976737D01*
X-9497255Y+4951192D01*
X-9491261Y+4921060D01*
X-9497254Y+4890928D01*
G37*
G36*
X-9894586Y+3383182D02*
X-9877517Y+3408727D01*
X-9851972Y+3425795D01*
X-9821840Y+3431789D01*
X-9791708Y+3425796D01*
X-9766163Y+3408727D01*
X-9749095Y+3383182D01*
X-9743101Y+3353050D01*
X-9749094Y+3322918D01*
X-9766163Y+3297373D01*
X-9791708Y+3280305D01*
X-9821840Y+3274311D01*
X-9851972Y+3280304D01*
X-9877517Y+3297373D01*
X-9894585Y+3322918D01*
X-9900579Y+3353050D01*
X-9894586Y+3383182D01*
G37*
G36*
X-7397254Y+4069868D02*
X-7414323Y+4044323D01*
X-7439868Y+4027255D01*
X-7470000Y+4021261D01*
X-7500132Y+4027254D01*
X-7525677Y+4044323D01*
X-7542745Y+4069868D01*
X-7548739Y+4100000D01*
X-7542746Y+4130132D01*
X-7525677Y+4155677D01*
X-7500132Y+4172745D01*
X-7470000Y+4178739D01*
X-7439868Y+4172746D01*
X-7414323Y+4155677D01*
X-7397255Y+4130132D01*
X-7391261Y+4100000D01*
X-7397254Y+4069868D01*
G37*
G36*
X-8407254Y+4469868D02*
X-8424323Y+4444323D01*
X-8449868Y+4427255D01*
X-8480000Y+4421261D01*
X-8510132Y+4427254D01*
X-8535677Y+4444323D01*
X-8552745Y+4469868D01*
X-8558739Y+4500000D01*
X-8552746Y+4530132D01*
X-8535677Y+4555677D01*
X-8510132Y+4572745D01*
X-8480000Y+4578739D01*
X-8449868Y+4572746D01*
X-8424323Y+4555677D01*
X-8407255Y+4530132D01*
X-8401261Y+4500000D01*
X-8407254Y+4469868D01*
G37*
G36*
X-8587254Y+3989868D02*
X-8604323Y+3964323D01*
X-8629868Y+3947255D01*
X-8660000Y+3941261D01*
X-8690132Y+3947254D01*
X-8715677Y+3964323D01*
X-8732745Y+3989868D01*
X-8738739Y+4020000D01*
X-8732746Y+4050132D01*
X-8715677Y+4075677D01*
X-8690132Y+4092745D01*
X-8660000Y+4098739D01*
X-8629868Y+4092746D01*
X-8604323Y+4075677D01*
X-8587255Y+4050132D01*
X-8581261Y+4020000D01*
X-8587254Y+3989868D01*
G37*
G36*
X-9147254Y+2629868D02*
X-9164323Y+2604323D01*
X-9189868Y+2587255D01*
X-9220000Y+2581261D01*
X-9250132Y+2587254D01*
X-9275677Y+2604323D01*
X-9292745Y+2629868D01*
X-9298739Y+2660000D01*
X-9292746Y+2690132D01*
X-9275677Y+2715677D01*
X-9250132Y+2732745D01*
X-9220000Y+2738739D01*
X-9189868Y+2732746D01*
X-9164323Y+2715677D01*
X-9147255Y+2690132D01*
X-9141261Y+2660000D01*
X-9147254Y+2629868D01*
G37*
G36*
X-8457254Y+5719868D02*
X-8474323Y+5694323D01*
X-8499868Y+5677255D01*
X-8530000Y+5671261D01*
X-8560132Y+5677254D01*
X-8585677Y+5694323D01*
X-8602745Y+5719868D01*
X-8608739Y+5750000D01*
X-8602746Y+5780132D01*
X-8585677Y+5805677D01*
X-8560132Y+5822745D01*
X-8530000Y+5828739D01*
X-8499868Y+5822746D01*
X-8474323Y+5805677D01*
X-8457255Y+5780132D01*
X-8451261Y+5750000D01*
X-8457254Y+5719868D01*
G37*
G36*
X-8560132Y+5987254D02*
X-8585677Y+6004323D01*
X-8602745Y+6029868D01*
X-8608739Y+6060000D01*
X-8602746Y+6090132D01*
X-8585677Y+6115677D01*
X-8560132Y+6132745D01*
X-8530000Y+6138739D01*
X-8499868Y+6132746D01*
X-8474323Y+6115677D01*
X-8457255Y+6090132D01*
X-8451261Y+6060000D01*
X-8457254Y+6029868D01*
X-8474323Y+6004323D01*
X-8499868Y+5987255D01*
X-8530000Y+5981261D01*
X-8560132Y+5987254D01*
G37*
G36*
X-6169868Y+6572746D02*
X-6144323Y+6555677D01*
X-6127255Y+6530132D01*
X-6121261Y+6500000D01*
X-6125806Y+6477149D01*
X-5753474Y+6477149D01*
X-5730132Y+6492745D01*
X-5700000Y+6498739D01*
X-5669868Y+6492746D01*
X-5644323Y+6475677D01*
X-5627255Y+6450132D01*
X-5621261Y+6420000D01*
X-5627254Y+6389868D01*
X-5644323Y+6364323D01*
X-5669868Y+6347255D01*
X-5700000Y+6341261D01*
X-5730132Y+6347254D01*
X-5753475Y+6362851D01*
X-6255060Y+6362851D01*
X-6244323Y+6355677D01*
X-6227255Y+6330132D01*
X-6221261Y+6300000D01*
X-6227254Y+6269868D01*
X-6242852Y+6246525D01*
X-6242852Y+4956014D01*
X-6227255Y+4932672D01*
X-6221261Y+4902540D01*
X-6227254Y+4872408D01*
X-6244323Y+4846863D01*
X-6269868Y+4829795D01*
X-6300000Y+4823801D01*
X-6330132Y+4829794D01*
X-6332745Y+4831539D01*
X-5974771Y+4473564D01*
X-5979228Y+4495974D01*
X-5973235Y+4526106D01*
X-5956166Y+4551651D01*
X-5943835Y+4559890D01*
X-5955613Y+4567761D01*
X-5972681Y+4593306D01*
X-5978675Y+4623438D01*
X-5972682Y+4653570D01*
X-5955613Y+4679115D01*
X-5944265Y+4686697D01*
X-5955677Y+4694323D01*
X-5972745Y+4719868D01*
X-5978739Y+4750000D01*
X-5972746Y+4780132D01*
X-5955677Y+4805677D01*
X-5944236Y+4813321D01*
X-5955945Y+4821146D01*
X-5973013Y+4846691D01*
X-5979007Y+4876823D01*
X-5973014Y+4906955D01*
X-5955945Y+4932500D01*
X-5943971Y+4940500D01*
X-5955677Y+4948323D01*
X-5972745Y+4973868D01*
X-5978739Y+5004000D01*
X-5972746Y+5034132D01*
X-5955677Y+5059677D01*
X-5930132Y+5076745D01*
X-5900000Y+5082739D01*
X-5869868Y+5076746D01*
X-5846526Y+5061149D01*
X-5653367Y+5061149D01*
X-5157149Y+5557367D01*
X-5157149Y+5962368D01*
X-5283585Y+5835932D01*
X-5661175Y+5835932D01*
X-5642852Y+5817609D01*
X-5642852Y+5253474D01*
X-5627255Y+5230132D01*
X-5621261Y+5200000D01*
X-5627254Y+5169868D01*
X-5644323Y+5144323D01*
X-5669868Y+5127255D01*
X-5700000Y+5121261D01*
X-5730132Y+5127254D01*
X-5755677Y+5144323D01*
X-5772745Y+5169868D01*
X-5778739Y+5200000D01*
X-5772746Y+5230132D01*
X-5757149Y+5253474D01*
X-5757149Y+5770265D01*
X-5822816Y+5835932D01*
X-5846527Y+5835932D01*
X-5869868Y+5820336D01*
X-5900000Y+5814342D01*
X-5930132Y+5820335D01*
X-5955677Y+5837404D01*
X-5972745Y+5862949D01*
X-5978739Y+5893081D01*
X-5972746Y+5923213D01*
X-5955677Y+5948758D01*
X-5930132Y+5965826D01*
X-5900000Y+5971820D01*
X-5869868Y+5965827D01*
X-5847477Y+5950865D01*
X-5835537Y+5950865D01*
X-5855677Y+5964323D01*
X-5872745Y+5989868D01*
X-5878739Y+6020000D01*
X-5872746Y+6050132D01*
X-5855677Y+6075677D01*
X-5830132Y+6092745D01*
X-5800000Y+6098739D01*
X-5769868Y+6092746D01*
X-5744323Y+6075677D01*
X-5727255Y+6050132D01*
X-5721261Y+6020000D01*
X-5727254Y+5989868D01*
X-5744323Y+5964323D01*
X-5765416Y+5950230D01*
X-5330927Y+5950230D01*
X-5258621Y+6022536D01*
X-5258621Y+6234769D01*
X-5269868Y+6227255D01*
X-5300000Y+6221261D01*
X-5330132Y+6227254D01*
X-5355677Y+6244323D01*
X-5372745Y+6269868D01*
X-5378739Y+6300000D01*
X-5372746Y+6330132D01*
X-5355677Y+6355677D01*
X-5330132Y+6372745D01*
X-5300000Y+6378739D01*
X-5269868Y+6372746D01*
X-5250000Y+6359470D01*
X-5230132Y+6372745D01*
X-5200000Y+6378739D01*
X-5169868Y+6372746D01*
X-5144323Y+6355677D01*
X-5127255Y+6330132D01*
X-5121261Y+6300000D01*
X-5126540Y+6273459D01*
X-5100000Y+6278739D01*
X-5073460Y+6273460D01*
X-5078739Y+6300000D01*
X-5072746Y+6330132D01*
X-5055677Y+6355677D01*
X-5030132Y+6372745D01*
X-5000000Y+6378739D01*
X-4969868Y+6372746D01*
X-4944323Y+6355677D01*
X-4927255Y+6330132D01*
X-4921261Y+6300000D01*
X-4926540Y+6273459D01*
X-4900000Y+6278739D01*
X-4873460Y+6273460D01*
X-4878739Y+6300000D01*
X-4872746Y+6330132D01*
X-4855677Y+6355677D01*
X-4830132Y+6372745D01*
X-4800000Y+6378739D01*
X-4769868Y+6372746D01*
X-4744323Y+6355677D01*
X-4727255Y+6330132D01*
X-4721261Y+6300000D01*
X-4726540Y+6273459D01*
X-4700000Y+6278739D01*
X-4669868Y+6272746D01*
X-4644323Y+6255677D01*
X-4627255Y+6230132D01*
X-4621261Y+6200000D01*
X-4627254Y+6169868D01*
X-4642851Y+6146525D01*
X-4642851Y+5646579D01*
X-4633713Y+5655717D01*
X-4626461Y+5655717D01*
X-4625029Y+5657149D01*
X-4493474Y+5657149D01*
X-4470132Y+5672745D01*
X-4440000Y+5678739D01*
X-4409868Y+5672746D01*
X-4384323Y+5655677D01*
X-4367255Y+5630132D01*
X-4361261Y+5600000D01*
X-4367254Y+5569868D01*
X-4375753Y+5557149D01*
X-4353474Y+5557149D01*
X-4330132Y+5572745D01*
X-4300000Y+5578739D01*
X-4269868Y+5572746D01*
X-4244323Y+5555677D01*
X-4227255Y+5530132D01*
X-4221261Y+5500000D01*
X-4227254Y+5469868D01*
X-4244323Y+5444323D01*
X-4269868Y+5427255D01*
X-4300000Y+5421261D01*
X-4330132Y+5427254D01*
X-4353475Y+5442851D01*
X-4598591Y+5442851D01*
X-4972851Y+5068591D01*
X-4972851Y+5053473D01*
X-4957255Y+5030132D01*
X-4951261Y+5000000D01*
X-4957254Y+4969868D01*
X-4974323Y+4944323D01*
X-4999868Y+4927255D01*
X-5030000Y+4921261D01*
X-5060132Y+4927254D01*
X-5085677Y+4944323D01*
X-5102745Y+4969868D01*
X-5108739Y+5000000D01*
X-5104010Y+5023780D01*
X-5184114Y+4943676D01*
X-5184114Y+4852210D01*
X-5168518Y+4828869D01*
X-5162524Y+4798737D01*
X-5168517Y+4768605D01*
X-5185586Y+4743060D01*
X-5211131Y+4725992D01*
X-5241263Y+4719998D01*
X-5271395Y+4725991D01*
X-5296940Y+4743060D01*
X-5314008Y+4768605D01*
X-5320002Y+4798737D01*
X-5314009Y+4828869D01*
X-5298412Y+4852211D01*
X-5298412Y+4916652D01*
X-5776239Y+4438825D01*
X-5847016Y+4438825D01*
X-5870357Y+4423229D01*
X-5900489Y+4417235D01*
X-5922898Y+4421691D01*
X-5877718Y+4376512D01*
X-4911685Y+4376512D01*
X-4742276Y+4545921D01*
X-4736799Y+4573456D01*
X-4719730Y+4599001D01*
X-4694185Y+4616069D01*
X-4664053Y+4622063D01*
X-4633921Y+4616070D01*
X-4608376Y+4599001D01*
X-4591308Y+4573456D01*
X-4585314Y+4543324D01*
X-4591307Y+4513192D01*
X-4608376Y+4487647D01*
X-4633921Y+4470579D01*
X-4661456Y+4465101D01*
X-4808047Y+4318510D01*
X-4663475Y+4318510D01*
X-4640132Y+4334107D01*
X-4610000Y+4340101D01*
X-4579868Y+4334108D01*
X-4554323Y+4317039D01*
X-4537255Y+4291494D01*
X-4531261Y+4261362D01*
X-4537254Y+4231230D01*
X-4554323Y+4205685D01*
X-4579868Y+4188617D01*
X-4610000Y+4182623D01*
X-4640132Y+4188616D01*
X-4663475Y+4204213D01*
X-4933393Y+4204213D01*
X-4607403Y+3878222D01*
X-4579868Y+3872746D01*
X-4554323Y+3855677D01*
X-4537255Y+3830132D01*
X-4531261Y+3800000D01*
X-4537254Y+3769868D01*
X-4554323Y+3744323D01*
X-4579868Y+3727255D01*
X-4610000Y+3721261D01*
X-4640132Y+3727254D01*
X-4665677Y+3744323D01*
X-4682745Y+3769868D01*
X-4688223Y+3797402D01*
X-5033671Y+4142851D01*
X-5776329Y+4142851D01*
X-5939245Y+3979935D01*
X-6288854Y+3979935D01*
X-6330381Y+4021461D01*
X-6357915Y+4026938D01*
X-6383460Y+4044007D01*
X-6400528Y+4069552D01*
X-6406522Y+4099684D01*
X-6400529Y+4129816D01*
X-6383460Y+4155361D01*
X-6357915Y+4172429D01*
X-6327783Y+4178423D01*
X-6297651Y+4172430D01*
X-6272106Y+4155361D01*
X-6255038Y+4129816D01*
X-6249561Y+4102281D01*
X-6241512Y+4094233D01*
X-5986587Y+4094233D01*
X-5876607Y+4204213D01*
X-6121773Y+4204214D01*
X-6209337Y+4291777D01*
X-6236871Y+4297254D01*
X-6262416Y+4314323D01*
X-6279484Y+4339868D01*
X-6284962Y+4367402D01*
X-6357148Y+4439589D01*
X-6357148Y+4463261D01*
X-6357149Y+4546525D01*
X-6372745Y+4569868D01*
X-6378739Y+4600000D01*
X-6372746Y+4630132D01*
X-6355677Y+4655677D01*
X-6333404Y+4670558D01*
X-6447148Y+4784303D01*
X-6447148Y+6057684D01*
X-6464401Y+6074937D01*
X-6464401Y+5991901D01*
X-6615599Y+5991901D01*
X-6615599Y+6120656D01*
X-7184401Y+6120656D01*
X-7184401Y+5991901D01*
X-7335599Y+5991901D01*
X-7335599Y+6120656D01*
X-7504371Y+6120656D01*
X-7861642Y+5763385D01*
X-7867118Y+5735851D01*
X-7884187Y+5710306D01*
X-7895977Y+5702429D01*
X-7884478Y+5694746D01*
X-7867410Y+5669201D01*
X-7861416Y+5639069D01*
X-7867409Y+5608937D01*
X-7884478Y+5583392D01*
X-7896302Y+5575492D01*
X-7884575Y+5567657D01*
X-7867507Y+5542112D01*
X-7861513Y+5511980D01*
X-7867506Y+5481848D01*
X-7884575Y+5456303D01*
X-7896098Y+5448603D01*
X-7884230Y+5440674D01*
X-7867162Y+5415129D01*
X-7861168Y+5384997D01*
X-7867161Y+5354865D01*
X-7884230Y+5329320D01*
X-7909775Y+5312252D01*
X-7939907Y+5306258D01*
X-7970039Y+5312251D01*
X-7993382Y+5327848D01*
X-8011332Y+5327848D01*
X-8062851Y+5276329D01*
X-8062851Y+4301393D01*
X-8221900Y+4142344D01*
X-8227376Y+4114810D01*
X-8244445Y+4089265D01*
X-8269990Y+4072197D01*
X-8300122Y+4066203D01*
X-8330254Y+4072196D01*
X-8355799Y+4089265D01*
X-8372867Y+4114810D01*
X-8378861Y+4144942D01*
X-8372868Y+4175074D01*
X-8355799Y+4200619D01*
X-8343846Y+4208605D01*
X-8355911Y+4216668D01*
X-8372979Y+4242213D01*
X-8378973Y+4272345D01*
X-8372980Y+4302477D01*
X-8355911Y+4328022D01*
X-8330366Y+4345090D01*
X-8302832Y+4350567D01*
X-8247148Y+4406251D01*
X-8247148Y+4776452D01*
X-8409431Y+4614169D01*
X-9075011Y+4614169D01*
X-9142852Y+4546328D01*
X-9142852Y+4477947D01*
X-9117186Y+4472843D01*
X-9091641Y+4455774D01*
X-9074573Y+4430229D01*
X-9068579Y+4400097D01*
X-9074572Y+4369965D01*
X-9091641Y+4344420D01*
X-9117186Y+4327352D01*
X-9147318Y+4321358D01*
X-9177450Y+4327351D01*
X-9202995Y+4344420D01*
X-9220063Y+4369965D01*
X-9225541Y+4397499D01*
X-9257148Y+4429107D01*
X-9257148Y+4592851D01*
X-9622683Y+4592851D01*
X-9627254Y+4569868D01*
X-9644323Y+4544323D01*
X-9669868Y+4527255D01*
X-9700000Y+4521261D01*
X-9730132Y+4527254D01*
X-9755677Y+4544323D01*
X-9772745Y+4569868D01*
X-9778739Y+4600000D01*
X-9772746Y+4630132D01*
X-9755677Y+4655677D01*
X-9730132Y+4672745D01*
X-9702598Y+4678222D01*
X-9673671Y+4707149D01*
X-9237526Y+4707149D01*
X-9157982Y+4786693D01*
X-8494127Y+4786693D01*
X-8457149Y+4823671D01*
X-8457149Y+4953146D01*
X-8555913Y+5051910D01*
X-8555913Y+5180956D01*
X-8476337Y+5260532D01*
X-8470860Y+5288067D01*
X-8453791Y+5313612D01*
X-8428246Y+5330680D01*
X-8398114Y+5336674D01*
X-8367982Y+5330681D01*
X-8342437Y+5313612D01*
X-8325369Y+5288067D01*
X-8319375Y+5257935D01*
X-8325368Y+5227803D01*
X-8342437Y+5202258D01*
X-8367982Y+5185190D01*
X-8395517Y+5179712D01*
X-8441615Y+5133614D01*
X-8441615Y+5099252D01*
X-8342851Y+5000489D01*
X-8342851Y+4842389D01*
X-8307149Y+4878091D01*
X-8307149Y+5543671D01*
X-8154602Y+5696218D01*
X-7993629Y+5696218D01*
X-7984043Y+5702622D01*
X-7995541Y+5710306D01*
X-8012609Y+5735851D01*
X-8018087Y+5763385D01*
X-8397553Y+6142851D01*
X-8676329Y+6142851D01*
X-8776329Y+6042851D01*
X-9306527Y+6042851D01*
X-9329868Y+6027255D01*
X-9360000Y+6021261D01*
X-9376729Y+6024588D01*
X-9354323Y+6009617D01*
X-9337255Y+5984072D01*
X-9331261Y+5953940D01*
X-9337254Y+5923808D01*
X-9354323Y+5898263D01*
X-9379868Y+5881195D01*
X-9410000Y+5875201D01*
X-9440132Y+5881194D01*
X-9465677Y+5898263D01*
X-9482745Y+5923808D01*
X-9488739Y+5953940D01*
X-9482746Y+5984072D01*
X-9465677Y+6009617D01*
X-9440132Y+6026685D01*
X-9410000Y+6032679D01*
X-9393272Y+6029351D01*
X-9415677Y+6044323D01*
X-9432745Y+6069868D01*
X-9438739Y+6100000D01*
X-9432746Y+6130132D01*
X-9415677Y+6155677D01*
X-9390132Y+6172745D01*
X-9360000Y+6178739D01*
X-9329868Y+6172746D01*
X-9306526Y+6157149D01*
X-8823671Y+6157149D01*
X-8723671Y+6257149D01*
X-8350210Y+6257149D01*
X-7939864Y+5846803D01*
X-7551713Y+6234954D01*
X-6462778Y+6234954D01*
X-6357149Y+6129325D01*
X-6357149Y+6246526D01*
X-6372745Y+6269868D01*
X-6378739Y+6300000D01*
X-6372746Y+6330132D01*
X-6355677Y+6355677D01*
X-6344940Y+6362851D01*
X-7656329Y+6362851D01*
X-7821778Y+6197402D01*
X-7827254Y+6169868D01*
X-7844323Y+6144323D01*
X-7869868Y+6127255D01*
X-7900000Y+6121261D01*
X-7930132Y+6127254D01*
X-7955677Y+6144323D01*
X-7972745Y+6169868D01*
X-7978739Y+6200000D01*
X-7972746Y+6230132D01*
X-7955677Y+6255677D01*
X-7930132Y+6272745D01*
X-7902598Y+6278222D01*
X-7737969Y+6442851D01*
X-7846527Y+6442851D01*
X-7869868Y+6427255D01*
X-7900000Y+6421261D01*
X-7930132Y+6427254D01*
X-7955677Y+6444323D01*
X-7972745Y+6469868D01*
X-7978739Y+6500000D01*
X-7972746Y+6530132D01*
X-7955677Y+6555677D01*
X-7930132Y+6572745D01*
X-7900000Y+6578739D01*
X-7869868Y+6572746D01*
X-7846526Y+6557149D01*
X-6253474Y+6557149D01*
X-6230132Y+6572745D01*
X-6200000Y+6578739D01*
X-6169868Y+6572746D01*
G37*
G36*
X-9677254Y+5429868D02*
X-9694323Y+5404323D01*
X-9719868Y+5387255D01*
X-9750000Y+5381261D01*
X-9780132Y+5387254D01*
X-9805677Y+5404323D01*
X-9822745Y+5429868D01*
X-9828739Y+5460000D01*
X-9822746Y+5490132D01*
X-9805677Y+5515677D01*
X-9780132Y+5532745D01*
X-9750000Y+5538739D01*
X-9719868Y+5532746D01*
X-9694323Y+5515677D01*
X-9677255Y+5490132D01*
X-9671261Y+5460000D01*
X-9677254Y+5429868D01*
G37*
G36*
X-8977254Y+5129868D02*
X-8994323Y+5104323D01*
X-9019868Y+5087255D01*
X-9050000Y+5081261D01*
X-9080132Y+5087254D01*
X-9105677Y+5104323D01*
X-9122745Y+5129868D01*
X-9128739Y+5160000D01*
X-9122746Y+5190132D01*
X-9105677Y+5215677D01*
X-9080132Y+5232745D01*
X-9050000Y+5238739D01*
X-9019868Y+5232746D01*
X-8994323Y+5215677D01*
X-8977255Y+5190132D01*
X-8971261Y+5160000D01*
X-8977254Y+5129868D01*
G37*
G36*
X-4857254Y+2899868D02*
X-4874323Y+2874323D01*
X-4899868Y+2857255D01*
X-4930000Y+2851261D01*
X-4960132Y+2857254D01*
X-4985677Y+2874323D01*
X-5002745Y+2899868D01*
X-5008739Y+2930000D01*
X-5002746Y+2960132D01*
X-4985677Y+2985677D01*
X-4960132Y+3002745D01*
X-4930000Y+3008739D01*
X-4899868Y+3002746D01*
X-4874323Y+2985677D01*
X-4857255Y+2960132D01*
X-4851261Y+2930000D01*
X-4857254Y+2899868D01*
G37*
G36*
X-4379868Y+2952746D02*
X-4354323Y+2935677D01*
X-4337255Y+2910132D01*
X-4331261Y+2880000D01*
X-4337254Y+2849868D01*
X-4354323Y+2824323D01*
X-4379868Y+2807255D01*
X-4410000Y+2801261D01*
X-4440132Y+2807254D01*
X-4465677Y+2824323D01*
X-4482745Y+2849868D01*
X-4488739Y+2880000D01*
X-4482746Y+2910132D01*
X-4465677Y+2935677D01*
X-4440132Y+2952745D01*
X-4410000Y+2958739D01*
X-4379868Y+2952746D01*
G37*
G36*
X-4397254Y+2389868D02*
X-4414323Y+2364323D01*
X-4439868Y+2347255D01*
X-4470000Y+2341261D01*
X-4500132Y+2347254D01*
X-4525677Y+2364323D01*
X-4542745Y+2389868D01*
X-4548739Y+2420000D01*
X-4542746Y+2450132D01*
X-4525677Y+2475677D01*
X-4500132Y+2492745D01*
X-4470000Y+2498739D01*
X-4439868Y+2492746D01*
X-4414323Y+2475677D01*
X-4397255Y+2450132D01*
X-4391261Y+2420000D01*
X-4397254Y+2389868D01*
G37*
G36*
X-6227254Y+2169868D02*
X-6244323Y+2144323D01*
X-6269868Y+2127255D01*
X-6300000Y+2121261D01*
X-6330132Y+2127254D01*
X-6355677Y+2144323D01*
X-6372745Y+2169868D01*
X-6378739Y+2200000D01*
X-6372746Y+2230132D01*
X-6355677Y+2255677D01*
X-6330132Y+2272745D01*
X-6300000Y+2278739D01*
X-6269868Y+2272746D01*
X-6244323Y+2255677D01*
X-6227255Y+2230132D01*
X-6221261Y+2200000D01*
X-6227254Y+2169868D01*
G37*
G36*
X-5557254Y+2899868D02*
X-5574323Y+2874323D01*
X-5599868Y+2857255D01*
X-5630000Y+2851261D01*
X-5660132Y+2857254D01*
X-5685677Y+2874323D01*
X-5702745Y+2899868D01*
X-5708739Y+2930000D01*
X-5702746Y+2960132D01*
X-5685677Y+2985677D01*
X-5660132Y+3002745D01*
X-5630000Y+3008739D01*
X-5599868Y+3002746D01*
X-5574323Y+2985677D01*
X-5557255Y+2960132D01*
X-5551261Y+2930000D01*
X-5557254Y+2899868D01*
G37*
G36*
X-8580132Y+6327254D02*
X-8605677Y+6344323D01*
X-8622745Y+6369868D01*
X-8628739Y+6400000D01*
X-8622746Y+6430132D01*
X-8605677Y+6455677D01*
X-8580132Y+6472745D01*
X-8550000Y+6478739D01*
X-8519868Y+6472746D01*
X-8494323Y+6455677D01*
X-8477255Y+6430132D01*
X-8471261Y+6400000D01*
X-8477254Y+6369868D01*
X-8494323Y+6344323D01*
X-8519868Y+6327255D01*
X-8550000Y+6321261D01*
X-8580132Y+6327254D01*
G37*
G36*
X-4227254Y+5769868D02*
X-4244323Y+5744323D01*
X-4269868Y+5727255D01*
X-4300000Y+5721261D01*
X-4330132Y+5727254D01*
X-4355677Y+5744323D01*
X-4372745Y+5769868D01*
X-4378739Y+5800000D01*
X-4372746Y+5830132D01*
X-4355677Y+5855677D01*
X-4330132Y+5872745D01*
X-4300000Y+5878739D01*
X-4269868Y+5872746D01*
X-4244323Y+5855677D01*
X-4227255Y+5830132D01*
X-4221261Y+5800000D01*
X-4227254Y+5769868D01*
G37*
G36*
X-6631901Y+5711901D02*
X-6742851Y+5711901D01*
X-6742851Y+5513671D01*
X-6698079Y+5468899D01*
X-6588401Y+5468899D01*
X-6588401Y+5291101D01*
X-6791599Y+5291101D01*
X-6791599Y+5400779D01*
X-6857149Y+5466329D01*
X-6857149Y+5706149D01*
X-7111125Y+5452173D01*
X-7178401Y+5452173D01*
X-7178401Y+5291101D01*
X-7741599Y+5291101D01*
X-7741599Y+5468899D01*
X-7697149Y+5468899D01*
X-7697149Y+5523671D01*
X-7535762Y+5685058D01*
X-7222257Y+5685058D01*
X-7168099Y+5739216D01*
X-7168099Y+5988099D01*
X-6631901Y+5988099D01*
X-6631901Y+5711901D01*
G37*
G36*
X-6588401Y+5077741D02*
X-6632851Y+5077741D01*
X-6632851Y+4673473D01*
X-6617255Y+4650132D01*
X-6611261Y+4620000D01*
X-6617254Y+4589868D01*
X-6634323Y+4564323D01*
X-6659868Y+4547255D01*
X-6690000Y+4541261D01*
X-6720132Y+4547254D01*
X-6745677Y+4564323D01*
X-6762745Y+4589868D01*
X-6768739Y+4620000D01*
X-6762746Y+4650132D01*
X-6747149Y+4673474D01*
X-6747149Y+5077741D01*
X-6791599Y+5077741D01*
X-6791599Y+5255539D01*
X-6588401Y+5255539D01*
X-6588401Y+5077741D01*
G37*
G36*
X-7178401Y+5077741D02*
X-7222851Y+5077741D01*
X-7222851Y+5030954D01*
X-7304894Y+4948911D01*
X-7304894Y+4486403D01*
X-7288895Y+4475713D01*
X-7271827Y+4450168D01*
X-7265833Y+4420036D01*
X-7271826Y+4389904D01*
X-7288895Y+4364359D01*
X-7314440Y+4347291D01*
X-7344572Y+4341297D01*
X-7374704Y+4347290D01*
X-7400249Y+4364359D01*
X-7417317Y+4389904D01*
X-7423311Y+4420036D01*
X-7419192Y+4440745D01*
X-7419192Y+4468895D01*
X-7522051Y+4366036D01*
X-7527527Y+4338502D01*
X-7544596Y+4312957D01*
X-7570141Y+4295889D01*
X-7600273Y+4289895D01*
X-7630405Y+4295888D01*
X-7655950Y+4312957D01*
X-7673018Y+4338502D01*
X-7679012Y+4368634D01*
X-7673019Y+4398766D01*
X-7655950Y+4424311D01*
X-7643353Y+4432727D01*
X-7654835Y+4440400D01*
X-7671903Y+4465945D01*
X-7677897Y+4496077D01*
X-7671904Y+4526209D01*
X-7654835Y+4551754D01*
X-7629290Y+4568822D01*
X-7607149Y+4573226D01*
X-7607149Y+4944099D01*
X-7697149Y+5034099D01*
X-7697149Y+5077741D01*
X-7741599Y+5077741D01*
X-7741599Y+5255539D01*
X-7178401Y+5255539D01*
X-7178401Y+5077741D01*
G37*
G36*
X-7492746Y+3290132D02*
X-7475677Y+3315677D01*
X-7450132Y+3332745D01*
X-7420000Y+3338739D01*
X-7389868Y+3332746D01*
X-7364323Y+3315677D01*
X-7347255Y+3290132D01*
X-7341261Y+3260000D01*
X-7347254Y+3229868D01*
X-7364323Y+3204323D01*
X-7389868Y+3187255D01*
X-7420000Y+3181261D01*
X-7450132Y+3187254D01*
X-7475677Y+3204323D01*
X-7492745Y+3229868D01*
X-7498739Y+3260000D01*
X-7492746Y+3290132D01*
G37*
G36*
X-4607254Y+5189868D02*
X-4624323Y+5164323D01*
X-4649868Y+5147255D01*
X-4680000Y+5141261D01*
X-4710132Y+5147254D01*
X-4735677Y+5164323D01*
X-4752745Y+5189868D01*
X-4758739Y+5220000D01*
X-4752746Y+5250132D01*
X-4735677Y+5275677D01*
X-4710132Y+5292745D01*
X-4680000Y+5298739D01*
X-4649868Y+5292746D01*
X-4624323Y+5275677D01*
X-4607255Y+5250132D01*
X-4601261Y+5220000D01*
X-4607254Y+5189868D01*
G37*
G36*
X-8769868Y+3872746D02*
X-8744323Y+3855677D01*
X-8727255Y+3830132D01*
X-8721261Y+3800000D01*
X-8727254Y+3769868D01*
X-8742851Y+3746525D01*
X-8742851Y+3437969D01*
X-8523671Y+3657149D01*
X-7753474Y+3657149D01*
X-7730132Y+3672745D01*
X-7700000Y+3678739D01*
X-7669868Y+3672746D01*
X-7644323Y+3655677D01*
X-7627255Y+3630132D01*
X-7621261Y+3600000D01*
X-7627254Y+3569868D01*
X-7640530Y+3549999D01*
X-7627255Y+3530132D01*
X-7621261Y+3500000D01*
X-7627254Y+3469868D01*
X-7640530Y+3449999D01*
X-7627255Y+3430132D01*
X-7621261Y+3400000D01*
X-7627254Y+3369868D01*
X-7644323Y+3344323D01*
X-7669868Y+3327255D01*
X-7700000Y+3321261D01*
X-7730132Y+3327254D01*
X-7753475Y+3342851D01*
X-7762031Y+3342851D01*
X-7697403Y+3278222D01*
X-7669868Y+3272746D01*
X-7644323Y+3255677D01*
X-7627255Y+3230132D01*
X-7621261Y+3200000D01*
X-7627254Y+3169868D01*
X-7644323Y+3144323D01*
X-7669868Y+3127255D01*
X-7700000Y+3121261D01*
X-7730132Y+3127254D01*
X-7755677Y+3144323D01*
X-7772745Y+3169868D01*
X-7778223Y+3197402D01*
X-7823672Y+3242852D01*
X-8046328Y+3242852D01*
X-8091778Y+3197402D01*
X-8097254Y+3169868D01*
X-8114323Y+3144323D01*
X-8139868Y+3127255D01*
X-8170000Y+3121261D01*
X-8200132Y+3127254D01*
X-8225677Y+3144323D01*
X-8242745Y+3169868D01*
X-8248739Y+3200000D01*
X-8242746Y+3230132D01*
X-8225677Y+3255677D01*
X-8200132Y+3272745D01*
X-8172598Y+3278222D01*
X-8107969Y+3342851D01*
X-8256329Y+3342851D01*
X-8301778Y+3297402D01*
X-8307254Y+3269868D01*
X-8324323Y+3244323D01*
X-8349868Y+3227255D01*
X-8380000Y+3221261D01*
X-8410132Y+3227254D01*
X-8435677Y+3244323D01*
X-8452745Y+3269868D01*
X-8458739Y+3300000D01*
X-8452746Y+3330132D01*
X-8435677Y+3355677D01*
X-8410132Y+3372745D01*
X-8382598Y+3378222D01*
X-8317969Y+3442851D01*
X-8366329Y+3442851D01*
X-8511778Y+3297402D01*
X-8517254Y+3269868D01*
X-8534323Y+3244323D01*
X-8559868Y+3227255D01*
X-8590000Y+3221261D01*
X-8620132Y+3227254D01*
X-8645677Y+3244323D01*
X-8662745Y+3269868D01*
X-8668739Y+3300000D01*
X-8662746Y+3330132D01*
X-8645677Y+3355677D01*
X-8620132Y+3372745D01*
X-8592598Y+3378222D01*
X-8427969Y+3542851D01*
X-8476329Y+3542851D01*
X-8721778Y+3297402D01*
X-8727254Y+3269868D01*
X-8744323Y+3244323D01*
X-8769868Y+3227255D01*
X-8800000Y+3221261D01*
X-8830132Y+3227254D01*
X-8855677Y+3244323D01*
X-8872745Y+3269868D01*
X-8878739Y+3300000D01*
X-8872746Y+3330132D01*
X-8857149Y+3353474D01*
X-8857149Y+3746526D01*
X-8872745Y+3769868D01*
X-8878739Y+3800000D01*
X-8872746Y+3830132D01*
X-8855677Y+3855677D01*
X-8830132Y+3872745D01*
X-8800000Y+3878739D01*
X-8769868Y+3872746D01*
G37*
G36*
X-9269868Y+5632746D02*
X-9244323Y+5615677D01*
X-9227255Y+5590132D01*
X-9221261Y+5560000D01*
X-9227254Y+5529868D01*
X-9242851Y+5506525D01*
X-9242851Y+5053473D01*
X-9227255Y+5030132D01*
X-9221261Y+5000000D01*
X-9227254Y+4969868D01*
X-9244323Y+4944323D01*
X-9269868Y+4927255D01*
X-9300000Y+4921261D01*
X-9330132Y+4927254D01*
X-9342851Y+4935752D01*
X-9342851Y+4853473D01*
X-9327255Y+4830132D01*
X-9321261Y+4800000D01*
X-9327254Y+4769868D01*
X-9344323Y+4744323D01*
X-9369868Y+4727255D01*
X-9400000Y+4721261D01*
X-9430132Y+4727254D01*
X-9455677Y+4744323D01*
X-9472745Y+4769868D01*
X-9478739Y+4800000D01*
X-9472746Y+4830132D01*
X-9457149Y+4853474D01*
X-9457149Y+4976351D01*
X-9536810Y+5056012D01*
X-9759018Y+5056012D01*
X-9782359Y+5040416D01*
X-9812491Y+5034422D01*
X-9842623Y+5040415D01*
X-9868168Y+5057484D01*
X-9885236Y+5083029D01*
X-9891230Y+5113161D01*
X-9885237Y+5143293D01*
X-9868168Y+5168838D01*
X-9842623Y+5185906D01*
X-9812491Y+5191900D01*
X-9782359Y+5185907D01*
X-9759017Y+5170310D01*
X-9489468Y+5170310D01*
X-9363351Y+5044192D01*
X-9357149Y+5053474D01*
X-9357149Y+5506526D01*
X-9372745Y+5529868D01*
X-9378739Y+5560000D01*
X-9372746Y+5590132D01*
X-9355677Y+5615677D01*
X-9330132Y+5632745D01*
X-9300000Y+5638739D01*
X-9269868Y+5632746D01*
G37*
G36*
X-6877549Y+5147549D02*
X-6900000Y+5138250D01*
X-6922451Y+5147549D01*
X-6931750Y+5170000D01*
X-6922451Y+5192451D01*
X-6900000Y+5201750D01*
X-6877549Y+5192451D01*
X-6868250Y+5170000D01*
X-6877549Y+5147549D01*
G37*
G36*
X-6877549Y+5347549D02*
X-6900000Y+5338250D01*
X-6922451Y+5347549D01*
X-6931750Y+5370000D01*
X-6922451Y+5392451D01*
X-6900000Y+5401750D01*
X-6877549Y+5392451D01*
X-6868250Y+5370000D01*
X-6877549Y+5347549D01*
G37*
G36*
X-7077549Y+5147549D02*
X-7100000Y+5138250D01*
X-7122451Y+5147549D01*
X-7131750Y+5170000D01*
X-7122451Y+5192451D01*
X-7100000Y+5201750D01*
X-7077549Y+5192451D01*
X-7068250Y+5170000D01*
X-7077549Y+5147549D01*
G37*
G36*
X-7077549Y+5347549D02*
X-7100000Y+5338250D01*
X-7122451Y+5347549D01*
X-7131750Y+5370000D01*
X-7122451Y+5392451D01*
X-7100000Y+5401750D01*
X-7077549Y+5392451D01*
X-7068250Y+5370000D01*
X-7077549Y+5347549D01*
G37*
G36*
X-9478940Y+2096828D02*
X-9455598Y+2081231D01*
X-9393556Y+2081231D01*
X-9218875Y+1906550D01*
X-9218875Y+1742369D01*
X-8933655Y+1457149D01*
X-8693474Y+1457149D01*
X-8670132Y+1472745D01*
X-8640000Y+1478739D01*
X-8609868Y+1472746D01*
X-8584323Y+1455677D01*
X-8567255Y+1430132D01*
X-8561261Y+1400000D01*
X-8567254Y+1369868D01*
X-8584323Y+1344323D01*
X-8609868Y+1327255D01*
X-8640000Y+1321261D01*
X-8670132Y+1327254D01*
X-8693475Y+1342851D01*
X-8980997Y+1342851D01*
X-9333173Y+1695027D01*
X-9333173Y+1859208D01*
X-9440898Y+1966933D01*
X-9455599Y+1966933D01*
X-9478940Y+1951337D01*
X-9509072Y+1945343D01*
X-9539204Y+1951336D01*
X-9564749Y+1968405D01*
X-9581817Y+1993950D01*
X-9587811Y+2024082D01*
X-9581818Y+2054214D01*
X-9564749Y+2079759D01*
X-9539204Y+2096827D01*
X-9509072Y+2102821D01*
X-9478940Y+2096828D01*
G37*
G36*
X-6369868Y+3332746D02*
X-6344323Y+3315677D01*
X-6327255Y+3290132D01*
X-6321778Y+3262597D01*
X-6266715Y+3207535D01*
X-6266715Y+3041073D01*
X-6661440Y+2646348D01*
X-6365528Y+2646348D01*
X-6176329Y+2457149D01*
X-5553474Y+2457149D01*
X-5530132Y+2472745D01*
X-5502598Y+2478222D01*
X-5470095Y+2510725D01*
X-5470095Y+2616066D01*
X-5485691Y+2639408D01*
X-5491685Y+2669540D01*
X-5485692Y+2699672D01*
X-5468623Y+2725217D01*
X-5443078Y+2742285D01*
X-5412946Y+2748279D01*
X-5382814Y+2742286D01*
X-5357269Y+2725217D01*
X-5340201Y+2699672D01*
X-5334207Y+2669540D01*
X-5340200Y+2639408D01*
X-5355797Y+2616065D01*
X-5355797Y+2463383D01*
X-5421778Y+2397402D01*
X-5427254Y+2369868D01*
X-5444323Y+2344323D01*
X-5469868Y+2327255D01*
X-5500000Y+2321261D01*
X-5530132Y+2327254D01*
X-5553475Y+2342851D01*
X-6223672Y+2342851D01*
X-6257149Y+2376329D01*
X-6412870Y+2532050D01*
X-6936813Y+2532050D01*
X-6960154Y+2516454D01*
X-6990286Y+2510460D01*
X-7020418Y+2516453D01*
X-7045963Y+2533522D01*
X-7063031Y+2559067D01*
X-7069025Y+2589199D01*
X-7063032Y+2619331D01*
X-7047955Y+2641896D01*
X-7069868Y+2627255D01*
X-7100000Y+2621261D01*
X-7130132Y+2627254D01*
X-7155677Y+2644323D01*
X-7172745Y+2669868D01*
X-7178739Y+2700000D01*
X-7172746Y+2730132D01*
X-7155677Y+2755677D01*
X-7130132Y+2772745D01*
X-7100000Y+2778739D01*
X-7069868Y+2772746D01*
X-7046526Y+2757149D01*
X-6712279Y+2757149D01*
X-6381013Y+3088415D01*
X-6381013Y+3160193D01*
X-6402598Y+3181777D01*
X-6430132Y+3187254D01*
X-6455677Y+3204323D01*
X-6472745Y+3229868D01*
X-6478739Y+3260000D01*
X-6472746Y+3290132D01*
X-6455677Y+3315677D01*
X-6430132Y+3332745D01*
X-6400000Y+3338739D01*
X-6369868Y+3332746D01*
G37*
G36*
X-9369868Y+4572746D02*
X-9344323Y+4555677D01*
X-9327255Y+4530132D01*
X-9321261Y+4500000D01*
X-9327254Y+4469868D01*
X-9342851Y+4446525D01*
X-9342851Y+4253473D01*
X-9327255Y+4230132D01*
X-9321261Y+4200000D01*
X-9324806Y+4182178D01*
X-9303935Y+4203049D01*
X-9298458Y+4230584D01*
X-9281389Y+4256129D01*
X-9255844Y+4273197D01*
X-9225712Y+4279191D01*
X-9195580Y+4273198D01*
X-9170035Y+4256129D01*
X-9152967Y+4230584D01*
X-9146973Y+4200452D01*
X-9152966Y+4170320D01*
X-9170035Y+4144775D01*
X-9195580Y+4127707D01*
X-9223115Y+4122229D01*
X-9248348Y+4096996D01*
X-9248348Y+4024418D01*
X-9230132Y+4036590D01*
X-9200000Y+4042584D01*
X-9169868Y+4036591D01*
X-9144323Y+4019522D01*
X-9127255Y+3993977D01*
X-9121261Y+3963845D01*
X-9127254Y+3933713D01*
X-9142851Y+3910370D01*
X-9142851Y+3413671D01*
X-9007403Y+3278222D01*
X-8979868Y+3272746D01*
X-8954323Y+3255677D01*
X-8937255Y+3230132D01*
X-8931261Y+3200000D01*
X-8937254Y+3169868D01*
X-8954323Y+3144323D01*
X-8979868Y+3127255D01*
X-9010000Y+3121261D01*
X-9040132Y+3127254D01*
X-9065677Y+3144323D01*
X-9082745Y+3169868D01*
X-9088223Y+3197401D01*
X-9240647Y+3349825D01*
X-9244323Y+3344323D01*
X-9269868Y+3327255D01*
X-9300000Y+3321261D01*
X-9330132Y+3327254D01*
X-9342851Y+3335752D01*
X-9342851Y+2553473D01*
X-9327255Y+2530132D01*
X-9321261Y+2500000D01*
X-9327254Y+2469868D01*
X-9344323Y+2444323D01*
X-9369868Y+2427255D01*
X-9400000Y+2421261D01*
X-9430132Y+2427254D01*
X-9455677Y+2444323D01*
X-9472745Y+2469868D01*
X-9478739Y+2500000D01*
X-9472746Y+2530132D01*
X-9457149Y+2553474D01*
X-9457149Y+3499387D01*
X-9472745Y+3522729D01*
X-9478739Y+3552861D01*
X-9472746Y+3582993D01*
X-9455677Y+3608538D01*
X-9430132Y+3625606D01*
X-9400000Y+3631600D01*
X-9369868Y+3625607D01*
X-9357149Y+3617108D01*
X-9357149Y+3782876D01*
X-9362646Y+3788373D01*
X-9362646Y+4132080D01*
X-9369868Y+4127255D01*
X-9400000Y+4121261D01*
X-9430132Y+4127254D01*
X-9455677Y+4144323D01*
X-9472745Y+4169868D01*
X-9478739Y+4200000D01*
X-9472746Y+4230132D01*
X-9457149Y+4253474D01*
X-9457149Y+4446526D01*
X-9472745Y+4469868D01*
X-9478739Y+4500000D01*
X-9472746Y+4530132D01*
X-9455677Y+4555677D01*
X-9430132Y+4572745D01*
X-9400000Y+4578739D01*
X-9369868Y+4572746D01*
G37*
G36*
X-5669868Y+4072746D02*
X-5644323Y+4055677D01*
X-5627255Y+4030132D01*
X-5621261Y+4000000D01*
X-5626540Y+3973459D01*
X-5600000Y+3978739D01*
X-5569868Y+3972746D01*
X-5544323Y+3955677D01*
X-5527255Y+3930132D01*
X-5521261Y+3900000D01*
X-5527254Y+3869868D01*
X-5542851Y+3846525D01*
X-5542851Y+3423671D01*
X-5397403Y+3278222D01*
X-5369868Y+3272746D01*
X-5344323Y+3255677D01*
X-5327255Y+3230132D01*
X-5321261Y+3200000D01*
X-5327254Y+3169868D01*
X-5344323Y+3144323D01*
X-5369868Y+3127255D01*
X-5400000Y+3121261D01*
X-5430132Y+3127254D01*
X-5455677Y+3144323D01*
X-5472745Y+3169868D01*
X-5478223Y+3197402D01*
X-5642851Y+3362031D01*
X-5642851Y+3323671D01*
X-5597403Y+3278222D01*
X-5569868Y+3272746D01*
X-5544323Y+3255677D01*
X-5527255Y+3230132D01*
X-5521261Y+3200000D01*
X-5527254Y+3169868D01*
X-5544323Y+3144323D01*
X-5569868Y+3127255D01*
X-5600000Y+3121261D01*
X-5630132Y+3127254D01*
X-5655677Y+3144323D01*
X-5672745Y+3169868D01*
X-5678223Y+3197402D01*
X-5729946Y+3249125D01*
X-5717255Y+3230132D01*
X-5711261Y+3200000D01*
X-5717254Y+3169868D01*
X-5734323Y+3144323D01*
X-5759868Y+3127255D01*
X-5790000Y+3121261D01*
X-5820132Y+3127254D01*
X-5845677Y+3144323D01*
X-5862745Y+3169868D01*
X-5868739Y+3200000D01*
X-5862746Y+3230132D01*
X-5847149Y+3253474D01*
X-5847149Y+3933671D01*
X-5778223Y+4002597D01*
X-5772746Y+4030132D01*
X-5755677Y+4055677D01*
X-5730132Y+4072745D01*
X-5700000Y+4078739D01*
X-5669868Y+4072746D01*
G37*
G36*
X-4372315Y+4422342D02*
X-4346770Y+4405273D01*
X-4329702Y+4379728D01*
X-4323708Y+4349596D01*
X-4329701Y+4319464D01*
X-4346770Y+4293919D01*
X-4372315Y+4276851D01*
X-4392851Y+4272765D01*
X-4392851Y+3975802D01*
X-4372186Y+3971692D01*
X-4346641Y+3954623D01*
X-4329573Y+3929078D01*
X-4323579Y+3898946D01*
X-4329572Y+3868814D01*
X-4346641Y+3843269D01*
X-4372186Y+3826201D01*
X-4402318Y+3820207D01*
X-4432450Y+3826200D01*
X-4457995Y+3843269D01*
X-4475063Y+3868814D01*
X-4480541Y+3896348D01*
X-4507149Y+3922957D01*
X-4507149Y+4325714D01*
X-4480670Y+4352193D01*
X-4475193Y+4379728D01*
X-4458124Y+4405273D01*
X-4432579Y+4422341D01*
X-4402447Y+4428335D01*
X-4372315Y+4422342D01*
G37*
G36*
X-4385784Y+5060053D02*
X-4385784Y+5060052D01*
X-4120135Y+4794403D01*
X-4120135Y+3469045D01*
X-4523590Y+3065590D01*
X-4523590Y+2804410D01*
X-4417403Y+2698222D01*
X-4389868Y+2692746D01*
X-4364323Y+2675677D01*
X-4347255Y+2650132D01*
X-4341261Y+2620000D01*
X-4347254Y+2589868D01*
X-4364323Y+2564323D01*
X-4389868Y+2547255D01*
X-4420000Y+2541261D01*
X-4450132Y+2547254D01*
X-4475677Y+2564323D01*
X-4492745Y+2589868D01*
X-4498223Y+2617402D01*
X-4637888Y+2757068D01*
X-4637888Y+3112932D01*
X-4234433Y+3516387D01*
X-4234433Y+4747061D01*
X-4466604Y+4979232D01*
X-4762192Y+4979232D01*
X-5181813Y+4559611D01*
X-5181858Y+4559611D01*
X-5234947Y+4506522D01*
X-5240423Y+4478988D01*
X-5257492Y+4453443D01*
X-5283037Y+4436375D01*
X-5313169Y+4430381D01*
X-5343301Y+4436374D01*
X-5368846Y+4453443D01*
X-5385914Y+4478988D01*
X-5391908Y+4509120D01*
X-5385915Y+4539252D01*
X-5368846Y+4564797D01*
X-5343301Y+4581865D01*
X-5315767Y+4587342D01*
X-5229200Y+4673909D01*
X-5229155Y+4673909D01*
X-4809534Y+5093530D01*
X-4419261Y+5093530D01*
X-4385784Y+5060053D01*
G37*
G36*
X-6169868Y+3475457D02*
X-6144323Y+3458388D01*
X-6127255Y+3432843D01*
X-6121261Y+3402711D01*
X-6127254Y+3372579D01*
X-6142851Y+3349236D01*
X-6142851Y+2853473D01*
X-6127255Y+2830132D01*
X-6121261Y+2800000D01*
X-6127254Y+2769868D01*
X-6144323Y+2744323D01*
X-6169868Y+2727255D01*
X-6200000Y+2721261D01*
X-6230132Y+2727254D01*
X-6255677Y+2744323D01*
X-6272745Y+2769868D01*
X-6278739Y+2800000D01*
X-6272746Y+2830132D01*
X-6257149Y+2853474D01*
X-6257149Y+3349237D01*
X-6272745Y+3372579D01*
X-6278739Y+3402711D01*
X-6272746Y+3432843D01*
X-6255677Y+3458388D01*
X-6230132Y+3475456D01*
X-6200000Y+3481450D01*
X-6169868Y+3475457D01*
G37*
G36*
X-8469868Y+1912746D02*
X-8444323Y+1895677D01*
X-8427255Y+1870132D01*
X-8421261Y+1840000D01*
X-8427254Y+1809868D01*
X-8444323Y+1784323D01*
X-8469868Y+1767255D01*
X-8500000Y+1761261D01*
X-8530132Y+1767254D01*
X-8553475Y+1782851D01*
X-9026529Y+1782851D01*
X-9049870Y+1767255D01*
X-9080002Y+1761261D01*
X-9110134Y+1767254D01*
X-9135679Y+1784323D01*
X-9152747Y+1809868D01*
X-9158741Y+1840000D01*
X-9152748Y+1870132D01*
X-9135679Y+1895677D01*
X-9110134Y+1912745D01*
X-9080002Y+1918739D01*
X-9049870Y+1912746D01*
X-9026528Y+1897149D01*
X-8553474Y+1897149D01*
X-8530132Y+1912745D01*
X-8500000Y+1918739D01*
X-8469868Y+1912746D01*
G37*
G36*
X-7569868Y+2062746D02*
X-7544323Y+2045677D01*
X-7527255Y+2020132D01*
X-7521261Y+1990000D01*
X-7527254Y+1959868D01*
X-7544323Y+1934323D01*
X-7569868Y+1917255D01*
X-7597403Y+1911777D01*
X-7642851Y+1866329D01*
X-7642851Y+1703473D01*
X-7627255Y+1680132D01*
X-7621261Y+1650000D01*
X-7627254Y+1619868D01*
X-7644323Y+1594323D01*
X-7669868Y+1577255D01*
X-7700000Y+1571261D01*
X-7730132Y+1577254D01*
X-7755677Y+1594323D01*
X-7772745Y+1619868D01*
X-7778739Y+1650000D01*
X-7772746Y+1680132D01*
X-7757149Y+1703474D01*
X-7757149Y+1913671D01*
X-7678223Y+1992597D01*
X-7672746Y+2020132D01*
X-7655677Y+2045677D01*
X-7630132Y+2062745D01*
X-7600000Y+2068739D01*
X-7569868Y+2062746D01*
G37*
G36*
X-6627403Y+1888222D02*
X-6599868Y+1882746D01*
X-6574323Y+1865677D01*
X-6557255Y+1840132D01*
X-6551261Y+1810000D01*
X-6557254Y+1779868D01*
X-6574323Y+1754323D01*
X-6599868Y+1737255D01*
X-6630000Y+1731261D01*
X-6660132Y+1737254D01*
X-6685677Y+1754323D01*
X-6702745Y+1779868D01*
X-6708223Y+1807402D01*
X-6724932Y+1824110D01*
X-6730374Y+1796748D01*
X-6747443Y+1771203D01*
X-6772988Y+1754135D01*
X-6803120Y+1748141D01*
X-6833252Y+1754134D01*
X-6858797Y+1771203D01*
X-6875865Y+1796748D01*
X-6881358Y+1824359D01*
X-6900062Y+1824359D01*
X-6900707Y+1821115D01*
X-6917776Y+1795570D01*
X-6943321Y+1778502D01*
X-6973453Y+1772508D01*
X-7003585Y+1778501D01*
X-7029130Y+1795570D01*
X-7046005Y+1820824D01*
X-7063845Y+1802984D01*
X-7061261Y+1790000D01*
X-7067254Y+1759868D01*
X-7084323Y+1734323D01*
X-7109868Y+1717255D01*
X-7140000Y+1711261D01*
X-7170132Y+1717254D01*
X-7195677Y+1734323D01*
X-7212745Y+1759868D01*
X-7218739Y+1790000D01*
X-7212746Y+1820132D01*
X-7195677Y+1845677D01*
X-7170132Y+1862745D01*
X-7164630Y+1863839D01*
X-7007684Y+2020785D01*
X-6759965Y+2020785D01*
X-6627403Y+1888222D01*
G37*
G36*
X-4439868Y+2282746D02*
X-4414323Y+2265677D01*
X-4397255Y+2240132D01*
X-4391261Y+2210000D01*
X-4397254Y+2179868D01*
X-4414323Y+2154323D01*
X-4439868Y+2137255D01*
X-4467403Y+2131777D01*
X-4756328Y+1842851D01*
X-6246527Y+1842851D01*
X-6269868Y+1827255D01*
X-6300000Y+1821261D01*
X-6330132Y+1827254D01*
X-6355677Y+1844323D01*
X-6372745Y+1869868D01*
X-6378739Y+1900000D01*
X-6372746Y+1930132D01*
X-6355677Y+1955677D01*
X-6330132Y+1972745D01*
X-6300000Y+1978739D01*
X-6269868Y+1972746D01*
X-6246526Y+1957149D01*
X-4803671Y+1957149D01*
X-4548223Y+2212597D01*
X-4542746Y+2240132D01*
X-4525677Y+2265677D01*
X-4500132Y+2282745D01*
X-4470000Y+2288739D01*
X-4439868Y+2282746D01*
G37*
%LPD*%
D11*
X-8300234Y+4272345D02*
X-8190000Y+4382579D01*
X-8190000Y+5450000D01*
X-8128020Y+5511980D01*
X-7940252Y+5511980D01*
X-8300122Y+4144942D02*
X-8120000Y+4325064D01*
X-8120000Y+4400000D01*
X-8120000Y+5300000D01*
X-8035003Y+5384997D01*
X-7939907Y+5384997D01*
X-8800000Y+3300000D02*
X-8800000Y+3800000D01*
X-8398114Y+5257935D02*
X-8498764Y+5157285D01*
X-8498764Y+5075581D01*
X-8400000Y+4976817D01*
X-8400000Y+4800000D01*
X-8470456Y+4729544D01*
X-9134311Y+4729544D01*
X-9213855Y+4650000D01*
X-9650000Y+4650000D01*
X-9700000Y+4600000D01*
X-9300000Y+5000000D02*
X-9300000Y+5560000D01*
X-4800000Y+6300000D02*
X-4800000Y+5580673D01*
X-5437356Y+4943317D01*
X-5757235Y+4623438D01*
X-5899936Y+4623438D01*
X-5799144Y+5893081D02*
X-5900000Y+5893081D01*
X-5799144Y+5893081D02*
X-5799779Y+5893716D01*
X-5899365Y+5893716D01*
X-5900000Y+5893081D01*
X-7600273Y+4368634D02*
X-7460000Y+4508907D01*
X-7460000Y+5166640D01*
X-7460000Y+5380000D02*
X-7460000Y+5473158D01*
X-7365835Y+5567323D01*
X-7176619Y+5567323D01*
X-7000000Y+5743942D01*
X-7000000Y+5850000D01*
X-6690000Y+5380000D02*
X-6800000Y+5490000D01*
X-6800000Y+5850000D01*
X-5000000Y+6300000D02*
X-5000000Y+5550649D01*
X-5047856Y+5502793D01*
X-5673826Y+4876823D01*
X-5900268Y+4876823D01*
X-5200000Y+6300000D02*
X-5201472Y+6298528D01*
X-5201472Y+5998865D01*
X-5307256Y+5893081D01*
X-5799144Y+5893081D01*
X-8640000Y+1400000D02*
X-8957326Y+1400000D01*
X-9276024Y+1718698D01*
X-9276024Y+1882879D01*
X-9417227Y+2024082D01*
X-9509072Y+2024082D01*
X-5700000Y+5200000D02*
X-5700000Y+5793937D01*
X-5799144Y+5893081D01*
X-7640000Y+5380000D02*
X-7640000Y+5500000D01*
X-7512091Y+5627909D01*
X-7198586Y+5627909D01*
X-7100000Y+5726495D01*
X-7100000Y+5850000D01*
X-7280000Y+5380000D02*
X-7280000Y+5470000D01*
X-7240678Y+5509322D01*
X-7134796Y+5509322D01*
X-6900000Y+5744118D01*
X-6900000Y+5850000D01*
X-7599158Y+4496077D02*
X-7550000Y+4545235D01*
X-7550000Y+4967770D01*
X-7640000Y+5057770D01*
X-7640000Y+5166640D01*
X-5412946Y+2669540D02*
X-5412946Y+2487054D01*
X-5500000Y+2400000D01*
X-7100000Y+2700000D02*
X-6688608Y+2700000D01*
X-6323864Y+3064744D01*
X-6323864Y+3183864D01*
X-6400000Y+3260000D01*
X-6990286Y+2589199D02*
X-6389199Y+2589199D01*
X-6200000Y+2400000D01*
X-5500000Y+2400000D01*
X-9300000Y+3400000D02*
X-9300000Y+3806547D01*
X-9305497Y+3812044D01*
X-9305497Y+4120667D01*
X-9225712Y+4200452D01*
X-9147318Y+4400097D02*
X-9200000Y+4452779D01*
X-9200000Y+4570000D01*
X-9098682Y+4671318D01*
X-8433102Y+4671318D01*
X-8250000Y+4854420D01*
X-8250000Y+5520000D01*
X-8130931Y+5639069D01*
X-7940155Y+5639069D01*
X-9400000Y+4200000D02*
X-9400000Y+4500000D01*
X-9400000Y+4800000D02*
X-9400000Y+5000022D01*
X-9513139Y+5113161D01*
X-9812491Y+5113161D01*
X-9360000Y+6100000D02*
X-8800000Y+6100000D01*
X-8700000Y+6200000D01*
X-8373881Y+6200000D01*
X-7939864Y+5765983D01*
X-5100000Y+6200000D02*
X-5100000Y+5533696D01*
X-5629696Y+5004000D01*
X-5900000Y+5004000D01*
X-4900000Y+6200000D02*
X-4900000Y+5563943D01*
X-5713943Y+4750000D01*
X-5900000Y+4750000D01*
X-5900489Y+4495974D02*
X-5799910Y+4495974D01*
X-4700000Y+5595884D01*
X-4700000Y+6200000D01*
X-4610000Y+3800000D02*
X-5010000Y+4200000D01*
X-5800000Y+4200000D01*
X-5962916Y+4037084D01*
X-6265183Y+4037084D01*
X-6327783Y+4099684D01*
X-5400000Y+3200000D02*
X-5600000Y+3400000D01*
X-5600000Y+3900000D01*
X-5790000Y+3200000D02*
X-5790000Y+3910000D01*
X-5700000Y+4000000D01*
X-5600000Y+3200000D02*
X-5700000Y+3300000D01*
X-5700000Y+3800000D01*
X-8800000Y+3300000D02*
X-8500000Y+3600000D01*
X-7700000Y+3600000D01*
X-4402318Y+3898946D02*
X-4450000Y+3946628D01*
X-4450000Y+4302043D01*
X-4402447Y+4349596D01*
X-4664053Y+4543324D02*
X-4888014Y+4319363D01*
X-5901388Y+4319363D01*
X-6390000Y+4807975D01*
X-6390000Y+6081356D01*
X-6486449Y+6177805D01*
X-7528042Y+6177805D01*
X-7939864Y+5765983D01*
X-4610000Y+4261362D02*
X-6098101Y+4261362D01*
X-6206739Y+4370000D01*
X-5241263Y+4798737D02*
X-5241263Y+4967347D01*
X-4610042Y+5598568D01*
X-4602790Y+5598568D01*
X-4601358Y+5600000D01*
X-4440000Y+5600000D01*
X-4420000Y+2620000D02*
X-4580739Y+2780739D01*
X-4580739Y+3089261D01*
X-4177284Y+3492716D01*
X-4177284Y+4770732D01*
X-4442933Y+5036381D01*
X-4785863Y+5036381D01*
X-5205484Y+4616760D01*
X-5205529Y+4616760D01*
X-5313169Y+4509120D01*
X-6200000Y+2800000D02*
X-6200000Y+3402711D01*
X-8500000Y+1840000D02*
X-9080002Y+1840000D01*
X-9400000Y+2500000D02*
X-9400000Y+3552861D01*
X-7700000Y+3500000D02*
X-8390000Y+3500000D01*
X-8590000Y+3300000D01*
X-7700000Y+3400000D02*
X-8280000Y+3400000D01*
X-8380000Y+3300000D01*
X-9010000Y+3200000D02*
X-9200000Y+3390000D01*
X-9200000Y+3963845D01*
X-8170000Y+3200000D02*
X-8070000Y+3300000D01*
X-7800000Y+3300000D01*
X-7700000Y+3200000D01*
X-7600000Y+1990000D02*
X-7700000Y+1890000D01*
X-7700000Y+1650000D01*
X-4300000Y+5500000D02*
X-4622262Y+5500000D01*
X-5030000Y+5092262D01*
X-5030000Y+5000000D01*
X-7344572Y+4420036D02*
X-7362043Y+4437507D01*
X-7362043Y+4972582D01*
X-7280000Y+5054625D01*
X-7280000Y+5166640D01*
X-6690000Y+4620000D02*
X-6690000Y+5166640D01*
D12*
X-6803120Y+1826880D02*
X-6809815Y+1826880D01*
X-6858093Y+1875158D01*
X-6949542Y+1875158D01*
X-6973453Y+1851247D01*
D11*
X-6300000Y+1900000D02*
X-4780000Y+1900000D01*
X-4470000Y+2210000D01*
X-7140000Y+1790000D02*
X-7140000Y+1807649D01*
X-6984013Y+1963636D01*
X-6783636Y+1963636D01*
X-6630000Y+1810000D01*
X-6191462Y+6500000D02*
X-6197544Y+6506082D01*
X-6197544Y+6502456D01*
X-7900000Y+6500000D02*
X-6200000Y+6500000D01*
X-6191462Y+6500000D01*
X-6206739Y+4370000D02*
X-6300000Y+4463261D01*
X-6300000Y+4600000D01*
X-6300000Y+4902540D02*
X-6300000Y+6300000D01*
X-7900000Y+6200000D02*
X-7680000Y+6420000D01*
X-5700000Y+6420000D01*
D13*
X-7939907Y+5384997D03*
X-7940252Y+5511980D03*
X-8300234Y+4272345D03*
X-8300122Y+4144942D03*
X-8800000Y+3300000D03*
X-8800000Y+3800000D03*
X-8398114Y+5257935D03*
X-9700000Y+4600000D03*
X-5899936Y+4623438D03*
X-9300000Y+5000000D03*
X-4800000Y+6300000D03*
X-5900000Y+5893081D03*
X-6900000Y+5170000D03*
X-6900000Y+5370000D03*
X-7600273Y+4368634D03*
X-7100000Y+5170000D03*
X-7100000Y+5370000D03*
X-5000000Y+6300000D03*
X-5900268Y+4876823D03*
X-9300000Y+5560000D03*
X-5200000Y+6300000D03*
X-8640000Y+1400000D03*
X-9509072Y+2024082D03*
X-7599158Y+4496077D03*
X-5412946Y+2669540D03*
X-7100000Y+2700000D03*
X-6400000Y+3260000D03*
X-6990286Y+2589199D03*
X-5500000Y+2400000D03*
X-9300000Y+3400000D03*
X-9225712Y+4200452D03*
X-9147318Y+4400097D03*
X-7940155Y+5639069D03*
X-9400000Y+4200000D03*
X-9400000Y+4500000D03*
X-9400000Y+4800000D03*
X-9812491Y+5113161D03*
X-9360000Y+6100000D03*
X-5100000Y+6200000D03*
X-4900000Y+6200000D03*
X-5900000Y+4750000D03*
X-5900489Y+4495974D03*
X-4700000Y+6200000D03*
X-4610000Y+3800000D03*
X-6327783Y+4099684D03*
X-5400000Y+3200000D03*
X-5600000Y+3900000D03*
X-5700000Y+5200000D03*
X-5790000Y+3200000D03*
X-5700000Y+4000000D03*
X-5600000Y+3200000D03*
X-5700000Y+3800000D03*
X-5900000Y+5004000D03*
X-7700000Y+3600000D03*
X-4402318Y+3898946D03*
X-4402447Y+4349596D03*
X-4664053Y+4543324D03*
X-7939864Y+5765983D03*
X-4610000Y+4261362D03*
X-5241263Y+4798737D03*
X-4440000Y+5600000D03*
X-4420000Y+2620000D03*
X-5313169Y+4509120D03*
X-6200000Y+2800000D03*
X-6200000Y+3402711D03*
X-8500000Y+1840000D03*
X-9080002Y+1840000D03*
X-9400000Y+2500000D03*
X-9400000Y+3552861D03*
X-7700000Y+3500000D03*
X-8590000Y+3300000D03*
X-7700000Y+3400000D03*
X-8380000Y+3300000D03*
X-7700000Y+3200000D03*
X-9010000Y+3200000D03*
X-9200000Y+3963845D03*
X-8170000Y+3200000D03*
X-7600000Y+1990000D03*
X-7700000Y+1650000D03*
X-4300000Y+5500000D03*
X-5030000Y+5000000D03*
X-7344572Y+4420036D03*
X-6690000Y+4620000D03*
X-6973453Y+1851247D03*
X-6803120Y+1826880D03*
X-6300000Y+1900000D03*
X-4470000Y+2210000D03*
X-6630000Y+1810000D03*
X-7140000Y+1790000D03*
X-7900000Y+6500000D03*
X-6206739Y+4370000D03*
X-6300000Y+4600000D03*
X-6300000Y+4902540D03*
X-6300000Y+6300000D03*
X-6200000Y+6500000D03*
X-7900000Y+6200000D03*
X-5700000Y+6420000D03*
D12*
X-4250992Y+6725976D02*
X-4292176Y+6692177D01*
X-4325975Y+6650993D01*
X-4351090Y+6604006D01*
X-4366556Y+6553022D01*
X-4371779Y+6500000D01*
X-4366557Y+6446979D01*
X-4351091Y+6395995D01*
X-4325976Y+6349008D01*
X-4292177Y+6307824D01*
X-4250993Y+6274025D01*
X-4204006Y+6248910D01*
X-4153022Y+6233444D01*
X-4100000Y+6228221D01*
X-4046979Y+6233443D01*
X-3995995Y+6248909D01*
X-3949008Y+6274024D01*
X-3907824Y+6307823D01*
X-3874025Y+6349007D01*
X-3855880Y+6382954D01*
X-3855880Y+2903220D01*
X-3857255Y+2910132D01*
X-3874323Y+2935677D01*
X-3899868Y+2952746D01*
X-3930000Y+2958739D01*
X-3960132Y+2952745D01*
X-3985677Y+2935677D01*
X-4002746Y+2910132D01*
X-4008739Y+2880000D01*
X-4002745Y+2849868D01*
X-3985677Y+2824323D01*
X-3960132Y+2807254D01*
X-3930000Y+2801261D01*
X-3899868Y+2807255D01*
X-3874323Y+2824323D01*
X-3857254Y+2849868D01*
X-3855880Y+2856776D01*
X-3855880Y+2013220D01*
X-3857255Y+2020132D01*
X-3874323Y+2045677D01*
X-3899868Y+2062746D01*
X-3930000Y+2068739D01*
X-3960132Y+2062745D01*
X-3985677Y+2045677D01*
X-4002746Y+2020132D01*
X-4008739Y+1990000D01*
X-4002745Y+1959868D01*
X-3985677Y+1934323D01*
X-3960132Y+1917254D01*
X-3930000Y+1911261D01*
X-3899868Y+1917255D01*
X-3874323Y+1934323D01*
X-3857254Y+1959868D01*
X-3855880Y+1966776D01*
X-3855880Y+1417047D01*
X-3874024Y+1450992D01*
X-3907823Y+1492176D01*
X-3949007Y+1525975D01*
X-3995994Y+1551090D01*
X-4046978Y+1566556D01*
X-4100000Y+1571779D01*
X-4153021Y+1566557D01*
X-4204005Y+1551091D01*
X-4250992Y+1525976D01*
X-4292176Y+1492177D01*
X-4325975Y+1450993D01*
X-4351090Y+1404006D01*
X-4366556Y+1353022D01*
X-4371779Y+1300000D01*
X-4366557Y+1246979D01*
X-4351091Y+1195995D01*
X-4325976Y+1149008D01*
X-4292177Y+1107824D01*
X-4250993Y+1074025D01*
X-4217046Y+1055880D01*
X-4666780Y+1055880D01*
X-4659868Y+1057255D01*
X-4634323Y+1074323D01*
X-4617254Y+1099868D01*
X-4611261Y+1130000D01*
X-4617255Y+1160132D01*
X-4634323Y+1185677D01*
X-4659868Y+1202746D01*
X-4690000Y+1208739D01*
X-4720132Y+1202745D01*
X-4745677Y+1185677D01*
X-4762746Y+1160132D01*
X-4768739Y+1130000D01*
X-4762745Y+1099868D01*
X-4745677Y+1074323D01*
X-4720132Y+1057254D01*
X-4713224Y+1055880D01*
X-9582953Y+1055880D01*
X-9549008Y+1074024D01*
X-9507824Y+1107823D01*
X-9474025Y+1149007D01*
X-9448910Y+1195994D01*
X-9433444Y+1246978D01*
X-9428221Y+1300000D01*
X-9433443Y+1353021D01*
X-9448909Y+1404005D01*
X-9474024Y+1450992D01*
X-9507823Y+1492176D01*
X-9549007Y+1525975D01*
X-9595994Y+1551090D01*
X-9646978Y+1566556D01*
X-9700000Y+1571779D01*
X-9753021Y+1566557D01*
X-9804005Y+1551091D01*
X-9850992Y+1525976D01*
X-9892176Y+1492177D01*
X-9925975Y+1450993D01*
X-9944120Y+1417046D01*
X-9944120Y+6382953D01*
X-9925976Y+6349008D01*
X-9892177Y+6307824D01*
X-9850993Y+6274025D01*
X-9804006Y+6248910D01*
X-9753022Y+6233444D01*
X-9700000Y+6228221D01*
X-9646979Y+6233443D01*
X-9595995Y+6248909D01*
X-9549008Y+6274024D01*
X-9507824Y+6307823D01*
X-9474025Y+6349007D01*
X-9448910Y+6395994D01*
X-9433444Y+6446978D01*
X-9428221Y+6500000D01*
X-9433443Y+6553021D01*
X-9448909Y+6604005D01*
X-9474024Y+6650992D01*
X-9507823Y+6692176D01*
X-9549007Y+6725975D01*
X-9582954Y+6744120D01*
X-4217047Y+6744120D01*
X-4250992Y+6725976D01*
X-7243901Y+1074901D02*
X-7420099Y+1074901D01*
X-7420099Y+1371099D01*
X-7243901Y+1371099D01*
X-7243901Y+1074901D01*
X-7243901Y+1474891D02*
X-7420099Y+1474891D01*
X-7420099Y+1771089D01*
X-7243901Y+1771089D01*
X-7243901Y+1474891D01*
X-6379901Y+1474889D02*
X-6556099Y+1474889D01*
X-6556099Y+1771087D01*
X-6379901Y+1771087D01*
X-6379901Y+1474889D01*
X-6379901Y+1074901D02*
X-6556099Y+1074901D01*
X-6556099Y+1371099D01*
X-6379901Y+1371099D01*
X-6379901Y+1074901D01*
X-8072746Y+2130132D02*
X-8055677Y+2155677D01*
X-8030132Y+2172745D01*
X-8000000Y+2178739D01*
X-7969868Y+2172746D01*
X-7944323Y+2155677D01*
X-7927255Y+2130132D01*
X-7921261Y+2100000D01*
X-7927254Y+2069868D01*
X-7944323Y+2044323D01*
X-7969868Y+2027255D01*
X-8000000Y+2021261D01*
X-8030132Y+2027254D01*
X-8055677Y+2044323D01*
X-8072745Y+2069868D01*
X-8078739Y+2100000D01*
X-8072746Y+2130132D01*
X-8762866Y+2030876D02*
X-8779935Y+2005331D01*
X-8805480Y+1988263D01*
X-8835612Y+1982269D01*
X-8865744Y+1988262D01*
X-8891289Y+2005331D01*
X-8908357Y+2030876D01*
X-8914351Y+2061008D01*
X-8908358Y+2091140D01*
X-8891289Y+2116685D01*
X-8865744Y+2133753D01*
X-8835612Y+2139747D01*
X-8805480Y+2133754D01*
X-8779935Y+2116685D01*
X-8762867Y+2091140D01*
X-8756873Y+2061008D01*
X-8762866Y+2030876D01*
X-7827254Y+5989868D02*
X-7844323Y+5964323D01*
X-7869868Y+5947255D01*
X-7900000Y+5941261D01*
X-7930132Y+5947254D01*
X-7955677Y+5964323D01*
X-7972745Y+5989868D01*
X-7978739Y+6020000D01*
X-7972746Y+6050132D01*
X-7955677Y+6075677D01*
X-7930132Y+6092745D01*
X-7900000Y+6098739D01*
X-7869868Y+6092746D01*
X-7844323Y+6075677D01*
X-7827255Y+6050132D01*
X-7821261Y+6020000D01*
X-7827254Y+5989868D01*
X-6799907Y+3028541D02*
X-6823392Y+2993393D01*
X-6858540Y+2969908D01*
X-6900000Y+2961661D01*
X-6941459Y+2969907D01*
X-6976607Y+2993392D01*
X-7000092Y+3028540D01*
X-7008339Y+3070000D01*
X-7000093Y+3111459D01*
X-6976608Y+3146607D01*
X-6941460Y+3170092D01*
X-6900000Y+3178339D01*
X-6858541Y+3170093D01*
X-6823393Y+3146608D01*
X-6799908Y+3111460D01*
X-6791661Y+3070000D01*
X-6799907Y+3028541D01*
X-6799907Y+3408541D02*
X-6823392Y+3373393D01*
X-6858540Y+3349908D01*
X-6900000Y+3341661D01*
X-6941459Y+3349907D01*
X-6976607Y+3373392D01*
X-7000092Y+3408540D01*
X-7008339Y+3450000D01*
X-7000093Y+3491459D01*
X-6976608Y+3526607D01*
X-6941460Y+3550092D01*
X-6900000Y+3558339D01*
X-6858541Y+3550093D01*
X-6823393Y+3526608D01*
X-6799908Y+3491460D01*
X-6791661Y+3450000D01*
X-6799907Y+3408541D01*
X-6652746Y+2450132D02*
X-6635677Y+2475677D01*
X-6610132Y+2492745D01*
X-6580000Y+2498739D01*
X-6549868Y+2492746D01*
X-6524323Y+2475677D01*
X-6507255Y+2450132D01*
X-6501261Y+2420000D01*
X-6507254Y+2389868D01*
X-6524323Y+2364323D01*
X-6549868Y+2347255D01*
X-6580000Y+2341261D01*
X-6610132Y+2347254D01*
X-6635677Y+2364323D01*
X-6652745Y+2389868D01*
X-6658739Y+2420000D01*
X-6652746Y+2450132D01*
X-7282746Y+2450132D02*
X-7265677Y+2475677D01*
X-7240132Y+2492745D01*
X-7210000Y+2498739D01*
X-7179868Y+2492746D01*
X-7154323Y+2475677D01*
X-7137255Y+2450132D01*
X-7131261Y+2420000D01*
X-7137254Y+2389868D01*
X-7154323Y+2364323D01*
X-7179868Y+2347255D01*
X-7210000Y+2341261D01*
X-7240132Y+2347254D01*
X-7265677Y+2364323D01*
X-7282745Y+2389868D01*
X-7288739Y+2420000D01*
X-7282746Y+2450132D01*
X-9845936Y+2173190D02*
X-9872908Y+2191212D01*
X-9890930Y+2218184D01*
X-9897259Y+2250000D01*
X-9890930Y+2281816D01*
X-9872908Y+2308788D01*
X-9845936Y+2326810D01*
X-9814120Y+2333139D01*
X-9782304Y+2326810D01*
X-9755332Y+2308788D01*
X-9737310Y+2281816D01*
X-9730981Y+2250000D01*
X-9737310Y+2218184D01*
X-9755332Y+2191212D01*
X-9782304Y+2173190D01*
X-9814120Y+2166861D01*
X-9845936Y+2173190D01*
X-9845936Y+1873190D02*
X-9872908Y+1891212D01*
X-9890930Y+1918184D01*
X-9897259Y+1950000D01*
X-9890930Y+1981816D01*
X-9872908Y+2008788D01*
X-9845936Y+2026810D01*
X-9814120Y+2033139D01*
X-9782304Y+2026810D01*
X-9755332Y+2008788D01*
X-9737310Y+1981816D01*
X-9730981Y+1950000D01*
X-9737310Y+1918184D01*
X-9755332Y+1891212D01*
X-9782304Y+1873190D01*
X-9814120Y+1866861D01*
X-9845936Y+1873190D01*
X-9037254Y+1169868D02*
X-9054323Y+1144323D01*
X-9079868Y+1127255D01*
X-9110000Y+1121261D01*
X-9140132Y+1127254D01*
X-9165677Y+1144323D01*
X-9182745Y+1169868D01*
X-9188739Y+1200000D01*
X-9182746Y+1230132D01*
X-9165677Y+1255677D01*
X-9140132Y+1272745D01*
X-9110000Y+1278739D01*
X-9079868Y+1272746D01*
X-9054323Y+1255677D01*
X-9037255Y+1230132D01*
X-9031261Y+1200000D01*
X-9037254Y+1169868D01*
X-8072746Y+2420132D02*
X-8055677Y+2445677D01*
X-8030132Y+2462745D01*
X-8000000Y+2468739D01*
X-7969868Y+2462746D01*
X-7944323Y+2445677D01*
X-7927255Y+2420132D01*
X-7921261Y+2390000D01*
X-7927254Y+2359868D01*
X-7944323Y+2334323D01*
X-7969868Y+2317255D01*
X-8000000Y+2311261D01*
X-8030132Y+2317254D01*
X-8055677Y+2334323D01*
X-8072745Y+2359868D01*
X-8078739Y+2390000D01*
X-8072746Y+2420132D01*
X-9618174Y+4270928D02*
X-9635243Y+4245383D01*
X-9660788Y+4228315D01*
X-9690920Y+4222321D01*
X-9721052Y+4228314D01*
X-9746597Y+4245383D01*
X-9763665Y+4270928D01*
X-9769659Y+4301060D01*
X-9763666Y+4331192D01*
X-9746597Y+4356737D01*
X-9721052Y+4373805D01*
X-9690920Y+4379799D01*
X-9660788Y+4373806D01*
X-9635243Y+4356737D01*
X-9618175Y+4331192D01*
X-9612181Y+4301060D01*
X-9618174Y+4270928D01*
X-9635506Y+3383182D02*
X-9618437Y+3408727D01*
X-9592892Y+3425795D01*
X-9562760Y+3431789D01*
X-9532628Y+3425796D01*
X-9507083Y+3408727D01*
X-9490015Y+3383182D01*
X-9484021Y+3353050D01*
X-9490014Y+3322918D01*
X-9507083Y+3297373D01*
X-9532628Y+3280305D01*
X-9562760Y+3274311D01*
X-9592892Y+3280304D01*
X-9618437Y+3297373D01*
X-9635505Y+3322918D01*
X-9641499Y+3353050D01*
X-9635506Y+3383182D01*
X-9497254Y+4890928D02*
X-9514323Y+4865383D01*
X-9539868Y+4848315D01*
X-9570000Y+4842321D01*
X-9600132Y+4848314D01*
X-9625677Y+4865383D01*
X-9642745Y+4890928D01*
X-9648739Y+4921060D01*
X-9642746Y+4951192D01*
X-9625677Y+4976737D01*
X-9600132Y+4993805D01*
X-9570000Y+4999799D01*
X-9539868Y+4993806D01*
X-9514323Y+4976737D01*
X-9497255Y+4951192D01*
X-9491261Y+4921060D01*
X-9497254Y+4890928D01*
X-9894586Y+3383182D02*
X-9877517Y+3408727D01*
X-9851972Y+3425795D01*
X-9821840Y+3431789D01*
X-9791708Y+3425796D01*
X-9766163Y+3408727D01*
X-9749095Y+3383182D01*
X-9743101Y+3353050D01*
X-9749094Y+3322918D01*
X-9766163Y+3297373D01*
X-9791708Y+3280305D01*
X-9821840Y+3274311D01*
X-9851972Y+3280304D01*
X-9877517Y+3297373D01*
X-9894585Y+3322918D01*
X-9900579Y+3353050D01*
X-9894586Y+3383182D01*
X-7397254Y+4069868D02*
X-7414323Y+4044323D01*
X-7439868Y+4027255D01*
X-7470000Y+4021261D01*
X-7500132Y+4027254D01*
X-7525677Y+4044323D01*
X-7542745Y+4069868D01*
X-7548739Y+4100000D01*
X-7542746Y+4130132D01*
X-7525677Y+4155677D01*
X-7500132Y+4172745D01*
X-7470000Y+4178739D01*
X-7439868Y+4172746D01*
X-7414323Y+4155677D01*
X-7397255Y+4130132D01*
X-7391261Y+4100000D01*
X-7397254Y+4069868D01*
X-8407254Y+4469868D02*
X-8424323Y+4444323D01*
X-8449868Y+4427255D01*
X-8480000Y+4421261D01*
X-8510132Y+4427254D01*
X-8535677Y+4444323D01*
X-8552745Y+4469868D01*
X-8558739Y+4500000D01*
X-8552746Y+4530132D01*
X-8535677Y+4555677D01*
X-8510132Y+4572745D01*
X-8480000Y+4578739D01*
X-8449868Y+4572746D01*
X-8424323Y+4555677D01*
X-8407255Y+4530132D01*
X-8401261Y+4500000D01*
X-8407254Y+4469868D01*
X-8587254Y+3989868D02*
X-8604323Y+3964323D01*
X-8629868Y+3947255D01*
X-8660000Y+3941261D01*
X-8690132Y+3947254D01*
X-8715677Y+3964323D01*
X-8732745Y+3989868D01*
X-8738739Y+4020000D01*
X-8732746Y+4050132D01*
X-8715677Y+4075677D01*
X-8690132Y+4092745D01*
X-8660000Y+4098739D01*
X-8629868Y+4092746D01*
X-8604323Y+4075677D01*
X-8587255Y+4050132D01*
X-8581261Y+4020000D01*
X-8587254Y+3989868D01*
X-9147254Y+2629868D02*
X-9164323Y+2604323D01*
X-9189868Y+2587255D01*
X-9220000Y+2581261D01*
X-9250132Y+2587254D01*
X-9275677Y+2604323D01*
X-9292745Y+2629868D01*
X-9298739Y+2660000D01*
X-9292746Y+2690132D01*
X-9275677Y+2715677D01*
X-9250132Y+2732745D01*
X-9220000Y+2738739D01*
X-9189868Y+2732746D01*
X-9164323Y+2715677D01*
X-9147255Y+2690132D01*
X-9141261Y+2660000D01*
X-9147254Y+2629868D01*
X-8457254Y+5719868D02*
X-8474323Y+5694323D01*
X-8499868Y+5677255D01*
X-8530000Y+5671261D01*
X-8560132Y+5677254D01*
X-8585677Y+5694323D01*
X-8602745Y+5719868D01*
X-8608739Y+5750000D01*
X-8602746Y+5780132D01*
X-8585677Y+5805677D01*
X-8560132Y+5822745D01*
X-8530000Y+5828739D01*
X-8499868Y+5822746D01*
X-8474323Y+5805677D01*
X-8457255Y+5780132D01*
X-8451261Y+5750000D01*
X-8457254Y+5719868D01*
X-8560132Y+5987254D02*
X-8585677Y+6004323D01*
X-8602745Y+6029868D01*
X-8608739Y+6060000D01*
X-8602746Y+6090132D01*
X-8585677Y+6115677D01*
X-8560132Y+6132745D01*
X-8530000Y+6138739D01*
X-8499868Y+6132746D01*
X-8474323Y+6115677D01*
X-8457255Y+6090132D01*
X-8451261Y+6060000D01*
X-8457254Y+6029868D01*
X-8474323Y+6004323D01*
X-8499868Y+5987255D01*
X-8530000Y+5981261D01*
X-8560132Y+5987254D01*
X-6169868Y+6572746D02*
X-6144323Y+6555677D01*
X-6127255Y+6530132D01*
X-6121261Y+6500000D01*
X-6125806Y+6477149D01*
X-5753474Y+6477149D01*
X-5730132Y+6492745D01*
X-5700000Y+6498739D01*
X-5669868Y+6492746D01*
X-5644323Y+6475677D01*
X-5627255Y+6450132D01*
X-5621261Y+6420000D01*
X-5627254Y+6389868D01*
X-5644323Y+6364323D01*
X-5669868Y+6347255D01*
X-5700000Y+6341261D01*
X-5730132Y+6347254D01*
X-5753475Y+6362851D01*
X-6255060Y+6362851D01*
X-6244323Y+6355677D01*
X-6227255Y+6330132D01*
X-6221261Y+6300000D01*
X-6227254Y+6269868D01*
X-6242852Y+6246525D01*
X-6242852Y+4956014D01*
X-6227255Y+4932672D01*
X-6221261Y+4902540D01*
X-6227254Y+4872408D01*
X-6244323Y+4846863D01*
X-6269868Y+4829795D01*
X-6300000Y+4823801D01*
X-6330132Y+4829794D01*
X-6332745Y+4831539D01*
X-5974771Y+4473564D01*
X-5979228Y+4495974D01*
X-5973235Y+4526106D01*
X-5956166Y+4551651D01*
X-5943835Y+4559890D01*
X-5955613Y+4567761D01*
X-5972681Y+4593306D01*
X-5978675Y+4623438D01*
X-5972682Y+4653570D01*
X-5955613Y+4679115D01*
X-5944265Y+4686697D01*
X-5955677Y+4694323D01*
X-5972745Y+4719868D01*
X-5978739Y+4750000D01*
X-5972746Y+4780132D01*
X-5955677Y+4805677D01*
X-5944236Y+4813321D01*
X-5955945Y+4821146D01*
X-5973013Y+4846691D01*
X-5979007Y+4876823D01*
X-5973014Y+4906955D01*
X-5955945Y+4932500D01*
X-5943971Y+4940500D01*
X-5955677Y+4948323D01*
X-5972745Y+4973868D01*
X-5978739Y+5004000D01*
X-5972746Y+5034132D01*
X-5955677Y+5059677D01*
X-5930132Y+5076745D01*
X-5900000Y+5082739D01*
X-5869868Y+5076746D01*
X-5846526Y+5061149D01*
X-5653367Y+5061149D01*
X-5157149Y+5557367D01*
X-5157149Y+5962368D01*
X-5283585Y+5835932D01*
X-5661175Y+5835932D01*
X-5642852Y+5817609D01*
X-5642852Y+5253474D01*
X-5627255Y+5230132D01*
X-5621261Y+5200000D01*
X-5627254Y+5169868D01*
X-5644323Y+5144323D01*
X-5669868Y+5127255D01*
X-5700000Y+5121261D01*
X-5730132Y+5127254D01*
X-5755677Y+5144323D01*
X-5772745Y+5169868D01*
X-5778739Y+5200000D01*
X-5772746Y+5230132D01*
X-5757149Y+5253474D01*
X-5757149Y+5770265D01*
X-5822816Y+5835932D01*
X-5846527Y+5835932D01*
X-5869868Y+5820336D01*
X-5900000Y+5814342D01*
X-5930132Y+5820335D01*
X-5955677Y+5837404D01*
X-5972745Y+5862949D01*
X-5978739Y+5893081D01*
X-5972746Y+5923213D01*
X-5955677Y+5948758D01*
X-5930132Y+5965826D01*
X-5900000Y+5971820D01*
X-5869868Y+5965827D01*
X-5847477Y+5950865D01*
X-5835537Y+5950865D01*
X-5855677Y+5964323D01*
X-5872745Y+5989868D01*
X-5878739Y+6020000D01*
X-5872746Y+6050132D01*
X-5855677Y+6075677D01*
X-5830132Y+6092745D01*
X-5800000Y+6098739D01*
X-5769868Y+6092746D01*
X-5744323Y+6075677D01*
X-5727255Y+6050132D01*
X-5721261Y+6020000D01*
X-5727254Y+5989868D01*
X-5744323Y+5964323D01*
X-5765416Y+5950230D01*
X-5330927Y+5950230D01*
X-5258621Y+6022536D01*
X-5258621Y+6234769D01*
X-5269868Y+6227255D01*
X-5300000Y+6221261D01*
X-5330132Y+6227254D01*
X-5355677Y+6244323D01*
X-5372745Y+6269868D01*
X-5378739Y+6300000D01*
X-5372746Y+6330132D01*
X-5355677Y+6355677D01*
X-5330132Y+6372745D01*
X-5300000Y+6378739D01*
X-5269868Y+6372746D01*
X-5250000Y+6359470D01*
X-5230132Y+6372745D01*
X-5200000Y+6378739D01*
X-5169868Y+6372746D01*
X-5144323Y+6355677D01*
X-5127255Y+6330132D01*
X-5121261Y+6300000D01*
X-5126540Y+6273459D01*
X-5100000Y+6278739D01*
X-5073460Y+6273460D01*
X-5078739Y+6300000D01*
X-5072746Y+6330132D01*
X-5055677Y+6355677D01*
X-5030132Y+6372745D01*
X-5000000Y+6378739D01*
X-4969868Y+6372746D01*
X-4944323Y+6355677D01*
X-4927255Y+6330132D01*
X-4921261Y+6300000D01*
X-4926540Y+6273459D01*
X-4900000Y+6278739D01*
X-4873460Y+6273460D01*
X-4878739Y+6300000D01*
X-4872746Y+6330132D01*
X-4855677Y+6355677D01*
X-4830132Y+6372745D01*
X-4800000Y+6378739D01*
X-4769868Y+6372746D01*
X-4744323Y+6355677D01*
X-4727255Y+6330132D01*
X-4721261Y+6300000D01*
X-4726540Y+6273459D01*
X-4700000Y+6278739D01*
X-4669868Y+6272746D01*
X-4644323Y+6255677D01*
X-4627255Y+6230132D01*
X-4621261Y+6200000D01*
X-4627254Y+6169868D01*
X-4642851Y+6146525D01*
X-4642851Y+5646579D01*
X-4633713Y+5655717D01*
X-4626461Y+5655717D01*
X-4625029Y+5657149D01*
X-4493474Y+5657149D01*
X-4470132Y+5672745D01*
X-4440000Y+5678739D01*
X-4409868Y+5672746D01*
X-4384323Y+5655677D01*
X-4367255Y+5630132D01*
X-4361261Y+5600000D01*
X-4367254Y+5569868D01*
X-4375753Y+5557149D01*
X-4353474Y+5557149D01*
X-4330132Y+5572745D01*
X-4300000Y+5578739D01*
X-4269868Y+5572746D01*
X-4244323Y+5555677D01*
X-4227255Y+5530132D01*
X-4221261Y+5500000D01*
X-4227254Y+5469868D01*
X-4244323Y+5444323D01*
X-4269868Y+5427255D01*
X-4300000Y+5421261D01*
X-4330132Y+5427254D01*
X-4353475Y+5442851D01*
X-4598591Y+5442851D01*
X-4972851Y+5068591D01*
X-4972851Y+5053473D01*
X-4957255Y+5030132D01*
X-4951261Y+5000000D01*
X-4957254Y+4969868D01*
X-4974323Y+4944323D01*
X-4999868Y+4927255D01*
X-5030000Y+4921261D01*
X-5060132Y+4927254D01*
X-5085677Y+4944323D01*
X-5102745Y+4969868D01*
X-5108739Y+5000000D01*
X-5104010Y+5023780D01*
X-5184114Y+4943676D01*
X-5184114Y+4852210D01*
X-5168518Y+4828869D01*
X-5162524Y+4798737D01*
X-5168517Y+4768605D01*
X-5185586Y+4743060D01*
X-5211131Y+4725992D01*
X-5241263Y+4719998D01*
X-5271395Y+4725991D01*
X-5296940Y+4743060D01*
X-5314008Y+4768605D01*
X-5320002Y+4798737D01*
X-5314009Y+4828869D01*
X-5298412Y+4852211D01*
X-5298412Y+4916652D01*
X-5776239Y+4438825D01*
X-5847016Y+4438825D01*
X-5870357Y+4423229D01*
X-5900489Y+4417235D01*
X-5922898Y+4421691D01*
X-5877718Y+4376512D01*
X-4911685Y+4376512D01*
X-4742276Y+4545921D01*
X-4736799Y+4573456D01*
X-4719730Y+4599001D01*
X-4694185Y+4616069D01*
X-4664053Y+4622063D01*
X-4633921Y+4616070D01*
X-4608376Y+4599001D01*
X-4591308Y+4573456D01*
X-4585314Y+4543324D01*
X-4591307Y+4513192D01*
X-4608376Y+4487647D01*
X-4633921Y+4470579D01*
X-4661456Y+4465101D01*
X-4808047Y+4318510D01*
X-4663475Y+4318510D01*
X-4640132Y+4334107D01*
X-4610000Y+4340101D01*
X-4579868Y+4334108D01*
X-4554323Y+4317039D01*
X-4537255Y+4291494D01*
X-4531261Y+4261362D01*
X-4537254Y+4231230D01*
X-4554323Y+4205685D01*
X-4579868Y+4188617D01*
X-4610000Y+4182623D01*
X-4640132Y+4188616D01*
X-4663475Y+4204213D01*
X-4933393Y+4204213D01*
X-4607403Y+3878222D01*
X-4579868Y+3872746D01*
X-4554323Y+3855677D01*
X-4537255Y+3830132D01*
X-4531261Y+3800000D01*
X-4537254Y+3769868D01*
X-4554323Y+3744323D01*
X-4579868Y+3727255D01*
X-4610000Y+3721261D01*
X-4640132Y+3727254D01*
X-4665677Y+3744323D01*
X-4682745Y+3769868D01*
X-4688223Y+3797402D01*
X-5033671Y+4142851D01*
X-5776329Y+4142851D01*
X-5939245Y+3979935D01*
X-6288854Y+3979935D01*
X-6330381Y+4021461D01*
X-6357915Y+4026938D01*
X-6383460Y+4044007D01*
X-6400528Y+4069552D01*
X-6406522Y+4099684D01*
X-6400529Y+4129816D01*
X-6383460Y+4155361D01*
X-6357915Y+4172429D01*
X-6327783Y+4178423D01*
X-6297651Y+4172430D01*
X-6272106Y+4155361D01*
X-6255038Y+4129816D01*
X-6249561Y+4102281D01*
X-6241512Y+4094233D01*
X-5986587Y+4094233D01*
X-5876607Y+4204213D01*
X-6121773Y+4204214D01*
X-6209337Y+4291777D01*
X-6236871Y+4297254D01*
X-6262416Y+4314323D01*
X-6279484Y+4339868D01*
X-6284962Y+4367402D01*
X-6357148Y+4439589D01*
X-6357148Y+4463261D01*
X-6357149Y+4546525D01*
X-6372745Y+4569868D01*
X-6378739Y+4600000D01*
X-6372746Y+4630132D01*
X-6355677Y+4655677D01*
X-6333404Y+4670558D01*
X-6447148Y+4784303D01*
X-6447148Y+6057684D01*
X-6464401Y+6074937D01*
X-6464401Y+5991901D01*
X-6615599Y+5991901D01*
X-6615599Y+6120656D01*
X-7184401Y+6120656D01*
X-7184401Y+5991901D01*
X-7335599Y+5991901D01*
X-7335599Y+6120656D01*
X-7504371Y+6120656D01*
X-7861642Y+5763385D01*
X-7867118Y+5735851D01*
X-7884187Y+5710306D01*
X-7895977Y+5702429D01*
X-7884478Y+5694746D01*
X-7867410Y+5669201D01*
X-7861416Y+5639069D01*
X-7867409Y+5608937D01*
X-7884478Y+5583392D01*
X-7896302Y+5575492D01*
X-7884575Y+5567657D01*
X-7867507Y+5542112D01*
X-7861513Y+5511980D01*
X-7867506Y+5481848D01*
X-7884575Y+5456303D01*
X-7896098Y+5448603D01*
X-7884230Y+5440674D01*
X-7867162Y+5415129D01*
X-7861168Y+5384997D01*
X-7867161Y+5354865D01*
X-7884230Y+5329320D01*
X-7909775Y+5312252D01*
X-7939907Y+5306258D01*
X-7970039Y+5312251D01*
X-7993382Y+5327848D01*
X-8011332Y+5327848D01*
X-8062851Y+5276329D01*
X-8062851Y+4301393D01*
X-8221900Y+4142344D01*
X-8227376Y+4114810D01*
X-8244445Y+4089265D01*
X-8269990Y+4072197D01*
X-8300122Y+4066203D01*
X-8330254Y+4072196D01*
X-8355799Y+4089265D01*
X-8372867Y+4114810D01*
X-8378861Y+4144942D01*
X-8372868Y+4175074D01*
X-8355799Y+4200619D01*
X-8343846Y+4208605D01*
X-8355911Y+4216668D01*
X-8372979Y+4242213D01*
X-8378973Y+4272345D01*
X-8372980Y+4302477D01*
X-8355911Y+4328022D01*
X-8330366Y+4345090D01*
X-8302832Y+4350567D01*
X-8247148Y+4406251D01*
X-8247148Y+4776452D01*
X-8409431Y+4614169D01*
X-9075011Y+4614169D01*
X-9142852Y+4546328D01*
X-9142852Y+4477947D01*
X-9117186Y+4472843D01*
X-9091641Y+4455774D01*
X-9074573Y+4430229D01*
X-9068579Y+4400097D01*
X-9074572Y+4369965D01*
X-9091641Y+4344420D01*
X-9117186Y+4327352D01*
X-9147318Y+4321358D01*
X-9177450Y+4327351D01*
X-9202995Y+4344420D01*
X-9220063Y+4369965D01*
X-9225541Y+4397499D01*
X-9257148Y+4429107D01*
X-9257148Y+4592851D01*
X-9622683Y+4592851D01*
X-9627254Y+4569868D01*
X-9644323Y+4544323D01*
X-9669868Y+4527255D01*
X-9700000Y+4521261D01*
X-9730132Y+4527254D01*
X-9755677Y+4544323D01*
X-9772745Y+4569868D01*
X-9778739Y+4600000D01*
X-9772746Y+4630132D01*
X-9755677Y+4655677D01*
X-9730132Y+4672745D01*
X-9702598Y+4678222D01*
X-9673671Y+4707149D01*
X-9237526Y+4707149D01*
X-9157982Y+4786693D01*
X-8494127Y+4786693D01*
X-8457149Y+4823671D01*
X-8457149Y+4953146D01*
X-8555913Y+5051910D01*
X-8555913Y+5180956D01*
X-8476337Y+5260532D01*
X-8470860Y+5288067D01*
X-8453791Y+5313612D01*
X-8428246Y+5330680D01*
X-8398114Y+5336674D01*
X-8367982Y+5330681D01*
X-8342437Y+5313612D01*
X-8325369Y+5288067D01*
X-8319375Y+5257935D01*
X-8325368Y+5227803D01*
X-8342437Y+5202258D01*
X-8367982Y+5185190D01*
X-8395517Y+5179712D01*
X-8441615Y+5133614D01*
X-8441615Y+5099252D01*
X-8342851Y+5000489D01*
X-8342851Y+4842389D01*
X-8307149Y+4878091D01*
X-8307149Y+5543671D01*
X-8154602Y+5696218D01*
X-7993629Y+5696218D01*
X-7984043Y+5702622D01*
X-7995541Y+5710306D01*
X-8012609Y+5735851D01*
X-8018087Y+5763385D01*
X-8397553Y+6142851D01*
X-8676329Y+6142851D01*
X-8776329Y+6042851D01*
X-9306527Y+6042851D01*
X-9329868Y+6027255D01*
X-9360000Y+6021261D01*
X-9376729Y+6024588D01*
X-9354323Y+6009617D01*
X-9337255Y+5984072D01*
X-9331261Y+5953940D01*
X-9337254Y+5923808D01*
X-9354323Y+5898263D01*
X-9379868Y+5881195D01*
X-9410000Y+5875201D01*
X-9440132Y+5881194D01*
X-9465677Y+5898263D01*
X-9482745Y+5923808D01*
X-9488739Y+5953940D01*
X-9482746Y+5984072D01*
X-9465677Y+6009617D01*
X-9440132Y+6026685D01*
X-9410000Y+6032679D01*
X-9393272Y+6029351D01*
X-9415677Y+6044323D01*
X-9432745Y+6069868D01*
X-9438739Y+6100000D01*
X-9432746Y+6130132D01*
X-9415677Y+6155677D01*
X-9390132Y+6172745D01*
X-9360000Y+6178739D01*
X-9329868Y+6172746D01*
X-9306526Y+6157149D01*
X-8823671Y+6157149D01*
X-8723671Y+6257149D01*
X-8350210Y+6257149D01*
X-7939864Y+5846803D01*
X-7551713Y+6234954D01*
X-6462778Y+6234954D01*
X-6357149Y+6129325D01*
X-6357149Y+6246526D01*
X-6372745Y+6269868D01*
X-6378739Y+6300000D01*
X-6372746Y+6330132D01*
X-6355677Y+6355677D01*
X-6344940Y+6362851D01*
X-7656329Y+6362851D01*
X-7821778Y+6197402D01*
X-7827254Y+6169868D01*
X-7844323Y+6144323D01*
X-7869868Y+6127255D01*
X-7900000Y+6121261D01*
X-7930132Y+6127254D01*
X-7955677Y+6144323D01*
X-7972745Y+6169868D01*
X-7978739Y+6200000D01*
X-7972746Y+6230132D01*
X-7955677Y+6255677D01*
X-7930132Y+6272745D01*
X-7902598Y+6278222D01*
X-7737969Y+6442851D01*
X-7846527Y+6442851D01*
X-7869868Y+6427255D01*
X-7900000Y+6421261D01*
X-7930132Y+6427254D01*
X-7955677Y+6444323D01*
X-7972745Y+6469868D01*
X-7978739Y+6500000D01*
X-7972746Y+6530132D01*
X-7955677Y+6555677D01*
X-7930132Y+6572745D01*
X-7900000Y+6578739D01*
X-7869868Y+6572746D01*
X-7846526Y+6557149D01*
X-6253474Y+6557149D01*
X-6230132Y+6572745D01*
X-6200000Y+6578739D01*
X-6169868Y+6572746D01*
X-9677254Y+5429868D02*
X-9694323Y+5404323D01*
X-9719868Y+5387255D01*
X-9750000Y+5381261D01*
X-9780132Y+5387254D01*
X-9805677Y+5404323D01*
X-9822745Y+5429868D01*
X-9828739Y+5460000D01*
X-9822746Y+5490132D01*
X-9805677Y+5515677D01*
X-9780132Y+5532745D01*
X-9750000Y+5538739D01*
X-9719868Y+5532746D01*
X-9694323Y+5515677D01*
X-9677255Y+5490132D01*
X-9671261Y+5460000D01*
X-9677254Y+5429868D01*
X-8977254Y+5129868D02*
X-8994323Y+5104323D01*
X-9019868Y+5087255D01*
X-9050000Y+5081261D01*
X-9080132Y+5087254D01*
X-9105677Y+5104323D01*
X-9122745Y+5129868D01*
X-9128739Y+5160000D01*
X-9122746Y+5190132D01*
X-9105677Y+5215677D01*
X-9080132Y+5232745D01*
X-9050000Y+5238739D01*
X-9019868Y+5232746D01*
X-8994323Y+5215677D01*
X-8977255Y+5190132D01*
X-8971261Y+5160000D01*
X-8977254Y+5129868D01*
X-4857254Y+2899868D02*
X-4874323Y+2874323D01*
X-4899868Y+2857255D01*
X-4930000Y+2851261D01*
X-4960132Y+2857254D01*
X-4985677Y+2874323D01*
X-5002745Y+2899868D01*
X-5008739Y+2930000D01*
X-5002746Y+2960132D01*
X-4985677Y+2985677D01*
X-4960132Y+3002745D01*
X-4930000Y+3008739D01*
X-4899868Y+3002746D01*
X-4874323Y+2985677D01*
X-4857255Y+2960132D01*
X-4851261Y+2930000D01*
X-4857254Y+2899868D01*
X-4379868Y+2952746D02*
X-4354323Y+2935677D01*
X-4337255Y+2910132D01*
X-4331261Y+2880000D01*
X-4337254Y+2849868D01*
X-4354323Y+2824323D01*
X-4379868Y+2807255D01*
X-4410000Y+2801261D01*
X-4440132Y+2807254D01*
X-4465677Y+2824323D01*
X-4482745Y+2849868D01*
X-4488739Y+2880000D01*
X-4482746Y+2910132D01*
X-4465677Y+2935677D01*
X-4440132Y+2952745D01*
X-4410000Y+2958739D01*
X-4379868Y+2952746D01*
X-4397254Y+2389868D02*
X-4414323Y+2364323D01*
X-4439868Y+2347255D01*
X-4470000Y+2341261D01*
X-4500132Y+2347254D01*
X-4525677Y+2364323D01*
X-4542745Y+2389868D01*
X-4548739Y+2420000D01*
X-4542746Y+2450132D01*
X-4525677Y+2475677D01*
X-4500132Y+2492745D01*
X-4470000Y+2498739D01*
X-4439868Y+2492746D01*
X-4414323Y+2475677D01*
X-4397255Y+2450132D01*
X-4391261Y+2420000D01*
X-4397254Y+2389868D01*
X-6227254Y+2169868D02*
X-6244323Y+2144323D01*
X-6269868Y+2127255D01*
X-6300000Y+2121261D01*
X-6330132Y+2127254D01*
X-6355677Y+2144323D01*
X-6372745Y+2169868D01*
X-6378739Y+2200000D01*
X-6372746Y+2230132D01*
X-6355677Y+2255677D01*
X-6330132Y+2272745D01*
X-6300000Y+2278739D01*
X-6269868Y+2272746D01*
X-6244323Y+2255677D01*
X-6227255Y+2230132D01*
X-6221261Y+2200000D01*
X-6227254Y+2169868D01*
X-5557254Y+2899868D02*
X-5574323Y+2874323D01*
X-5599868Y+2857255D01*
X-5630000Y+2851261D01*
X-5660132Y+2857254D01*
X-5685677Y+2874323D01*
X-5702745Y+2899868D01*
X-5708739Y+2930000D01*
X-5702746Y+2960132D01*
X-5685677Y+2985677D01*
X-5660132Y+3002745D01*
X-5630000Y+3008739D01*
X-5599868Y+3002746D01*
X-5574323Y+2985677D01*
X-5557255Y+2960132D01*
X-5551261Y+2930000D01*
X-5557254Y+2899868D01*
X-8580132Y+6327254D02*
X-8605677Y+6344323D01*
X-8622745Y+6369868D01*
X-8628739Y+6400000D01*
X-8622746Y+6430132D01*
X-8605677Y+6455677D01*
X-8580132Y+6472745D01*
X-8550000Y+6478739D01*
X-8519868Y+6472746D01*
X-8494323Y+6455677D01*
X-8477255Y+6430132D01*
X-8471261Y+6400000D01*
X-8477254Y+6369868D01*
X-8494323Y+6344323D01*
X-8519868Y+6327255D01*
X-8550000Y+6321261D01*
X-8580132Y+6327254D01*
X-4227254Y+5769868D02*
X-4244323Y+5744323D01*
X-4269868Y+5727255D01*
X-4300000Y+5721261D01*
X-4330132Y+5727254D01*
X-4355677Y+5744323D01*
X-4372745Y+5769868D01*
X-4378739Y+5800000D01*
X-4372746Y+5830132D01*
X-4355677Y+5855677D01*
X-4330132Y+5872745D01*
X-4300000Y+5878739D01*
X-4269868Y+5872746D01*
X-4244323Y+5855677D01*
X-4227255Y+5830132D01*
X-4221261Y+5800000D01*
X-4227254Y+5769868D01*
X-6631901Y+5711901D02*
X-6742851Y+5711901D01*
X-6742851Y+5513671D01*
X-6698079Y+5468899D01*
X-6588401Y+5468899D01*
X-6588401Y+5291101D01*
X-6791599Y+5291101D01*
X-6791599Y+5400779D01*
X-6857149Y+5466329D01*
X-6857149Y+5706149D01*
X-7111125Y+5452173D01*
X-7178401Y+5452173D01*
X-7178401Y+5291101D01*
X-7741599Y+5291101D01*
X-7741599Y+5468899D01*
X-7697149Y+5468899D01*
X-7697149Y+5523671D01*
X-7535762Y+5685058D01*
X-7222257Y+5685058D01*
X-7168099Y+5739216D01*
X-7168099Y+5988099D01*
X-6631901Y+5988099D01*
X-6631901Y+5711901D01*
X-6588401Y+5077741D02*
X-6632851Y+5077741D01*
X-6632851Y+4673473D01*
X-6617255Y+4650132D01*
X-6611261Y+4620000D01*
X-6617254Y+4589868D01*
X-6634323Y+4564323D01*
X-6659868Y+4547255D01*
X-6690000Y+4541261D01*
X-6720132Y+4547254D01*
X-6745677Y+4564323D01*
X-6762745Y+4589868D01*
X-6768739Y+4620000D01*
X-6762746Y+4650132D01*
X-6747149Y+4673474D01*
X-6747149Y+5077741D01*
X-6791599Y+5077741D01*
X-6791599Y+5255539D01*
X-6588401Y+5255539D01*
X-6588401Y+5077741D01*
X-7178401Y+5077741D02*
X-7222851Y+5077741D01*
X-7222851Y+5030954D01*
X-7304894Y+4948911D01*
X-7304894Y+4486403D01*
X-7288895Y+4475713D01*
X-7271827Y+4450168D01*
X-7265833Y+4420036D01*
X-7271826Y+4389904D01*
X-7288895Y+4364359D01*
X-7314440Y+4347291D01*
X-7344572Y+4341297D01*
X-7374704Y+4347290D01*
X-7400249Y+4364359D01*
X-7417317Y+4389904D01*
X-7423311Y+4420036D01*
X-7419192Y+4440745D01*
X-7419192Y+4468895D01*
X-7522051Y+4366036D01*
X-7527527Y+4338502D01*
X-7544596Y+4312957D01*
X-7570141Y+4295889D01*
X-7600273Y+4289895D01*
X-7630405Y+4295888D01*
X-7655950Y+4312957D01*
X-7673018Y+4338502D01*
X-7679012Y+4368634D01*
X-7673019Y+4398766D01*
X-7655950Y+4424311D01*
X-7643353Y+4432727D01*
X-7654835Y+4440400D01*
X-7671903Y+4465945D01*
X-7677897Y+4496077D01*
X-7671904Y+4526209D01*
X-7654835Y+4551754D01*
X-7629290Y+4568822D01*
X-7607149Y+4573226D01*
X-7607149Y+4944099D01*
X-7697149Y+5034099D01*
X-7697149Y+5077741D01*
X-7741599Y+5077741D01*
X-7741599Y+5255539D01*
X-7178401Y+5255539D01*
X-7178401Y+5077741D01*
X-7492746Y+3290132D02*
X-7475677Y+3315677D01*
X-7450132Y+3332745D01*
X-7420000Y+3338739D01*
X-7389868Y+3332746D01*
X-7364323Y+3315677D01*
X-7347255Y+3290132D01*
X-7341261Y+3260000D01*
X-7347254Y+3229868D01*
X-7364323Y+3204323D01*
X-7389868Y+3187255D01*
X-7420000Y+3181261D01*
X-7450132Y+3187254D01*
X-7475677Y+3204323D01*
X-7492745Y+3229868D01*
X-7498739Y+3260000D01*
X-7492746Y+3290132D01*
X-4607254Y+5189868D02*
X-4624323Y+5164323D01*
X-4649868Y+5147255D01*
X-4680000Y+5141261D01*
X-4710132Y+5147254D01*
X-4735677Y+5164323D01*
X-4752745Y+5189868D01*
X-4758739Y+5220000D01*
X-4752746Y+5250132D01*
X-4735677Y+5275677D01*
X-4710132Y+5292745D01*
X-4680000Y+5298739D01*
X-4649868Y+5292746D01*
X-4624323Y+5275677D01*
X-4607255Y+5250132D01*
X-4601261Y+5220000D01*
X-4607254Y+5189868D01*
X-8769868Y+3872746D02*
X-8744323Y+3855677D01*
X-8727255Y+3830132D01*
X-8721261Y+3800000D01*
X-8727254Y+3769868D01*
X-8742851Y+3746525D01*
X-8742851Y+3437969D01*
X-8523671Y+3657149D01*
X-7753474Y+3657149D01*
X-7730132Y+3672745D01*
X-7700000Y+3678739D01*
X-7669868Y+3672746D01*
X-7644323Y+3655677D01*
X-7627255Y+3630132D01*
X-7621261Y+3600000D01*
X-7627254Y+3569868D01*
X-7640530Y+3549999D01*
X-7627255Y+3530132D01*
X-7621261Y+3500000D01*
X-7627254Y+3469868D01*
X-7640530Y+3449999D01*
X-7627255Y+3430132D01*
X-7621261Y+3400000D01*
X-7627254Y+3369868D01*
X-7644323Y+3344323D01*
X-7669868Y+3327255D01*
X-7700000Y+3321261D01*
X-7730132Y+3327254D01*
X-7753475Y+3342851D01*
X-7762031Y+3342851D01*
X-7697403Y+3278222D01*
X-7669868Y+3272746D01*
X-7644323Y+3255677D01*
X-7627255Y+3230132D01*
X-7621261Y+3200000D01*
X-7627254Y+3169868D01*
X-7644323Y+3144323D01*
X-7669868Y+3127255D01*
X-7700000Y+3121261D01*
X-7730132Y+3127254D01*
X-7755677Y+3144323D01*
X-7772745Y+3169868D01*
X-7778223Y+3197402D01*
X-7823672Y+3242852D01*
X-8046328Y+3242852D01*
X-8091778Y+3197402D01*
X-8097254Y+3169868D01*
X-8114323Y+3144323D01*
X-8139868Y+3127255D01*
X-8170000Y+3121261D01*
X-8200132Y+3127254D01*
X-8225677Y+3144323D01*
X-8242745Y+3169868D01*
X-8248739Y+3200000D01*
X-8242746Y+3230132D01*
X-8225677Y+3255677D01*
X-8200132Y+3272745D01*
X-8172598Y+3278222D01*
X-8107969Y+3342851D01*
X-8256329Y+3342851D01*
X-8301778Y+3297402D01*
X-8307254Y+3269868D01*
X-8324323Y+3244323D01*
X-8349868Y+3227255D01*
X-8380000Y+3221261D01*
X-8410132Y+3227254D01*
X-8435677Y+3244323D01*
X-8452745Y+3269868D01*
X-8458739Y+3300000D01*
X-8452746Y+3330132D01*
X-8435677Y+3355677D01*
X-8410132Y+3372745D01*
X-8382598Y+3378222D01*
X-8317969Y+3442851D01*
X-8366329Y+3442851D01*
X-8511778Y+3297402D01*
X-8517254Y+3269868D01*
X-8534323Y+3244323D01*
X-8559868Y+3227255D01*
X-8590000Y+3221261D01*
X-8620132Y+3227254D01*
X-8645677Y+3244323D01*
X-8662745Y+3269868D01*
X-8668739Y+3300000D01*
X-8662746Y+3330132D01*
X-8645677Y+3355677D01*
X-8620132Y+3372745D01*
X-8592598Y+3378222D01*
X-8427969Y+3542851D01*
X-8476329Y+3542851D01*
X-8721778Y+3297402D01*
X-8727254Y+3269868D01*
X-8744323Y+3244323D01*
X-8769868Y+3227255D01*
X-8800000Y+3221261D01*
X-8830132Y+3227254D01*
X-8855677Y+3244323D01*
X-8872745Y+3269868D01*
X-8878739Y+3300000D01*
X-8872746Y+3330132D01*
X-8857149Y+3353474D01*
X-8857149Y+3746526D01*
X-8872745Y+3769868D01*
X-8878739Y+3800000D01*
X-8872746Y+3830132D01*
X-8855677Y+3855677D01*
X-8830132Y+3872745D01*
X-8800000Y+3878739D01*
X-8769868Y+3872746D01*
X-9269868Y+5632746D02*
X-9244323Y+5615677D01*
X-9227255Y+5590132D01*
X-9221261Y+5560000D01*
X-9227254Y+5529868D01*
X-9242851Y+5506525D01*
X-9242851Y+5053473D01*
X-9227255Y+5030132D01*
X-9221261Y+5000000D01*
X-9227254Y+4969868D01*
X-9244323Y+4944323D01*
X-9269868Y+4927255D01*
X-9300000Y+4921261D01*
X-9330132Y+4927254D01*
X-9342851Y+4935752D01*
X-9342851Y+4853473D01*
X-9327255Y+4830132D01*
X-9321261Y+4800000D01*
X-9327254Y+4769868D01*
X-9344323Y+4744323D01*
X-9369868Y+4727255D01*
X-9400000Y+4721261D01*
X-9430132Y+4727254D01*
X-9455677Y+4744323D01*
X-9472745Y+4769868D01*
X-9478739Y+4800000D01*
X-9472746Y+4830132D01*
X-9457149Y+4853474D01*
X-9457149Y+4976351D01*
X-9536810Y+5056012D01*
X-9759018Y+5056012D01*
X-9782359Y+5040416D01*
X-9812491Y+5034422D01*
X-9842623Y+5040415D01*
X-9868168Y+5057484D01*
X-9885236Y+5083029D01*
X-9891230Y+5113161D01*
X-9885237Y+5143293D01*
X-9868168Y+5168838D01*
X-9842623Y+5185906D01*
X-9812491Y+5191900D01*
X-9782359Y+5185907D01*
X-9759017Y+5170310D01*
X-9489468Y+5170310D01*
X-9363351Y+5044192D01*
X-9357149Y+5053474D01*
X-9357149Y+5506526D01*
X-9372745Y+5529868D01*
X-9378739Y+5560000D01*
X-9372746Y+5590132D01*
X-9355677Y+5615677D01*
X-9330132Y+5632745D01*
X-9300000Y+5638739D01*
X-9269868Y+5632746D01*
X-6877549Y+5147549D02*
X-6900000Y+5138250D01*
X-6922451Y+5147549D01*
X-6931750Y+5170000D01*
X-6922451Y+5192451D01*
X-6900000Y+5201750D01*
X-6877549Y+5192451D01*
X-6868250Y+5170000D01*
X-6877549Y+5147549D01*
X-6877549Y+5347549D02*
X-6900000Y+5338250D01*
X-6922451Y+5347549D01*
X-6931750Y+5370000D01*
X-6922451Y+5392451D01*
X-6900000Y+5401750D01*
X-6877549Y+5392451D01*
X-6868250Y+5370000D01*
X-6877549Y+5347549D01*
X-7077549Y+5147549D02*
X-7100000Y+5138250D01*
X-7122451Y+5147549D01*
X-7131750Y+5170000D01*
X-7122451Y+5192451D01*
X-7100000Y+5201750D01*
X-7077549Y+5192451D01*
X-7068250Y+5170000D01*
X-7077549Y+5147549D01*
X-7077549Y+5347549D02*
X-7100000Y+5338250D01*
X-7122451Y+5347549D01*
X-7131750Y+5370000D01*
X-7122451Y+5392451D01*
X-7100000Y+5401750D01*
X-7077549Y+5392451D01*
X-7068250Y+5370000D01*
X-7077549Y+5347549D01*
X-9478940Y+2096828D02*
X-9455598Y+2081231D01*
X-9393556Y+2081231D01*
X-9218875Y+1906550D01*
X-9218875Y+1742369D01*
X-8933655Y+1457149D01*
X-8693474Y+1457149D01*
X-8670132Y+1472745D01*
X-8640000Y+1478739D01*
X-8609868Y+1472746D01*
X-8584323Y+1455677D01*
X-8567255Y+1430132D01*
X-8561261Y+1400000D01*
X-8567254Y+1369868D01*
X-8584323Y+1344323D01*
X-8609868Y+1327255D01*
X-8640000Y+1321261D01*
X-8670132Y+1327254D01*
X-8693475Y+1342851D01*
X-8980997Y+1342851D01*
X-9333173Y+1695027D01*
X-9333173Y+1859208D01*
X-9440898Y+1966933D01*
X-9455599Y+1966933D01*
X-9478940Y+1951337D01*
X-9509072Y+1945343D01*
X-9539204Y+1951336D01*
X-9564749Y+1968405D01*
X-9581817Y+1993950D01*
X-9587811Y+2024082D01*
X-9581818Y+2054214D01*
X-9564749Y+2079759D01*
X-9539204Y+2096827D01*
X-9509072Y+2102821D01*
X-9478940Y+2096828D01*
X-6369868Y+3332746D02*
X-6344323Y+3315677D01*
X-6327255Y+3290132D01*
X-6321778Y+3262597D01*
X-6266715Y+3207535D01*
X-6266715Y+3041073D01*
X-6661440Y+2646348D01*
X-6365528Y+2646348D01*
X-6176329Y+2457149D01*
X-5553474Y+2457149D01*
X-5530132Y+2472745D01*
X-5502598Y+2478222D01*
X-5470095Y+2510725D01*
X-5470095Y+2616066D01*
X-5485691Y+2639408D01*
X-5491685Y+2669540D01*
X-5485692Y+2699672D01*
X-5468623Y+2725217D01*
X-5443078Y+2742285D01*
X-5412946Y+2748279D01*
X-5382814Y+2742286D01*
X-5357269Y+2725217D01*
X-5340201Y+2699672D01*
X-5334207Y+2669540D01*
X-5340200Y+2639408D01*
X-5355797Y+2616065D01*
X-5355797Y+2463383D01*
X-5421778Y+2397402D01*
X-5427254Y+2369868D01*
X-5444323Y+2344323D01*
X-5469868Y+2327255D01*
X-5500000Y+2321261D01*
X-5530132Y+2327254D01*
X-5553475Y+2342851D01*
X-6223672Y+2342851D01*
X-6257149Y+2376329D01*
X-6412870Y+2532050D01*
X-6936813Y+2532050D01*
X-6960154Y+2516454D01*
X-6990286Y+2510460D01*
X-7020418Y+2516453D01*
X-7045963Y+2533522D01*
X-7063031Y+2559067D01*
X-7069025Y+2589199D01*
X-7063032Y+2619331D01*
X-7047955Y+2641896D01*
X-7069868Y+2627255D01*
X-7100000Y+2621261D01*
X-7130132Y+2627254D01*
X-7155677Y+2644323D01*
X-7172745Y+2669868D01*
X-7178739Y+2700000D01*
X-7172746Y+2730132D01*
X-7155677Y+2755677D01*
X-7130132Y+2772745D01*
X-7100000Y+2778739D01*
X-7069868Y+2772746D01*
X-7046526Y+2757149D01*
X-6712279Y+2757149D01*
X-6381013Y+3088415D01*
X-6381013Y+3160193D01*
X-6402598Y+3181777D01*
X-6430132Y+3187254D01*
X-6455677Y+3204323D01*
X-6472745Y+3229868D01*
X-6478739Y+3260000D01*
X-6472746Y+3290132D01*
X-6455677Y+3315677D01*
X-6430132Y+3332745D01*
X-6400000Y+3338739D01*
X-6369868Y+3332746D01*
X-9369868Y+4572746D02*
X-9344323Y+4555677D01*
X-9327255Y+4530132D01*
X-9321261Y+4500000D01*
X-9327254Y+4469868D01*
X-9342851Y+4446525D01*
X-9342851Y+4253473D01*
X-9327255Y+4230132D01*
X-9321261Y+4200000D01*
X-9324806Y+4182178D01*
X-9303935Y+4203049D01*
X-9298458Y+4230584D01*
X-9281389Y+4256129D01*
X-9255844Y+4273197D01*
X-9225712Y+4279191D01*
X-9195580Y+4273198D01*
X-9170035Y+4256129D01*
X-9152967Y+4230584D01*
X-9146973Y+4200452D01*
X-9152966Y+4170320D01*
X-9170035Y+4144775D01*
X-9195580Y+4127707D01*
X-9223115Y+4122229D01*
X-9248348Y+4096996D01*
X-9248348Y+4024418D01*
X-9230132Y+4036590D01*
X-9200000Y+4042584D01*
X-9169868Y+4036591D01*
X-9144323Y+4019522D01*
X-9127255Y+3993977D01*
X-9121261Y+3963845D01*
X-9127254Y+3933713D01*
X-9142851Y+3910370D01*
X-9142851Y+3413671D01*
X-9007403Y+3278222D01*
X-8979868Y+3272746D01*
X-8954323Y+3255677D01*
X-8937255Y+3230132D01*
X-8931261Y+3200000D01*
X-8937254Y+3169868D01*
X-8954323Y+3144323D01*
X-8979868Y+3127255D01*
X-9010000Y+3121261D01*
X-9040132Y+3127254D01*
X-9065677Y+3144323D01*
X-9082745Y+3169868D01*
X-9088223Y+3197401D01*
X-9240647Y+3349825D01*
X-9244323Y+3344323D01*
X-9269868Y+3327255D01*
X-9300000Y+3321261D01*
X-9330132Y+3327254D01*
X-9342851Y+3335752D01*
X-9342851Y+2553473D01*
X-9327255Y+2530132D01*
X-9321261Y+2500000D01*
X-9327254Y+2469868D01*
X-9344323Y+2444323D01*
X-9369868Y+2427255D01*
X-9400000Y+2421261D01*
X-9430132Y+2427254D01*
X-9455677Y+2444323D01*
X-9472745Y+2469868D01*
X-9478739Y+2500000D01*
X-9472746Y+2530132D01*
X-9457149Y+2553474D01*
X-9457149Y+3499387D01*
X-9472745Y+3522729D01*
X-9478739Y+3552861D01*
X-9472746Y+3582993D01*
X-9455677Y+3608538D01*
X-9430132Y+3625606D01*
X-9400000Y+3631600D01*
X-9369868Y+3625607D01*
X-9357149Y+3617108D01*
X-9357149Y+3782876D01*
X-9362646Y+3788373D01*
X-9362646Y+4132080D01*
X-9369868Y+4127255D01*
X-9400000Y+4121261D01*
X-9430132Y+4127254D01*
X-9455677Y+4144323D01*
X-9472745Y+4169868D01*
X-9478739Y+4200000D01*
X-9472746Y+4230132D01*
X-9457149Y+4253474D01*
X-9457149Y+4446526D01*
X-9472745Y+4469868D01*
X-9478739Y+4500000D01*
X-9472746Y+4530132D01*
X-9455677Y+4555677D01*
X-9430132Y+4572745D01*
X-9400000Y+4578739D01*
X-9369868Y+4572746D01*
X-5669868Y+4072746D02*
X-5644323Y+4055677D01*
X-5627255Y+4030132D01*
X-5621261Y+4000000D01*
X-5626540Y+3973459D01*
X-5600000Y+3978739D01*
X-5569868Y+3972746D01*
X-5544323Y+3955677D01*
X-5527255Y+3930132D01*
X-5521261Y+3900000D01*
X-5527254Y+3869868D01*
X-5542851Y+3846525D01*
X-5542851Y+3423671D01*
X-5397403Y+3278222D01*
X-5369868Y+3272746D01*
X-5344323Y+3255677D01*
X-5327255Y+3230132D01*
X-5321261Y+3200000D01*
X-5327254Y+3169868D01*
X-5344323Y+3144323D01*
X-5369868Y+3127255D01*
X-5400000Y+3121261D01*
X-5430132Y+3127254D01*
X-5455677Y+3144323D01*
X-5472745Y+3169868D01*
X-5478223Y+3197402D01*
X-5642851Y+3362031D01*
X-5642851Y+3323671D01*
X-5597403Y+3278222D01*
X-5569868Y+3272746D01*
X-5544323Y+3255677D01*
X-5527255Y+3230132D01*
X-5521261Y+3200000D01*
X-5527254Y+3169868D01*
X-5544323Y+3144323D01*
X-5569868Y+3127255D01*
X-5600000Y+3121261D01*
X-5630132Y+3127254D01*
X-5655677Y+3144323D01*
X-5672745Y+3169868D01*
X-5678223Y+3197402D01*
X-5729946Y+3249125D01*
X-5717255Y+3230132D01*
X-5711261Y+3200000D01*
X-5717254Y+3169868D01*
X-5734323Y+3144323D01*
X-5759868Y+3127255D01*
X-5790000Y+3121261D01*
X-5820132Y+3127254D01*
X-5845677Y+3144323D01*
X-5862745Y+3169868D01*
X-5868739Y+3200000D01*
X-5862746Y+3230132D01*
X-5847149Y+3253474D01*
X-5847149Y+3933671D01*
X-5778223Y+4002597D01*
X-5772746Y+4030132D01*
X-5755677Y+4055677D01*
X-5730132Y+4072745D01*
X-5700000Y+4078739D01*
X-5669868Y+4072746D01*
X-4372315Y+4422342D02*
X-4346770Y+4405273D01*
X-4329702Y+4379728D01*
X-4323708Y+4349596D01*
X-4329701Y+4319464D01*
X-4346770Y+4293919D01*
X-4372315Y+4276851D01*
X-4392851Y+4272765D01*
X-4392851Y+3975802D01*
X-4372186Y+3971692D01*
X-4346641Y+3954623D01*
X-4329573Y+3929078D01*
X-4323579Y+3898946D01*
X-4329572Y+3868814D01*
X-4346641Y+3843269D01*
X-4372186Y+3826201D01*
X-4402318Y+3820207D01*
X-4432450Y+3826200D01*
X-4457995Y+3843269D01*
X-4475063Y+3868814D01*
X-4480541Y+3896348D01*
X-4507149Y+3922957D01*
X-4507149Y+4325714D01*
X-4480670Y+4352193D01*
X-4475193Y+4379728D01*
X-4458124Y+4405273D01*
X-4432579Y+4422341D01*
X-4402447Y+4428335D01*
X-4372315Y+4422342D01*
X-4385784Y+5060053D02*
X-4385784Y+5060052D01*
X-4120135Y+4794403D01*
X-4120135Y+3469045D01*
X-4523590Y+3065590D01*
X-4523590Y+2804410D01*
X-4417403Y+2698222D01*
X-4389868Y+2692746D01*
X-4364323Y+2675677D01*
X-4347255Y+2650132D01*
X-4341261Y+2620000D01*
X-4347254Y+2589868D01*
X-4364323Y+2564323D01*
X-4389868Y+2547255D01*
X-4420000Y+2541261D01*
X-4450132Y+2547254D01*
X-4475677Y+2564323D01*
X-4492745Y+2589868D01*
X-4498223Y+2617402D01*
X-4637888Y+2757068D01*
X-4637888Y+3112932D01*
X-4234433Y+3516387D01*
X-4234433Y+4747061D01*
X-4466604Y+4979232D01*
X-4762192Y+4979232D01*
X-5181813Y+4559611D01*
X-5181858Y+4559611D01*
X-5234947Y+4506522D01*
X-5240423Y+4478988D01*
X-5257492Y+4453443D01*
X-5283037Y+4436375D01*
X-5313169Y+4430381D01*
X-5343301Y+4436374D01*
X-5368846Y+4453443D01*
X-5385914Y+4478988D01*
X-5391908Y+4509120D01*
X-5385915Y+4539252D01*
X-5368846Y+4564797D01*
X-5343301Y+4581865D01*
X-5315767Y+4587342D01*
X-5229200Y+4673909D01*
X-5229155Y+4673909D01*
X-4809534Y+5093530D01*
X-4419261Y+5093530D01*
X-4385784Y+5060053D01*
X-6169868Y+3475457D02*
X-6144323Y+3458388D01*
X-6127255Y+3432843D01*
X-6121261Y+3402711D01*
X-6127254Y+3372579D01*
X-6142851Y+3349236D01*
X-6142851Y+2853473D01*
X-6127255Y+2830132D01*
X-6121261Y+2800000D01*
X-6127254Y+2769868D01*
X-6144323Y+2744323D01*
X-6169868Y+2727255D01*
X-6200000Y+2721261D01*
X-6230132Y+2727254D01*
X-6255677Y+2744323D01*
X-6272745Y+2769868D01*
X-6278739Y+2800000D01*
X-6272746Y+2830132D01*
X-6257149Y+2853474D01*
X-6257149Y+3349237D01*
X-6272745Y+3372579D01*
X-6278739Y+3402711D01*
X-6272746Y+3432843D01*
X-6255677Y+3458388D01*
X-6230132Y+3475456D01*
X-6200000Y+3481450D01*
X-6169868Y+3475457D01*
X-8469868Y+1912746D02*
X-8444323Y+1895677D01*
X-8427255Y+1870132D01*
X-8421261Y+1840000D01*
X-8427254Y+1809868D01*
X-8444323Y+1784323D01*
X-8469868Y+1767255D01*
X-8500000Y+1761261D01*
X-8530132Y+1767254D01*
X-8553475Y+1782851D01*
X-9026529Y+1782851D01*
X-9049870Y+1767255D01*
X-9080002Y+1761261D01*
X-9110134Y+1767254D01*
X-9135679Y+1784323D01*
X-9152747Y+1809868D01*
X-9158741Y+1840000D01*
X-9152748Y+1870132D01*
X-9135679Y+1895677D01*
X-9110134Y+1912745D01*
X-9080002Y+1918739D01*
X-9049870Y+1912746D01*
X-9026528Y+1897149D01*
X-8553474Y+1897149D01*
X-8530132Y+1912745D01*
X-8500000Y+1918739D01*
X-8469868Y+1912746D01*
X-7569868Y+2062746D02*
X-7544323Y+2045677D01*
X-7527255Y+2020132D01*
X-7521261Y+1990000D01*
X-7527254Y+1959868D01*
X-7544323Y+1934323D01*
X-7569868Y+1917255D01*
X-7597403Y+1911777D01*
X-7642851Y+1866329D01*
X-7642851Y+1703473D01*
X-7627255Y+1680132D01*
X-7621261Y+1650000D01*
X-7627254Y+1619868D01*
X-7644323Y+1594323D01*
X-7669868Y+1577255D01*
X-7700000Y+1571261D01*
X-7730132Y+1577254D01*
X-7755677Y+1594323D01*
X-7772745Y+1619868D01*
X-7778739Y+1650000D01*
X-7772746Y+1680132D01*
X-7757149Y+1703474D01*
X-7757149Y+1913671D01*
X-7678223Y+1992597D01*
X-7672746Y+2020132D01*
X-7655677Y+2045677D01*
X-7630132Y+2062745D01*
X-7600000Y+2068739D01*
X-7569868Y+2062746D01*
X-6627403Y+1888222D02*
X-6599868Y+1882746D01*
X-6574323Y+1865677D01*
X-6557255Y+1840132D01*
X-6551261Y+1810000D01*
X-6557254Y+1779868D01*
X-6574323Y+1754323D01*
X-6599868Y+1737255D01*
X-6630000Y+1731261D01*
X-6660132Y+1737254D01*
X-6685677Y+1754323D01*
X-6702745Y+1779868D01*
X-6708223Y+1807402D01*
X-6724932Y+1824110D01*
X-6730374Y+1796748D01*
X-6747443Y+1771203D01*
X-6772988Y+1754135D01*
X-6803120Y+1748141D01*
X-6833252Y+1754134D01*
X-6858797Y+1771203D01*
X-6875865Y+1796748D01*
X-6881358Y+1824359D01*
X-6900062Y+1824359D01*
X-6900707Y+1821115D01*
X-6917776Y+1795570D01*
X-6943321Y+1778502D01*
X-6973453Y+1772508D01*
X-7003585Y+1778501D01*
X-7029130Y+1795570D01*
X-7046005Y+1820824D01*
X-7063845Y+1802984D01*
X-7061261Y+1790000D01*
X-7067254Y+1759868D01*
X-7084323Y+1734323D01*
X-7109868Y+1717255D01*
X-7140000Y+1711261D01*
X-7170132Y+1717254D01*
X-7195677Y+1734323D01*
X-7212745Y+1759868D01*
X-7218739Y+1790000D01*
X-7212746Y+1820132D01*
X-7195677Y+1845677D01*
X-7170132Y+1862745D01*
X-7164630Y+1863839D01*
X-7007684Y+2020785D01*
X-6759965Y+2020785D01*
X-6627403Y+1888222D01*
X-4439868Y+2282746D02*
X-4414323Y+2265677D01*
X-4397255Y+2240132D01*
X-4391261Y+2210000D01*
X-4397254Y+2179868D01*
X-4414323Y+2154323D01*
X-4439868Y+2137255D01*
X-4467403Y+2131777D01*
X-4756328Y+1842851D01*
X-6246527Y+1842851D01*
X-6269868Y+1827255D01*
X-6300000Y+1821261D01*
X-6330132Y+1827254D01*
X-6355677Y+1844323D01*
X-6372745Y+1869868D01*
X-6378739Y+1900000D01*
X-6372746Y+1930132D01*
X-6355677Y+1955677D01*
X-6330132Y+1972745D01*
X-6300000Y+1978739D01*
X-6269868Y+1972746D01*
X-6246526Y+1957149D01*
X-4803671Y+1957149D01*
X-4548223Y+2212597D01*
X-4542746Y+2240132D01*
X-4525677Y+2265677D01*
X-4500132Y+2282745D01*
X-4470000Y+2288739D01*
X-4439868Y+2282746D01*
D10*
X-7332000Y+1087601D02*
X-7332000Y+1223000D01*
X-7256601Y+1223000D02*
X-7332000Y+1223000D01*
X-7332000Y+1358399D02*
X-7332000Y+1223000D01*
X-7407399Y+1223000D02*
X-7332000Y+1223000D01*
X-7332000Y+1487591D02*
X-7332000Y+1622990D01*
X-7256601Y+1622990D02*
X-7332000Y+1622990D01*
X-7332000Y+1758389D02*
X-7332000Y+1622990D01*
X-7407399Y+1622990D02*
X-7332000Y+1622990D01*
X-6468000Y+1487589D02*
X-6468000Y+1622988D01*
X-6392601Y+1622988D02*
X-6468000Y+1622988D01*
X-6468000Y+1758387D02*
X-6468000Y+1622988D01*
X-6543399Y+1622988D02*
X-6468000Y+1622988D01*
X-6468000Y+1087601D02*
X-6468000Y+1223000D01*
X-6392601Y+1223000D02*
X-6468000Y+1223000D01*
X-6468000Y+1358399D02*
X-6468000Y+1223000D01*
X-6543399Y+1223000D02*
X-6468000Y+1223000D01*
X-7933961Y+2100000D02*
X-8000000Y+2100000D01*
X-8066039Y+2100000D02*
X-8000000Y+2100000D01*
X-8000000Y+2166039D02*
X-8000000Y+2100000D01*
X-8000000Y+2033961D02*
X-8000000Y+2100000D01*
X-8901651Y+2061008D02*
X-8835612Y+2061008D01*
X-8769573Y+2061008D02*
X-8835612Y+2061008D01*
X-8835612Y+1994969D02*
X-8835612Y+2061008D01*
X-8835612Y+2127047D02*
X-8835612Y+2061008D01*
X-7966039Y+6020000D02*
X-7900000Y+6020000D01*
X-7833961Y+6020000D02*
X-7900000Y+6020000D01*
X-7900000Y+5953961D02*
X-7900000Y+6020000D01*
X-7900000Y+6086039D02*
X-7900000Y+6020000D01*
X-6513961Y+2420000D02*
X-6580000Y+2420000D01*
X-6646039Y+2420000D02*
X-6580000Y+2420000D01*
X-6580000Y+2486039D02*
X-6580000Y+2420000D01*
X-6580000Y+2353961D02*
X-6580000Y+2420000D01*
X-7143961Y+2420000D02*
X-7210000Y+2420000D01*
X-7276039Y+2420000D02*
X-7210000Y+2420000D01*
X-7210000Y+2486039D02*
X-7210000Y+2420000D01*
X-7210000Y+2353961D02*
X-7210000Y+2420000D01*
X-9440921Y+1300000D02*
X-9700000Y+1300000D01*
X-9700000Y+1559079D02*
X-9700000Y+1300000D01*
X-9440921Y+6500000D02*
X-9700000Y+6500000D01*
X-9700000Y+6240921D02*
X-9700000Y+6500000D01*
X-4359079Y+6500000D02*
X-4100000Y+6500000D01*
X-4100000Y+6240921D02*
X-4100000Y+6500000D01*
X-4359079Y+1300000D02*
X-4100000Y+1300000D01*
X-4100000Y+1559079D02*
X-4100000Y+1300000D01*
X-9176039Y+1200000D02*
X-9110000Y+1200000D01*
X-9043961Y+1200000D02*
X-9110000Y+1200000D01*
X-9110000Y+1133961D02*
X-9110000Y+1200000D01*
X-9110000Y+1266039D02*
X-9110000Y+1200000D01*
X-7933961Y+2390000D02*
X-8000000Y+2390000D01*
X-8066039Y+2390000D02*
X-8000000Y+2390000D01*
X-8000000Y+2456039D02*
X-8000000Y+2390000D01*
X-8000000Y+2323961D02*
X-8000000Y+2390000D01*
X-9756959Y+4301060D02*
X-9690920Y+4301060D01*
X-9624881Y+4301060D02*
X-9690920Y+4301060D01*
X-9690920Y+4235021D02*
X-9690920Y+4301060D01*
X-9690920Y+4367099D02*
X-9690920Y+4301060D01*
X-9496721Y+3353050D02*
X-9562760Y+3353050D01*
X-9628799Y+3353050D02*
X-9562760Y+3353050D01*
X-9562760Y+3419089D02*
X-9562760Y+3353050D01*
X-9562760Y+3287011D02*
X-9562760Y+3353050D01*
X-9636039Y+4921060D02*
X-9570000Y+4921060D01*
X-9503961Y+4921060D02*
X-9570000Y+4921060D01*
X-9570000Y+4855021D02*
X-9570000Y+4921060D01*
X-9570000Y+4987099D02*
X-9570000Y+4921060D01*
X-9755801Y+3353050D02*
X-9821840Y+3353050D01*
X-9887879Y+3353050D02*
X-9821840Y+3353050D01*
X-9821840Y+3419089D02*
X-9821840Y+3353050D01*
X-9821840Y+3287011D02*
X-9821840Y+3353050D01*
X-7536039Y+4100000D02*
X-7470000Y+4100000D01*
X-7403961Y+4100000D02*
X-7470000Y+4100000D01*
X-7470000Y+4033961D02*
X-7470000Y+4100000D01*
X-7470000Y+4166039D02*
X-7470000Y+4100000D01*
X-8546039Y+4500000D02*
X-8480000Y+4500000D01*
X-8413961Y+4500000D02*
X-8480000Y+4500000D01*
X-8480000Y+4433961D02*
X-8480000Y+4500000D01*
X-8480000Y+4566039D02*
X-8480000Y+4500000D01*
X-8726039Y+4020000D02*
X-8660000Y+4020000D01*
X-8593961Y+4020000D02*
X-8660000Y+4020000D01*
X-8660000Y+3953961D02*
X-8660000Y+4020000D01*
X-8660000Y+4086039D02*
X-8660000Y+4020000D01*
X-9286039Y+2660000D02*
X-9220000Y+2660000D01*
X-9153961Y+2660000D02*
X-9220000Y+2660000D01*
X-9220000Y+2593961D02*
X-9220000Y+2660000D01*
X-9220000Y+2726039D02*
X-9220000Y+2660000D01*
X-8596039Y+5750000D02*
X-8530000Y+5750000D01*
X-8463961Y+5750000D02*
X-8530000Y+5750000D01*
X-8530000Y+5683961D02*
X-8530000Y+5750000D01*
X-8530000Y+5816039D02*
X-8530000Y+5750000D01*
X-8530000Y+6126039D02*
X-8530000Y+6060000D01*
X-8530000Y+5993961D02*
X-8530000Y+6060000D01*
X-8596039Y+6060000D02*
X-8530000Y+6060000D01*
X-8463961Y+6060000D02*
X-8530000Y+6060000D01*
X-9476039Y+5953940D02*
X-9410000Y+5953940D01*
X-9343961Y+5953940D02*
X-9410000Y+5953940D01*
X-9410000Y+5887901D02*
X-9410000Y+5953940D01*
X-9410000Y+6019979D02*
X-9410000Y+5953940D01*
X-9816039Y+5460000D02*
X-9750000Y+5460000D01*
X-9683961Y+5460000D02*
X-9750000Y+5460000D01*
X-9750000Y+5393961D02*
X-9750000Y+5460000D01*
X-9750000Y+5526039D02*
X-9750000Y+5460000D01*
X-9116039Y+5160000D02*
X-9050000Y+5160000D01*
X-8983961Y+5160000D02*
X-9050000Y+5160000D01*
X-9050000Y+5093961D02*
X-9050000Y+5160000D01*
X-9050000Y+5226039D02*
X-9050000Y+5160000D01*
X-4996039Y+2930000D02*
X-4930000Y+2930000D01*
X-4863961Y+2930000D02*
X-4930000Y+2930000D01*
X-4930000Y+2863961D02*
X-4930000Y+2930000D01*
X-4930000Y+2996039D02*
X-4930000Y+2930000D01*
X-3996039Y+1990000D02*
X-3930000Y+1990000D01*
X-3863961Y+1990000D02*
X-3930000Y+1990000D01*
X-3930000Y+1923961D02*
X-3930000Y+1990000D01*
X-3930000Y+2056039D02*
X-3930000Y+1990000D01*
X-4410000Y+2813961D02*
X-4410000Y+2880000D01*
X-4410000Y+2946039D02*
X-4410000Y+2880000D01*
X-4343961Y+2880000D02*
X-4410000Y+2880000D01*
X-4476039Y+2880000D02*
X-4410000Y+2880000D01*
X-4536039Y+2420000D02*
X-4470000Y+2420000D01*
X-4403961Y+2420000D02*
X-4470000Y+2420000D01*
X-4470000Y+2353961D02*
X-4470000Y+2420000D01*
X-4470000Y+2486039D02*
X-4470000Y+2420000D01*
X-6366039Y+2200000D02*
X-6300000Y+2200000D01*
X-6233961Y+2200000D02*
X-6300000Y+2200000D01*
X-6300000Y+2133961D02*
X-6300000Y+2200000D01*
X-6300000Y+2266039D02*
X-6300000Y+2200000D01*
X-5696039Y+2930000D02*
X-5630000Y+2930000D01*
X-5563961Y+2930000D02*
X-5630000Y+2930000D01*
X-5630000Y+2863961D02*
X-5630000Y+2930000D01*
X-5630000Y+2996039D02*
X-5630000Y+2930000D01*
X-8550000Y+6466039D02*
X-8550000Y+6400000D01*
X-8550000Y+6333961D02*
X-8550000Y+6400000D01*
X-8616039Y+6400000D02*
X-8550000Y+6400000D01*
X-8483961Y+6400000D02*
X-8550000Y+6400000D01*
X-5366039Y+6300000D02*
X-5300000Y+6300000D01*
X-5300000Y+6233961D02*
X-5300000Y+6300000D01*
X-5300000Y+6366039D02*
X-5300000Y+6300000D01*
X-5866039Y+6020000D02*
X-5800000Y+6020000D01*
X-5733961Y+6020000D02*
X-5800000Y+6020000D01*
X-5800000Y+6086039D02*
X-5800000Y+6020000D01*
X-4756039Y+1130000D02*
X-4690000Y+1130000D01*
X-4623961Y+1130000D02*
X-4690000Y+1130000D01*
X-4690000Y+1063961D02*
X-4690000Y+1130000D01*
X-4690000Y+1196039D02*
X-4690000Y+1130000D01*
X-3930000Y+2813961D02*
X-3930000Y+2880000D01*
X-3930000Y+2946039D02*
X-3930000Y+2880000D01*
X-3863961Y+2880000D02*
X-3930000Y+2880000D01*
X-3996039Y+2880000D02*
X-3930000Y+2880000D01*
X-4366039Y+5800000D02*
X-4300000Y+5800000D01*
X-4233961Y+5800000D02*
X-4300000Y+5800000D01*
X-4300000Y+5733961D02*
X-4300000Y+5800000D01*
X-4300000Y+5866039D02*
X-4300000Y+5800000D01*
X-6700000Y+5724601D02*
X-6700000Y+5850000D01*
X-6644601Y+5850000D02*
X-6700000Y+5850000D01*
X-6700000Y+5975399D02*
X-6700000Y+5850000D01*
X-7353961Y+3260000D02*
X-7420000Y+3260000D01*
X-7486039Y+3260000D02*
X-7420000Y+3260000D01*
X-7420000Y+3326039D02*
X-7420000Y+3260000D01*
X-7420000Y+3193961D02*
X-7420000Y+3260000D01*
X-4746039Y+5220000D02*
X-4680000Y+5220000D01*
X-4613961Y+5220000D02*
X-4680000Y+5220000D01*
X-4680000Y+5153961D02*
X-4680000Y+5220000D01*
X-4680000Y+5286039D02*
X-4680000Y+5220000D01*
D16*
X-7332000Y+1223000D03*
X-7332000Y+1622990D03*
X-6468000Y+1622988D03*
X-6468000Y+1223000D03*
D19*
X-8000000Y+2100000D03*
X-8835612Y+2061008D03*
X-7900000Y+6020000D03*
X-6580000Y+2420000D03*
X-7210000Y+2420000D03*
D72*
X-9814120Y+2250000D03*
X-9814120Y+1950000D03*
D32*
X-9700000Y+1300000D03*
X-9700000Y+6500000D03*
X-4100000Y+6500000D03*
X-4100000Y+1300000D03*
D19*
X-9110000Y+1200000D03*
X-8000000Y+2390000D03*
X-9690920Y+4301060D03*
X-9562760Y+3353050D03*
X-9570000Y+4921060D03*
X-9821840Y+3353050D03*
X-7470000Y+4100000D03*
X-8480000Y+4500000D03*
X-8660000Y+4020000D03*
X-9220000Y+2660000D03*
X-8530000Y+5750000D03*
X-8530000Y+6060000D03*
X-9410000Y+5953940D03*
X-9750000Y+5460000D03*
X-9050000Y+5160000D03*
X-4930000Y+2930000D03*
X-3930000Y+1990000D03*
X-4410000Y+2880000D03*
X-4470000Y+2420000D03*
X-6300000Y+2200000D03*
X-5630000Y+2930000D03*
X-8550000Y+6400000D03*
X-5300000Y+6300000D03*
X-5800000Y+6020000D03*
X-4690000Y+1130000D03*
X-3930000Y+2880000D03*
X-4300000Y+5800000D03*
D44*
X-6690000Y+5380000D03*
X-6690000Y+5166640D03*
X-7280000Y+5380000D03*
X-7280000Y+5166640D03*
X-7460000Y+5380000D03*
X-7460000Y+5166640D03*
X-7640000Y+5380000D03*
X-7640000Y+5166640D03*
D40*
X-6700000Y+5850000D03*
X-6800000Y+5850000D03*
X-6900000Y+5850000D03*
X-7000000Y+5850000D03*
X-7100000Y+5850000D03*
D41*
X-6540000Y+6080000D03*
X-7260000Y+6080000D03*
D19*
X-7420000Y+3260000D03*
X-4680000Y+5220000D03*
D43*
X-10000000Y+1000000D02*
X-3800000Y+1000000D01*
X-3800000Y+6800000D01*
X-10000000Y+6800000D01*
X-10000000Y+1000000D01*
M02*
