G04 PROTEUS GERBER X2 FILE*
%TF.GenerationSoftware,Labcenter,Proteus,8.17-SP5-Build39395*%
%TF.CreationDate,2024-11-13T15:27:42+00:00*%
%TF.FileFunction,Legend,Top*%
%TF.FilePolarity,Positive*%
%TF.Part,Single*%
%TF.SameCoordinates,{0a1d241a-e0a6-4a76-8978-5e44ef8297c2}*%
%FSLAX45Y45*%
%MOMM*%
G01*
%TA.AperFunction,Material*%
%ADD45C,0.150000*%
%ADD46C,0.101600*%
%ADD47C,0.250000*%
%ADD48C,0.200000*%
%ADD49C,0.127000*%
%ADD50C,0.100000*%
%ADD51C,0.152400*%
%ADD52C,0.025400*%
%ADD53C,0.063500*%
%TA.AperFunction,Profile*%
%ADD43C,0.101600*%
%TA.AperFunction,NonMaterial*%
%ADD54C,0.101600*%
%TD.AperFunction*%
D45*
X-7362000Y+1365000D02*
X-7362000Y+1501000D01*
X-6438000Y+1501000D02*
X-6438000Y+1365000D01*
X-6438000Y+1081000D02*
X-6438000Y+998000D01*
X-7362000Y+998000D01*
X-7362000Y+1081000D01*
D46*
X-6300300Y+1328820D02*
X-6287600Y+1328820D01*
X-6274900Y+1342155D01*
X-6274900Y+1395495D01*
X-6287600Y+1408830D01*
X-6351100Y+1408830D01*
X-6325700Y+1462170D02*
X-6351100Y+1488840D01*
X-6274900Y+1488840D01*
X-8068875Y+1500000D02*
X-8308875Y+1500000D01*
X-8068875Y+1640000D02*
X-8308875Y+1640000D01*
X-8258875Y+1500000D02*
X-8258875Y+1640000D01*
X-8268875Y+1500000D02*
X-8268875Y+1640000D01*
X-7998875Y+1460000D02*
X-8038875Y+1460000D01*
X-8018875Y+1440000D02*
X-8018875Y+1480000D01*
X-8295555Y+1683320D02*
X-8295555Y+1759520D01*
X-8242215Y+1759520D01*
X-8215545Y+1734120D01*
X-8215545Y+1708720D01*
X-8242215Y+1683320D01*
X-8295555Y+1683320D01*
X-8162205Y+1734120D02*
X-8135535Y+1759520D01*
X-8135535Y+1683320D01*
D47*
X-8993112Y+2476008D02*
X-8993155Y+2477047D01*
X-8993507Y+2479126D01*
X-8994244Y+2481205D01*
X-8995448Y+2483284D01*
X-8997289Y+2485334D01*
X-8999368Y+2486837D01*
X-9001447Y+2487794D01*
X-9003526Y+2488333D01*
X-9005605Y+2488508D01*
X-9005612Y+2488508D01*
X-9018112Y+2476008D02*
X-9018069Y+2477047D01*
X-9017717Y+2479126D01*
X-9016980Y+2481205D01*
X-9015776Y+2483284D01*
X-9013935Y+2485334D01*
X-9011856Y+2486837D01*
X-9009777Y+2487794D01*
X-9007698Y+2488333D01*
X-9005619Y+2488508D01*
X-9005612Y+2488508D01*
X-9018112Y+2476008D02*
X-9018069Y+2474969D01*
X-9017717Y+2472890D01*
X-9016980Y+2470811D01*
X-9015776Y+2468732D01*
X-9013935Y+2466682D01*
X-9011856Y+2465179D01*
X-9009777Y+2464222D01*
X-9007698Y+2463683D01*
X-9005619Y+2463508D01*
X-9005612Y+2463508D01*
X-8993112Y+2476008D02*
X-8993155Y+2474969D01*
X-8993507Y+2472890D01*
X-8994244Y+2470811D01*
X-8995448Y+2468732D01*
X-8997289Y+2466682D01*
X-8999368Y+2465179D01*
X-9001447Y+2464222D01*
X-9003526Y+2463683D01*
X-9005605Y+2463508D01*
X-9005612Y+2463508D01*
D48*
X-8880612Y+2141008D02*
X-8790612Y+2141008D01*
X-8790612Y+2451008D01*
X-8880612Y+2451008D01*
X-8880612Y+2141008D01*
D46*
X-8942292Y+2072608D02*
X-8942292Y+2009108D01*
X-8928957Y+1996408D01*
X-8875617Y+1996408D01*
X-8862282Y+2009108D01*
X-8862282Y+2072608D01*
X-8822277Y+2059908D02*
X-8808942Y+2072608D01*
X-8768937Y+2072608D01*
X-8755602Y+2059908D01*
X-8755602Y+2047208D01*
X-8768937Y+2034508D01*
X-8808942Y+2034508D01*
X-8822277Y+2021808D01*
X-8822277Y+1996408D01*
X-8755602Y+1996408D01*
D48*
X-7890000Y+6019000D02*
X-7890035Y+6019831D01*
X-7890316Y+6021495D01*
X-7890906Y+6023159D01*
X-7891870Y+6024823D01*
X-7893345Y+6026464D01*
X-7895009Y+6027665D01*
X-7896673Y+6028430D01*
X-7898337Y+6028861D01*
X-7900000Y+6029000D01*
X-7910000Y+6019000D02*
X-7909965Y+6019831D01*
X-7909684Y+6021495D01*
X-7909094Y+6023159D01*
X-7908130Y+6024823D01*
X-7906655Y+6026464D01*
X-7904991Y+6027665D01*
X-7903327Y+6028430D01*
X-7901663Y+6028861D01*
X-7900000Y+6029000D01*
X-7910000Y+6019000D02*
X-7909965Y+6018169D01*
X-7909684Y+6016505D01*
X-7909094Y+6014841D01*
X-7908130Y+6013177D01*
X-7906655Y+6011536D01*
X-7904991Y+6010335D01*
X-7903327Y+6009570D01*
X-7901663Y+6009139D01*
X-7900000Y+6009000D01*
X-7890000Y+6019000D02*
X-7890035Y+6018169D01*
X-7890316Y+6016505D01*
X-7890906Y+6014841D01*
X-7891870Y+6013177D01*
X-7893345Y+6011536D01*
X-7895009Y+6010335D01*
X-7896673Y+6009570D01*
X-7898337Y+6009139D01*
X-7900000Y+6009000D01*
D49*
X-7800000Y+4284000D02*
X-7800000Y+4219000D01*
X-7555000Y+4219000D01*
X-6245000Y+4219000D02*
X-6000000Y+4219000D01*
X-6000000Y+4284000D01*
X-7800000Y+6119000D02*
X-7800000Y+6769000D01*
X-6000000Y+6769000D01*
X-6000000Y+6119000D01*
D46*
X-7807930Y+4181070D02*
X-7807930Y+4117570D01*
X-7794595Y+4104870D01*
X-7741255Y+4104870D01*
X-7727920Y+4117570D01*
X-7727920Y+4181070D01*
X-7674580Y+4155670D02*
X-7647910Y+4181070D01*
X-7647910Y+4104870D01*
X-5162950Y+4428020D02*
X-5081988Y+4428020D01*
X-5079906Y+4417399D01*
X-5074186Y+4408833D01*
X-5065621Y+4403114D01*
X-5055000Y+4401032D01*
X-5028012Y+4428020D02*
X-5030094Y+4417399D01*
X-5035814Y+4408833D01*
X-5044379Y+4403114D01*
X-5055000Y+4401032D01*
X-5028012Y+4428020D02*
X-4947050Y+4428020D01*
X-5086750Y+3472980D02*
X-5023250Y+3472980D01*
X-5162950Y+4395000D02*
X-5162950Y+3506000D01*
X-4947050Y+4395000D02*
X-4947050Y+3506000D01*
X-5162950Y+4395000D02*
X-5162950Y+4428020D01*
X-4947050Y+4428020D02*
X-4947050Y+4395000D01*
X-5023250Y+3472980D02*
X-4947050Y+3472980D01*
X-4947050Y+3506000D01*
X-5162950Y+3506000D02*
X-5162950Y+3472980D01*
X-5086750Y+3472980D01*
X-5117230Y+4378744D02*
X-5117265Y+4379589D01*
X-5117552Y+4381280D01*
X-5118151Y+4382971D01*
X-5119131Y+4384662D01*
X-5120631Y+4386330D01*
X-5122322Y+4387550D01*
X-5124013Y+4388326D01*
X-5125704Y+4388763D01*
X-5127390Y+4388904D01*
X-5137550Y+4378744D02*
X-5137515Y+4379589D01*
X-5137228Y+4381280D01*
X-5136629Y+4382971D01*
X-5135649Y+4384662D01*
X-5134149Y+4386330D01*
X-5132458Y+4387550D01*
X-5130767Y+4388326D01*
X-5129076Y+4388763D01*
X-5127390Y+4388904D01*
X-5137550Y+4378744D02*
X-5137515Y+4377899D01*
X-5137228Y+4376208D01*
X-5136629Y+4374517D01*
X-5135649Y+4372826D01*
X-5134149Y+4371158D01*
X-5132458Y+4369938D01*
X-5130767Y+4369162D01*
X-5129076Y+4368725D01*
X-5127390Y+4368584D01*
X-5117230Y+4378744D02*
X-5117265Y+4377899D01*
X-5117552Y+4376208D01*
X-5118151Y+4374517D01*
X-5119131Y+4372826D01*
X-5120631Y+4371158D01*
X-5122322Y+4369938D01*
X-5124013Y+4369162D01*
X-5125704Y+4368725D01*
X-5127390Y+4368584D01*
X-5151680Y+3427094D02*
X-5151680Y+3363594D01*
X-5138345Y+3350894D01*
X-5085005Y+3350894D01*
X-5071670Y+3363594D01*
X-5071670Y+3427094D01*
X-4964990Y+3376294D02*
X-5045000Y+3376294D01*
X-4991660Y+3427094D01*
X-4991660Y+3350894D01*
X-6863660Y+2074990D02*
X-6863660Y+2227390D01*
X-6716340Y+2077530D02*
X-6716340Y+2227390D01*
X-6744140Y+2371970D02*
X-6820340Y+2371970D01*
X-6820340Y+2438645D01*
X-6807640Y+2451980D01*
X-6794940Y+2451980D01*
X-6782240Y+2438645D01*
X-6782240Y+2371970D01*
X-6782240Y+2438645D02*
X-6769540Y+2451980D01*
X-6744140Y+2451980D01*
X-6794940Y+2505320D02*
X-6820340Y+2531990D01*
X-6744140Y+2531990D01*
X-7073660Y+2074990D02*
X-7073660Y+2227390D01*
X-6926340Y+2077530D02*
X-6926340Y+2227390D01*
X-6964140Y+2371970D02*
X-7040340Y+2371970D01*
X-7040340Y+2438645D01*
X-7027640Y+2451980D01*
X-7014940Y+2451980D01*
X-7002240Y+2438645D01*
X-7002240Y+2371970D01*
X-7002240Y+2438645D02*
X-6989540Y+2451980D01*
X-6964140Y+2451980D01*
X-7027640Y+2491985D02*
X-7040340Y+2505320D01*
X-7040340Y+2545325D01*
X-7027640Y+2558660D01*
X-7014940Y+2558660D01*
X-7002240Y+2545325D01*
X-7002240Y+2505320D01*
X-6989540Y+2491985D01*
X-6964140Y+2491985D01*
X-6964140Y+2558660D01*
X-5103660Y+4991340D02*
X-5103660Y+5143740D01*
X-4956340Y+4993880D02*
X-4956340Y+5143740D01*
X-4994140Y+5288320D02*
X-5070340Y+5288320D01*
X-5070340Y+5354995D01*
X-5057640Y+5368330D01*
X-5044940Y+5368330D01*
X-5032240Y+5354995D01*
X-5032240Y+5288320D01*
X-5032240Y+5354995D02*
X-5019540Y+5368330D01*
X-4994140Y+5368330D01*
X-5070340Y+5408335D02*
X-5070340Y+5475010D01*
X-5057640Y+5475010D01*
X-4994140Y+5408335D01*
X-5313660Y+4991340D02*
X-5313660Y+5143740D01*
X-5166340Y+4993880D02*
X-5166340Y+5143740D01*
X-5204140Y+5288320D02*
X-5280340Y+5288320D01*
X-5280340Y+5354995D01*
X-5267640Y+5368330D01*
X-5254940Y+5368330D01*
X-5242240Y+5354995D01*
X-5242240Y+5288320D01*
X-5242240Y+5354995D02*
X-5229540Y+5368330D01*
X-5204140Y+5368330D01*
X-5242240Y+5421670D02*
X-5254940Y+5408335D01*
X-5267640Y+5408335D01*
X-5280340Y+5421670D01*
X-5280340Y+5461675D01*
X-5267640Y+5475010D01*
X-5254940Y+5475010D01*
X-5242240Y+5461675D01*
X-5242240Y+5421670D01*
X-5229540Y+5408335D01*
X-5216840Y+5408335D01*
X-5204140Y+5421670D01*
X-5204140Y+5461675D01*
X-5216840Y+5475010D01*
X-5229540Y+5475010D01*
X-5242240Y+5461675D01*
X-7280000Y+2880000D02*
X-6530000Y+2880000D01*
X-6530000Y+3630000D01*
X-7280000Y+3630000D01*
X-7280000Y+2880000D01*
X-6900000Y+2930000D02*
X-7010000Y+2880000D01*
X-6900000Y+2930000D02*
X-6790000Y+2880000D01*
X-6950000Y+3630000D02*
X-6850000Y+3630000D01*
X-7045020Y+3678096D02*
X-7031685Y+3665396D01*
X-6978345Y+3665396D01*
X-6965010Y+3678096D01*
X-6965010Y+3690796D01*
X-6978345Y+3703496D01*
X-7031685Y+3703496D01*
X-7045020Y+3716196D01*
X-7045020Y+3728896D01*
X-7031685Y+3741596D01*
X-6978345Y+3741596D01*
X-6965010Y+3728896D01*
X-6938340Y+3741596D02*
X-6938340Y+3665396D01*
X-6898335Y+3703496D01*
X-6858330Y+3665396D01*
X-6858330Y+3741596D01*
X-6818325Y+3728896D02*
X-6804990Y+3741596D01*
X-6764985Y+3741596D01*
X-6751650Y+3728896D01*
X-6751650Y+3716196D01*
X-6764985Y+3703496D01*
X-6804990Y+3703496D01*
X-6818325Y+3690796D01*
X-6818325Y+3665396D01*
X-6751650Y+3665396D01*
D49*
X-6053000Y+1507494D02*
X-6053000Y+1667000D01*
X-6053000Y+2807000D02*
X-6015000Y+2807000D01*
X-4845000Y+2807000D02*
X-4667000Y+2807000D01*
X-4667000Y+1415000D01*
X-5961000Y+1193000D02*
X-4789000Y+1193000D01*
X-6053000Y+2460000D02*
X-6053000Y+2807000D01*
D48*
X-5072000Y+2958000D02*
X-5072036Y+2958873D01*
X-5072332Y+2960620D01*
X-5072951Y+2962367D01*
X-5073964Y+2964114D01*
X-5075512Y+2965837D01*
X-5077259Y+2967098D01*
X-5079006Y+2967902D01*
X-5080753Y+2968354D01*
X-5082500Y+2968500D01*
X-5093000Y+2958000D02*
X-5092964Y+2958873D01*
X-5092668Y+2960620D01*
X-5092049Y+2962367D01*
X-5091036Y+2964114D01*
X-5089488Y+2965837D01*
X-5087741Y+2967098D01*
X-5085994Y+2967902D01*
X-5084247Y+2968354D01*
X-5082500Y+2968500D01*
X-5093000Y+2958000D02*
X-5092964Y+2957127D01*
X-5092668Y+2955380D01*
X-5092049Y+2953633D01*
X-5091036Y+2951886D01*
X-5089488Y+2950163D01*
X-5087741Y+2948902D01*
X-5085994Y+2948098D01*
X-5084247Y+2947646D01*
X-5082500Y+2947500D01*
X-5072000Y+2958000D02*
X-5072036Y+2957127D01*
X-5072332Y+2955380D01*
X-5072951Y+2953633D01*
X-5073964Y+2951886D01*
X-5075512Y+2950163D01*
X-5077259Y+2948902D01*
X-5079006Y+2948098D01*
X-5080753Y+2947646D01*
X-5082500Y+2947500D01*
D46*
X-6135680Y+2949300D02*
X-6135680Y+2936600D01*
X-6122345Y+2923900D01*
X-6069005Y+2923900D01*
X-6055670Y+2936600D01*
X-6055670Y+3000100D01*
X-5948990Y+2949300D02*
X-6029000Y+2949300D01*
X-5975660Y+3000100D01*
X-5975660Y+2923900D01*
X-6653660Y+2074990D02*
X-6653660Y+2227390D01*
X-6506340Y+2077530D02*
X-6506340Y+2227390D01*
X-6534140Y+2371970D02*
X-6610340Y+2371970D01*
X-6610340Y+2438645D01*
X-6597640Y+2451980D01*
X-6584940Y+2451980D01*
X-6572240Y+2438645D01*
X-6572240Y+2371970D01*
X-6572240Y+2438645D02*
X-6559540Y+2451980D01*
X-6534140Y+2451980D01*
X-6597640Y+2491985D02*
X-6610340Y+2505320D01*
X-6610340Y+2545325D01*
X-6597640Y+2558660D01*
X-6584940Y+2558660D01*
X-6572240Y+2545325D01*
X-6559540Y+2558660D01*
X-6546840Y+2558660D01*
X-6534140Y+2545325D01*
X-6534140Y+2505320D01*
X-6546840Y+2491985D01*
X-6572240Y+2518655D02*
X-6572240Y+2545325D01*
X-7283660Y+2074990D02*
X-7283660Y+2227390D01*
X-7136340Y+2077530D02*
X-7136340Y+2227390D01*
X-7164140Y+2371970D02*
X-7240340Y+2371970D01*
X-7240340Y+2438645D01*
X-7227640Y+2451980D01*
X-7214940Y+2451980D01*
X-7202240Y+2438645D01*
X-7202240Y+2371970D01*
X-7202240Y+2438645D02*
X-7189540Y+2451980D01*
X-7164140Y+2451980D01*
X-7189540Y+2558660D02*
X-7189540Y+2478650D01*
X-7240340Y+2531990D01*
X-7164140Y+2531990D01*
D50*
X-9949120Y+1850000D02*
X-9949120Y+1850000D01*
X-9949120Y+2350000D01*
X-9949120Y+2350000D01*
X-9949120Y+1850000D01*
X-9679120Y+2125000D02*
X-9679120Y+2125000D01*
X-9679120Y+2225000D01*
X-9679120Y+2225000D01*
X-9679120Y+2125000D01*
X-9839120Y+2415000D02*
X-9789120Y+2415000D01*
X-9789120Y+2415000D01*
X-9839120Y+2415000D01*
X-9839120Y+2415000D01*
X-9839120Y+1785000D02*
X-9789120Y+1785000D01*
X-9789120Y+1785000D01*
X-9839120Y+1785000D01*
X-9839120Y+1785000D01*
D48*
X-9484120Y+2350000D02*
X-9489120Y+2345000D01*
X-9484120Y+2340000D01*
X-9479120Y+2345000D01*
X-9484120Y+2350000D01*
D46*
X-9460220Y+2009980D02*
X-9447520Y+2023315D01*
X-9447520Y+2076655D01*
X-9460220Y+2089990D01*
X-9472920Y+2089990D01*
X-9485620Y+2076655D01*
X-9485620Y+2023315D01*
X-9498320Y+2009980D01*
X-9511020Y+2009980D01*
X-9523720Y+2023315D01*
X-9523720Y+2076655D01*
X-9511020Y+2089990D01*
X-9523720Y+2116660D02*
X-9447520Y+2116660D01*
X-9485620Y+2156665D01*
X-9447520Y+2196670D01*
X-9523720Y+2196670D01*
X-9498320Y+2250010D02*
X-9523720Y+2276680D01*
X-9447520Y+2276680D01*
X-9951600Y+2703940D02*
X-9651600Y+2703940D01*
X-9951600Y+3123940D02*
X-9651600Y+3123940D01*
X-9951600Y+2703940D02*
X-9951600Y+3123940D01*
X-9651600Y+2703940D02*
X-9651600Y+2803940D01*
X-9651600Y+3123940D02*
X-9651600Y+3023940D01*
X-9931600Y+2653940D02*
X-9931600Y+2613940D01*
X-9951600Y+2633940D02*
X-9911600Y+2633940D01*
X-9896860Y+3185840D02*
X-9896860Y+3262040D01*
X-9830185Y+3262040D01*
X-9816850Y+3249340D01*
X-9816850Y+3236640D01*
X-9830185Y+3223940D01*
X-9816850Y+3211240D01*
X-9816850Y+3198540D01*
X-9830185Y+3185840D01*
X-9896860Y+3185840D01*
X-9896860Y+3223940D02*
X-9830185Y+3223940D01*
X-9763510Y+3236640D02*
X-9736840Y+3262040D01*
X-9736840Y+3185840D01*
X-8987088Y+1510654D02*
X-9012488Y+1537324D01*
X-9012488Y+1563994D01*
X-8987088Y+1590664D01*
X-8961688Y+1590664D01*
X-8936288Y+1563994D01*
X-8936288Y+1537324D01*
X-8961688Y+1510654D01*
X-8987088Y+1510654D01*
X-8961688Y+1563994D02*
X-8936288Y+1590664D01*
X-8987088Y+1644004D02*
X-9012488Y+1670674D01*
X-8936288Y+1670674D01*
X-8068875Y+1130000D02*
X-8308875Y+1130000D01*
X-8068875Y+1270000D02*
X-8308875Y+1270000D01*
X-8258875Y+1130000D02*
X-8258875Y+1270000D01*
X-8268875Y+1130000D02*
X-8268875Y+1270000D01*
X-7998875Y+1090000D02*
X-8038875Y+1090000D01*
X-8018875Y+1070000D02*
X-8018875Y+1110000D01*
X-8295555Y+1323320D02*
X-8295555Y+1399520D01*
X-8242215Y+1399520D01*
X-8215545Y+1374120D01*
X-8215545Y+1348720D01*
X-8242215Y+1323320D01*
X-8295555Y+1323320D01*
X-8175540Y+1386820D02*
X-8162205Y+1399520D01*
X-8122200Y+1399520D01*
X-8108865Y+1386820D01*
X-8108865Y+1374120D01*
X-8122200Y+1361420D01*
X-8162205Y+1361420D01*
X-8175540Y+1348720D01*
X-8175540Y+1323320D01*
X-8108865Y+1323320D01*
X-8660728Y+1126340D02*
X-8813128Y+1126340D01*
X-8663268Y+1273660D02*
X-8813128Y+1273660D01*
X-8874408Y+1299660D02*
X-8874408Y+1375860D01*
X-8807733Y+1375860D01*
X-8794398Y+1363160D01*
X-8794398Y+1350460D01*
X-8807733Y+1337760D01*
X-8874408Y+1337760D01*
X-8807733Y+1337760D02*
X-8794398Y+1325060D01*
X-8794398Y+1299660D01*
X-8767728Y+1299660D02*
X-8767728Y+1375860D01*
X-8701053Y+1375860D01*
X-8687718Y+1363160D01*
X-8687718Y+1350460D01*
X-8701053Y+1337760D01*
X-8767728Y+1337760D01*
X-8634378Y+1350460D02*
X-8607708Y+1375860D01*
X-8607708Y+1299660D01*
X-8362022Y+2174668D02*
X-8209622Y+2174668D01*
X-8359482Y+2027348D02*
X-8209622Y+2027348D01*
X-8305032Y+1927848D02*
X-8318367Y+1915148D01*
X-8358372Y+1915148D01*
X-8385042Y+1940548D01*
X-8385042Y+1965948D01*
X-8358372Y+1991348D01*
X-8318367Y+1991348D01*
X-8305032Y+1978648D01*
X-8251692Y+1965948D02*
X-8225022Y+1991348D01*
X-8225022Y+1915148D01*
X-8362022Y+2464668D02*
X-8209622Y+2464668D01*
X-8359482Y+2317348D02*
X-8209622Y+2317348D01*
X-8305032Y+2227848D02*
X-8318367Y+2215148D01*
X-8358372Y+2215148D01*
X-8385042Y+2240548D01*
X-8385042Y+2265948D01*
X-8358372Y+2291348D01*
X-8318367Y+2291348D01*
X-8305032Y+2278648D01*
X-8265027Y+2278648D02*
X-8251692Y+2291348D01*
X-8211687Y+2291348D01*
X-8198352Y+2278648D01*
X-8198352Y+2265948D01*
X-8211687Y+2253248D01*
X-8251692Y+2253248D01*
X-8265027Y+2240548D01*
X-8265027Y+2215148D01*
X-8198352Y+2215148D01*
D51*
X-9629500Y+4259980D02*
X-9659980Y+4259980D01*
X-9720940Y+4259980D01*
X-9751420Y+4259980D01*
X-9659980Y+4259980D02*
X-9662376Y+4248116D01*
X-9668908Y+4238428D01*
X-9678597Y+4231896D01*
X-9690460Y+4229500D01*
X-9702323Y+4231896D01*
X-9712012Y+4238428D01*
X-9718544Y+4248116D01*
X-9720940Y+4259980D01*
D46*
X-9797140Y+4376960D02*
X-9797140Y+4313460D01*
X-9783805Y+4300760D01*
X-9730465Y+4300760D01*
X-9717130Y+4313460D01*
X-9717130Y+4376960D01*
X-9677125Y+4364260D02*
X-9663790Y+4376960D01*
X-9623785Y+4376960D01*
X-9610450Y+4364260D01*
X-9610450Y+4351560D01*
X-9623785Y+4338860D01*
X-9610450Y+4326160D01*
X-9610450Y+4313460D01*
X-9623785Y+4300760D01*
X-9663790Y+4300760D01*
X-9677125Y+4313460D01*
X-9650455Y+4338860D02*
X-9623785Y+4338860D01*
X-9488180Y+3723385D02*
X-9488180Y+3570985D01*
X-9635500Y+3720845D02*
X-9635500Y+3570985D01*
X-9394200Y+3623055D02*
X-9381500Y+3609720D01*
X-9381500Y+3569715D01*
X-9406900Y+3543045D01*
X-9432300Y+3543045D01*
X-9457700Y+3569715D01*
X-9457700Y+3609720D01*
X-9445000Y+3623055D01*
X-9445000Y+3663060D02*
X-9457700Y+3676395D01*
X-9457700Y+3716400D01*
X-9445000Y+3729735D01*
X-9432300Y+3729735D01*
X-9419600Y+3716400D01*
X-9406900Y+3729735D01*
X-9394200Y+3729735D01*
X-9381500Y+3716400D01*
X-9381500Y+3676395D01*
X-9394200Y+3663060D01*
X-9419600Y+3689730D02*
X-9419600Y+3716400D01*
X-9643660Y+4568860D02*
X-9643660Y+4721260D01*
X-9496340Y+4571400D02*
X-9496340Y+4721260D01*
X-9394140Y+4439160D02*
X-9470340Y+4439160D01*
X-9470340Y+4505835D01*
X-9457640Y+4519170D01*
X-9444940Y+4519170D01*
X-9432240Y+4505835D01*
X-9432240Y+4439160D01*
X-9432240Y+4505835D02*
X-9419540Y+4519170D01*
X-9394140Y+4519170D01*
X-9381440Y+4545840D02*
X-9381440Y+4625850D01*
X-9406840Y+4732530D02*
X-9394140Y+4719195D01*
X-9394140Y+4679190D01*
X-9419540Y+4652520D01*
X-9444940Y+4652520D01*
X-9470340Y+4679190D01*
X-9470340Y+4719195D01*
X-9457640Y+4732530D01*
X-9394140Y+4759200D02*
X-9470340Y+4759200D01*
X-9470340Y+4839210D02*
X-9394140Y+4839210D01*
X-9432240Y+4759200D02*
X-9432240Y+4839210D01*
X-9893660Y+4568860D02*
X-9893660Y+4721260D01*
X-9746340Y+4571400D02*
X-9746340Y+4721260D01*
X-9968140Y+4864420D02*
X-9968140Y+4940620D01*
X-9901465Y+4940620D01*
X-9888130Y+4927920D01*
X-9888130Y+4915220D01*
X-9901465Y+4902520D01*
X-9968140Y+4902520D01*
X-9901465Y+4902520D02*
X-9888130Y+4889820D01*
X-9888130Y+4864420D01*
X-9861460Y+4864420D02*
X-9861460Y+4940620D01*
X-9794785Y+4940620D01*
X-9781450Y+4927920D01*
X-9781450Y+4915220D01*
X-9794785Y+4902520D01*
X-9781450Y+4889820D01*
X-9781450Y+4877120D01*
X-9794785Y+4864420D01*
X-9861460Y+4864420D01*
X-9861460Y+4902520D02*
X-9794785Y+4902520D01*
X-9741445Y+4927920D02*
X-9728110Y+4940620D01*
X-9688105Y+4940620D01*
X-9674770Y+4927920D01*
X-9674770Y+4915220D01*
X-9688105Y+4902520D01*
X-9674770Y+4889820D01*
X-9674770Y+4877120D01*
X-9688105Y+4864420D01*
X-9728110Y+4864420D01*
X-9741445Y+4877120D01*
X-9714775Y+4902520D02*
X-9688105Y+4902520D01*
X-9747260Y+3723385D02*
X-9747260Y+3570985D01*
X-9894580Y+3720845D02*
X-9894580Y+3570985D01*
X-9663280Y+3623055D02*
X-9650580Y+3609720D01*
X-9650580Y+3569715D01*
X-9675980Y+3543045D01*
X-9701380Y+3543045D01*
X-9726780Y+3569715D01*
X-9726780Y+3609720D01*
X-9714080Y+3623055D01*
X-9675980Y+3729735D02*
X-9675980Y+3649725D01*
X-9726780Y+3703065D01*
X-9650580Y+3703065D01*
X-8632400Y+3476980D02*
X-8713362Y+3476980D01*
X-8715444Y+3487601D01*
X-8721164Y+3496167D01*
X-8729729Y+3501886D01*
X-8740350Y+3503968D01*
X-8767338Y+3476980D02*
X-8765256Y+3487601D01*
X-8759536Y+3496167D01*
X-8750971Y+3501886D01*
X-8740350Y+3503968D01*
X-8767338Y+3476980D02*
X-8848300Y+3476980D01*
X-8708600Y+4432020D02*
X-8772100Y+4432020D01*
X-8632400Y+3510000D02*
X-8632400Y+4399000D01*
X-8848300Y+3510000D02*
X-8848300Y+4399000D01*
X-8632400Y+3510000D02*
X-8632400Y+3476980D01*
X-8848300Y+3476980D02*
X-8848300Y+3510000D01*
X-8772100Y+4432020D02*
X-8848300Y+4432020D01*
X-8848300Y+4399000D01*
X-8632400Y+4399000D02*
X-8632400Y+4432020D01*
X-8708600Y+4432020D01*
X-8657800Y+3526256D02*
X-8657835Y+3527101D01*
X-8658122Y+3528792D01*
X-8658721Y+3530483D01*
X-8659701Y+3532174D01*
X-8661201Y+3533842D01*
X-8662892Y+3535062D01*
X-8664583Y+3535838D01*
X-8666274Y+3536275D01*
X-8667960Y+3536416D01*
X-8678120Y+3526256D02*
X-8678085Y+3527101D01*
X-8677798Y+3528792D01*
X-8677199Y+3530483D01*
X-8676219Y+3532174D01*
X-8674719Y+3533842D01*
X-8673028Y+3535062D01*
X-8671337Y+3535838D01*
X-8669646Y+3536275D01*
X-8667960Y+3536416D01*
X-8678120Y+3526256D02*
X-8678085Y+3525411D01*
X-8677798Y+3523720D01*
X-8677199Y+3522029D01*
X-8676219Y+3520338D01*
X-8674719Y+3518670D01*
X-8673028Y+3517450D01*
X-8671337Y+3516674D01*
X-8669646Y+3516237D01*
X-8667960Y+3516096D01*
X-8657800Y+3526256D02*
X-8657835Y+3525411D01*
X-8658122Y+3523720D01*
X-8658721Y+3522029D01*
X-8659701Y+3520338D01*
X-8661201Y+3518670D01*
X-8662892Y+3517450D01*
X-8664583Y+3516674D01*
X-8666274Y+3516237D01*
X-8667960Y+3516096D01*
X-8847030Y+3433300D02*
X-8847030Y+3369800D01*
X-8833695Y+3357100D01*
X-8780355Y+3357100D01*
X-8767020Y+3369800D01*
X-8767020Y+3433300D01*
X-8660340Y+3433300D02*
X-8727015Y+3433300D01*
X-8727015Y+3407900D01*
X-8673675Y+3407900D01*
X-8660340Y+3395200D01*
X-8660340Y+3369800D01*
X-8673675Y+3357100D01*
X-8713680Y+3357100D01*
X-8727015Y+3369800D01*
X-8663660Y+2859480D02*
X-8663660Y+3011880D01*
X-8516340Y+2862020D02*
X-8516340Y+3011880D01*
X-8453660Y+2859480D02*
X-8453660Y+3011880D01*
X-8306340Y+2862020D02*
X-8306340Y+3011880D01*
X-8243660Y+2859480D02*
X-8243660Y+3011880D01*
X-8096340Y+2862020D02*
X-8096340Y+3011880D01*
X-8033660Y+2859480D02*
X-8033660Y+3011880D01*
X-7886340Y+2862020D02*
X-7886340Y+3011880D01*
X-7784140Y+2773120D02*
X-7860340Y+2773120D01*
X-7860340Y+2839795D01*
X-7847640Y+2853130D01*
X-7834940Y+2853130D01*
X-7822240Y+2839795D01*
X-7822240Y+2773120D01*
X-7822240Y+2839795D02*
X-7809540Y+2853130D01*
X-7784140Y+2853130D01*
X-7809540Y+2879800D02*
X-7796840Y+2879800D01*
X-7784140Y+2893135D01*
X-7784140Y+2946475D01*
X-7796840Y+2959810D01*
X-7860340Y+2959810D01*
X-7847640Y+3066490D02*
X-7860340Y+3053155D01*
X-7860340Y+3013150D01*
X-7847640Y+2999815D01*
X-7796840Y+2999815D01*
X-7784140Y+3013150D01*
X-7784140Y+3053155D01*
X-7796840Y+3066490D01*
X-7809540Y+3066490D01*
X-7822240Y+3053155D01*
X-7822240Y+2999815D01*
X-9083660Y+2859480D02*
X-9083660Y+3011880D01*
X-8936340Y+2862020D02*
X-8936340Y+3011880D01*
X-8873660Y+2859480D02*
X-8873660Y+3011880D01*
X-8726340Y+2862020D02*
X-8726340Y+3011880D01*
X-9146340Y+3006800D02*
X-9146340Y+2854400D01*
X-9293660Y+3004260D02*
X-9293660Y+2854400D01*
X-9352360Y+2853130D02*
X-9339660Y+2839795D01*
X-9339660Y+2799790D01*
X-9365060Y+2773120D01*
X-9390460Y+2773120D01*
X-9415860Y+2799790D01*
X-9415860Y+2839795D01*
X-9403160Y+2853130D01*
X-9365060Y+2879800D02*
X-9352360Y+2879800D01*
X-9339660Y+2893135D01*
X-9339660Y+2946475D01*
X-9352360Y+2959810D01*
X-9415860Y+2959810D01*
X-9390460Y+3013150D02*
X-9415860Y+3039820D01*
X-9339660Y+3039820D01*
X-8818860Y+4746340D02*
X-8971260Y+4746340D01*
X-8821400Y+4893660D02*
X-8971260Y+4893660D01*
X-8672540Y+4779660D02*
X-8672540Y+4855860D01*
X-8605865Y+4855860D01*
X-8592530Y+4843160D01*
X-8592530Y+4830460D01*
X-8605865Y+4817760D01*
X-8672540Y+4817760D01*
X-8605865Y+4817760D02*
X-8592530Y+4805060D01*
X-8592530Y+4779660D01*
X-8565860Y+4779660D02*
X-8565860Y+4855860D01*
X-8499185Y+4855860D01*
X-8485850Y+4843160D01*
X-8485850Y+4830460D01*
X-8499185Y+4817760D01*
X-8485850Y+4805060D01*
X-8485850Y+4792360D01*
X-8499185Y+4779660D01*
X-8565860Y+4779660D01*
X-8565860Y+4817760D02*
X-8499185Y+4817760D01*
X-8445845Y+4843160D02*
X-8432510Y+4855860D01*
X-8392505Y+4855860D01*
X-8379170Y+4843160D01*
X-8379170Y+4830460D01*
X-8392505Y+4817760D01*
X-8432510Y+4817760D01*
X-8445845Y+4805060D01*
X-8445845Y+4779660D01*
X-8379170Y+4779660D01*
X-8818860Y+4536340D02*
X-8971260Y+4536340D01*
X-8821400Y+4683660D02*
X-8971260Y+4683660D01*
X-8672540Y+4569660D02*
X-8672540Y+4645860D01*
X-8605865Y+4645860D01*
X-8592530Y+4633160D01*
X-8592530Y+4620460D01*
X-8605865Y+4607760D01*
X-8672540Y+4607760D01*
X-8605865Y+4607760D02*
X-8592530Y+4595060D01*
X-8592530Y+4569660D01*
X-8565860Y+4569660D02*
X-8565860Y+4645860D01*
X-8499185Y+4645860D01*
X-8485850Y+4633160D01*
X-8485850Y+4620460D01*
X-8499185Y+4607760D01*
X-8485850Y+4595060D01*
X-8485850Y+4582360D01*
X-8499185Y+4569660D01*
X-8565860Y+4569660D01*
X-8565860Y+4607760D02*
X-8499185Y+4607760D01*
X-8432510Y+4620460D02*
X-8405840Y+4645860D01*
X-8405840Y+4569660D01*
X-8818860Y+4966340D02*
X-8971260Y+4966340D01*
X-8821400Y+5113660D02*
X-8971260Y+5113660D01*
X-8589190Y+5012360D02*
X-8602525Y+4999660D01*
X-8642530Y+4999660D01*
X-8669200Y+5025060D01*
X-8669200Y+5050460D01*
X-8642530Y+5075860D01*
X-8602525Y+5075860D01*
X-8589190Y+5063160D01*
X-8535850Y+5037760D02*
X-8549185Y+5050460D01*
X-8549185Y+5063160D01*
X-8535850Y+5075860D01*
X-8495845Y+5075860D01*
X-8482510Y+5063160D01*
X-8482510Y+5050460D01*
X-8495845Y+5037760D01*
X-8535850Y+5037760D01*
X-8549185Y+5025060D01*
X-8549185Y+5012360D01*
X-8535850Y+4999660D01*
X-8495845Y+4999660D01*
X-8482510Y+5012360D01*
X-8482510Y+5025060D01*
X-8495845Y+5037760D01*
X-8096340Y+5978660D02*
X-8096340Y+5826260D01*
X-8243660Y+5976120D02*
X-8243660Y+5826260D01*
X-8142360Y+5444990D02*
X-8129660Y+5431655D01*
X-8129660Y+5391650D01*
X-8155060Y+5364980D01*
X-8180460Y+5364980D01*
X-8205860Y+5391650D01*
X-8205860Y+5431655D01*
X-8193160Y+5444990D01*
X-8180460Y+5498330D02*
X-8205860Y+5525000D01*
X-8129660Y+5525000D01*
X-8193160Y+5591675D02*
X-8205860Y+5605010D01*
X-8205860Y+5645015D01*
X-8193160Y+5658350D01*
X-8180460Y+5658350D01*
X-8167760Y+5645015D01*
X-8167760Y+5605010D01*
X-8155060Y+5591675D01*
X-8129660Y+5591675D01*
X-8129660Y+5658350D01*
X-8311340Y+5978660D02*
X-8311340Y+5826260D01*
X-8458660Y+5976120D02*
X-8458660Y+5826260D01*
X-8357360Y+5444990D02*
X-8344660Y+5431655D01*
X-8344660Y+5391650D01*
X-8370060Y+5364980D01*
X-8395460Y+5364980D01*
X-8420860Y+5391650D01*
X-8420860Y+5431655D01*
X-8408160Y+5444990D01*
X-8395460Y+5498330D02*
X-8420860Y+5525000D01*
X-8344660Y+5525000D01*
X-8408160Y+5591675D02*
X-8420860Y+5605010D01*
X-8420860Y+5645015D01*
X-8408160Y+5658350D01*
X-8395460Y+5658350D01*
X-8382760Y+5645015D01*
X-8370060Y+5658350D01*
X-8357360Y+5658350D01*
X-8344660Y+5645015D01*
X-8344660Y+5605010D01*
X-8357360Y+5591675D01*
X-8382760Y+5618345D02*
X-8382760Y+5645015D01*
X-9773660Y+5323660D02*
X-9621260Y+5323660D01*
X-9771120Y+5176340D02*
X-9621260Y+5176340D01*
X-9480020Y+5204140D02*
X-9480020Y+5280340D01*
X-9413345Y+5280340D01*
X-9400010Y+5267640D01*
X-9400010Y+5254940D01*
X-9413345Y+5242240D01*
X-9480020Y+5242240D01*
X-9413345Y+5242240D02*
X-9400010Y+5229540D01*
X-9400010Y+5204140D01*
X-9373340Y+5204140D02*
X-9373340Y+5280340D01*
X-9306665Y+5280340D01*
X-9293330Y+5267640D01*
X-9293330Y+5254940D01*
X-9306665Y+5242240D01*
X-9373340Y+5242240D01*
X-9253325Y+5267640D02*
X-9239990Y+5280340D01*
X-9199985Y+5280340D01*
X-9186650Y+5267640D01*
X-9186650Y+5254940D01*
X-9199985Y+5242240D01*
X-9239990Y+5242240D01*
X-9253325Y+5229540D01*
X-9253325Y+5204140D01*
X-9186650Y+5204140D01*
X-9626340Y+5386340D02*
X-9778740Y+5386340D01*
X-9628880Y+5533660D02*
X-9778740Y+5533660D01*
X-9480020Y+5419660D02*
X-9480020Y+5495860D01*
X-9413345Y+5495860D01*
X-9400010Y+5483160D01*
X-9400010Y+5470460D01*
X-9413345Y+5457760D01*
X-9480020Y+5457760D01*
X-9413345Y+5457760D02*
X-9400010Y+5445060D01*
X-9400010Y+5419660D01*
X-9373340Y+5419660D02*
X-9373340Y+5495860D01*
X-9306665Y+5495860D01*
X-9293330Y+5483160D01*
X-9293330Y+5470460D01*
X-9306665Y+5457760D01*
X-9373340Y+5457760D01*
X-9253325Y+5483160D02*
X-9239990Y+5495860D01*
X-9199985Y+5495860D01*
X-9186650Y+5483160D01*
X-9186650Y+5470460D01*
X-9199985Y+5457760D01*
X-9186650Y+5445060D01*
X-9186650Y+5432360D01*
X-9199985Y+5419660D01*
X-9239990Y+5419660D01*
X-9253325Y+5432360D01*
X-9226655Y+5457760D02*
X-9199985Y+5457760D01*
X-9180000Y+6350000D02*
X-8780000Y+6350000D01*
X-8780000Y+6650000D01*
X-9180000Y+6650000D01*
X-9180000Y+6350000D01*
X-9120020Y+6243320D02*
X-9120020Y+6319520D01*
X-9053345Y+6319520D01*
X-9040010Y+6306820D01*
X-9040010Y+6294120D01*
X-9053345Y+6281420D01*
X-9120020Y+6281420D01*
X-9053345Y+6281420D02*
X-9040010Y+6268720D01*
X-9040010Y+6243320D01*
X-9013340Y+6256020D02*
X-9000005Y+6243320D01*
X-8946665Y+6243320D01*
X-8933330Y+6256020D01*
X-8933330Y+6268720D01*
X-8946665Y+6281420D01*
X-9000005Y+6281420D01*
X-9013340Y+6294120D01*
X-9013340Y+6306820D01*
X-9000005Y+6319520D01*
X-8946665Y+6319520D01*
X-8933330Y+6306820D01*
X-8906660Y+6319520D02*
X-8826650Y+6319520D01*
X-8866655Y+6319520D02*
X-8866655Y+6243320D01*
X-9773660Y+6027600D02*
X-9621260Y+6027600D01*
X-9771120Y+5880280D02*
X-9621260Y+5880280D01*
X-9400010Y+5930780D02*
X-9413345Y+5918080D01*
X-9453350Y+5918080D01*
X-9480020Y+5943480D01*
X-9480020Y+5968880D01*
X-9453350Y+5994280D01*
X-9413345Y+5994280D01*
X-9400010Y+5981580D01*
X-9346670Y+5968880D02*
X-9320000Y+5994280D01*
X-9320000Y+5918080D01*
X-9239990Y+5968880D02*
X-9213320Y+5994280D01*
X-9213320Y+5918080D01*
X-9626340Y+5665280D02*
X-9778740Y+5665280D01*
X-9628880Y+5812600D02*
X-9778740Y+5812600D01*
X-9480020Y+5708600D02*
X-9480020Y+5784800D01*
X-9413345Y+5784800D01*
X-9400010Y+5772100D01*
X-9400010Y+5759400D01*
X-9413345Y+5746700D01*
X-9480020Y+5746700D01*
X-9413345Y+5746700D02*
X-9400010Y+5734000D01*
X-9400010Y+5708600D01*
X-9346670Y+5759400D02*
X-9320000Y+5784800D01*
X-9320000Y+5708600D01*
X-9253325Y+5772100D02*
X-9239990Y+5784800D01*
X-9199985Y+5784800D01*
X-9186650Y+5772100D01*
X-9186650Y+5759400D01*
X-9199985Y+5746700D01*
X-9186650Y+5734000D01*
X-9186650Y+5721300D01*
X-9199985Y+5708600D01*
X-9239990Y+5708600D01*
X-9253325Y+5721300D01*
X-9226655Y+5746700D02*
X-9199985Y+5746700D01*
X-8500000Y+6350000D02*
X-8100000Y+6350000D01*
X-8100000Y+6650000D01*
X-8500000Y+6650000D01*
X-8500000Y+6350000D01*
X-8493360Y+6240480D02*
X-8493360Y+6316680D01*
X-8426685Y+6316680D01*
X-8413350Y+6303980D01*
X-8413350Y+6291280D01*
X-8426685Y+6278580D01*
X-8413350Y+6265880D01*
X-8413350Y+6253180D01*
X-8426685Y+6240480D01*
X-8493360Y+6240480D01*
X-8493360Y+6278580D02*
X-8426685Y+6278580D01*
X-8386680Y+6291280D02*
X-8360010Y+6316680D01*
X-8333340Y+6316680D01*
X-8306670Y+6291280D01*
X-8306670Y+6265880D01*
X-8333340Y+6240480D01*
X-8360010Y+6240480D01*
X-8386680Y+6265880D01*
X-8386680Y+6291280D01*
X-8280000Y+6291280D02*
X-8253330Y+6316680D01*
X-8226660Y+6316680D01*
X-8199990Y+6291280D01*
X-8199990Y+6265880D01*
X-8226660Y+6240480D01*
X-8253330Y+6240480D01*
X-8280000Y+6265880D01*
X-8280000Y+6291280D01*
X-8173320Y+6316680D02*
X-8093310Y+6316680D01*
X-8133315Y+6316680D02*
X-8133315Y+6240480D01*
X-4273660Y+1843660D02*
X-4121260Y+1843660D01*
X-4271120Y+1696340D02*
X-4121260Y+1696340D01*
X-3914600Y+1802230D02*
X-3901900Y+1788895D01*
X-3901900Y+1748890D01*
X-3927300Y+1722220D01*
X-3952700Y+1722220D01*
X-3978100Y+1748890D01*
X-3978100Y+1788895D01*
X-3965400Y+1802230D01*
X-3952700Y+1855570D02*
X-3978100Y+1882240D01*
X-3901900Y+1882240D01*
X-3927300Y+2015590D02*
X-3927300Y+1935580D01*
X-3978100Y+1988920D01*
X-3901900Y+1988920D01*
X-4273660Y+2063660D02*
X-4121260Y+2063660D01*
X-4271120Y+1916340D02*
X-4121260Y+1916340D01*
X-4444600Y+1802230D02*
X-4431900Y+1788895D01*
X-4431900Y+1748890D01*
X-4457300Y+1722220D01*
X-4482700Y+1722220D01*
X-4508100Y+1748890D01*
X-4508100Y+1788895D01*
X-4495400Y+1802230D01*
X-4482700Y+1855570D02*
X-4508100Y+1882240D01*
X-4431900Y+1882240D01*
X-4508100Y+2015590D02*
X-4508100Y+1948915D01*
X-4482700Y+1948915D01*
X-4482700Y+2002255D01*
X-4470000Y+2015590D01*
X-4444600Y+2015590D01*
X-4431900Y+2002255D01*
X-4431900Y+1962250D01*
X-4444600Y+1948915D01*
D49*
X-8845000Y+5600010D02*
X-8745000Y+5600010D01*
X-8845000Y+5439990D02*
X-8745000Y+5439990D01*
D46*
X-8891680Y+5377960D02*
X-8811670Y+5301760D01*
X-8891680Y+5301760D02*
X-8811670Y+5377960D01*
X-8758330Y+5352560D02*
X-8731660Y+5377960D01*
X-8731660Y+5301760D01*
X-8748660Y+5831340D02*
X-8748660Y+5983740D01*
X-8601340Y+5833880D02*
X-8601340Y+5983740D01*
X-8511840Y+5888330D02*
X-8499140Y+5874995D01*
X-8499140Y+5834990D01*
X-8524540Y+5808320D01*
X-8549940Y+5808320D01*
X-8575340Y+5834990D01*
X-8575340Y+5874995D01*
X-8562640Y+5888330D01*
X-8549940Y+5995010D02*
X-8537240Y+5981675D01*
X-8537240Y+5941670D01*
X-8549940Y+5928335D01*
X-8562640Y+5928335D01*
X-8575340Y+5941670D01*
X-8575340Y+5981675D01*
X-8562640Y+5995010D01*
X-8511840Y+5995010D01*
X-8499140Y+5981675D01*
X-8499140Y+5941670D01*
X-8988660Y+5831340D02*
X-8988660Y+5983740D01*
X-8841340Y+5833880D02*
X-8841340Y+5983740D01*
X-9031840Y+5834990D02*
X-9019140Y+5821655D01*
X-9019140Y+5781650D01*
X-9044540Y+5754980D01*
X-9069940Y+5754980D01*
X-9095340Y+5781650D01*
X-9095340Y+5821655D01*
X-9082640Y+5834990D01*
X-9069940Y+5888330D02*
X-9095340Y+5915000D01*
X-9019140Y+5915000D01*
X-9031840Y+5968340D02*
X-9082640Y+5968340D01*
X-9095340Y+5981675D01*
X-9095340Y+6035015D01*
X-9082640Y+6048350D01*
X-9031840Y+6048350D01*
X-9019140Y+6035015D01*
X-9019140Y+5981675D01*
X-9031840Y+5968340D01*
X-9019140Y+5968340D02*
X-9095340Y+6048350D01*
D47*
X-4249984Y+3620000D02*
X-4250027Y+3621039D01*
X-4250379Y+3623118D01*
X-4251116Y+3625197D01*
X-4252320Y+3627276D01*
X-4254161Y+3629326D01*
X-4256240Y+3630829D01*
X-4258319Y+3631786D01*
X-4260398Y+3632325D01*
X-4262477Y+3632500D01*
X-4262484Y+3632500D01*
X-4274984Y+3620000D02*
X-4274941Y+3621039D01*
X-4274589Y+3623118D01*
X-4273852Y+3625197D01*
X-4272648Y+3627276D01*
X-4270807Y+3629326D01*
X-4268728Y+3630829D01*
X-4266649Y+3631786D01*
X-4264570Y+3632325D01*
X-4262491Y+3632500D01*
X-4262484Y+3632500D01*
X-4274984Y+3620000D02*
X-4274941Y+3618961D01*
X-4274589Y+3616882D01*
X-4273852Y+3614803D01*
X-4272648Y+3612724D01*
X-4270807Y+3610674D01*
X-4268728Y+3609171D01*
X-4266649Y+3608214D01*
X-4264570Y+3607675D01*
X-4262491Y+3607500D01*
X-4262484Y+3607500D01*
X-4249984Y+3620000D02*
X-4250027Y+3618961D01*
X-4250379Y+3616882D01*
X-4251116Y+3614803D01*
X-4252320Y+3612724D01*
X-4254161Y+3610674D01*
X-4256240Y+3609171D01*
X-4258319Y+3608214D01*
X-4260398Y+3607675D01*
X-4262477Y+3607500D01*
X-4262484Y+3607500D01*
D48*
X-4372484Y+3955000D02*
X-4432484Y+3955000D01*
X-4432484Y+3645000D01*
X-4372484Y+3645000D01*
X-4372484Y+3955000D01*
D46*
X-4509164Y+3584200D02*
X-4482494Y+3609600D01*
X-4455824Y+3609600D01*
X-4429154Y+3584200D01*
X-4429154Y+3558800D01*
X-4455824Y+3533400D01*
X-4482494Y+3533400D01*
X-4509164Y+3558800D01*
X-4509164Y+3584200D01*
X-4455824Y+3558800D02*
X-4429154Y+3533400D01*
X-4389149Y+3596900D02*
X-4375814Y+3609600D01*
X-4335809Y+3609600D01*
X-4322474Y+3596900D01*
X-4322474Y+3584200D01*
X-4335809Y+3571500D01*
X-4322474Y+3558800D01*
X-4322474Y+3546100D01*
X-4335809Y+3533400D01*
X-4375814Y+3533400D01*
X-4389149Y+3546100D01*
X-4362479Y+3571500D02*
X-4335809Y+3571500D01*
D47*
X-4249984Y+4080000D02*
X-4250027Y+4081039D01*
X-4250379Y+4083118D01*
X-4251116Y+4085197D01*
X-4252320Y+4087276D01*
X-4254161Y+4089326D01*
X-4256240Y+4090829D01*
X-4258319Y+4091786D01*
X-4260398Y+4092325D01*
X-4262477Y+4092500D01*
X-4262484Y+4092500D01*
X-4274984Y+4080000D02*
X-4274941Y+4081039D01*
X-4274589Y+4083118D01*
X-4273852Y+4085197D01*
X-4272648Y+4087276D01*
X-4270807Y+4089326D01*
X-4268728Y+4090829D01*
X-4266649Y+4091786D01*
X-4264570Y+4092325D01*
X-4262491Y+4092500D01*
X-4262484Y+4092500D01*
X-4274984Y+4080000D02*
X-4274941Y+4078961D01*
X-4274589Y+4076882D01*
X-4273852Y+4074803D01*
X-4272648Y+4072724D01*
X-4270807Y+4070674D01*
X-4268728Y+4069171D01*
X-4266649Y+4068214D01*
X-4264570Y+4067675D01*
X-4262491Y+4067500D01*
X-4262484Y+4067500D01*
X-4249984Y+4080000D02*
X-4250027Y+4078961D01*
X-4250379Y+4076882D01*
X-4251116Y+4074803D01*
X-4252320Y+4072724D01*
X-4254161Y+4070674D01*
X-4256240Y+4069171D01*
X-4258319Y+4068214D01*
X-4260398Y+4067675D01*
X-4262477Y+4067500D01*
X-4262484Y+4067500D01*
D48*
X-4372484Y+4415000D02*
X-4432484Y+4415000D01*
X-4432484Y+4105000D01*
X-4372484Y+4105000D01*
X-4372484Y+4415000D01*
D46*
X-4509164Y+4044200D02*
X-4482494Y+4069600D01*
X-4455824Y+4069600D01*
X-4429154Y+4044200D01*
X-4429154Y+4018800D01*
X-4455824Y+3993400D01*
X-4482494Y+3993400D01*
X-4509164Y+4018800D01*
X-4509164Y+4044200D01*
X-4455824Y+4018800D02*
X-4429154Y+3993400D01*
X-4322474Y+4018800D02*
X-4402484Y+4018800D01*
X-4349144Y+4069600D01*
X-4349144Y+3993400D01*
D47*
X-4249984Y+4540000D02*
X-4250027Y+4541039D01*
X-4250379Y+4543118D01*
X-4251116Y+4545197D01*
X-4252320Y+4547276D01*
X-4254161Y+4549326D01*
X-4256240Y+4550829D01*
X-4258319Y+4551786D01*
X-4260398Y+4552325D01*
X-4262477Y+4552500D01*
X-4262484Y+4552500D01*
X-4274984Y+4540000D02*
X-4274941Y+4541039D01*
X-4274589Y+4543118D01*
X-4273852Y+4545197D01*
X-4272648Y+4547276D01*
X-4270807Y+4549326D01*
X-4268728Y+4550829D01*
X-4266649Y+4551786D01*
X-4264570Y+4552325D01*
X-4262491Y+4552500D01*
X-4262484Y+4552500D01*
X-4274984Y+4540000D02*
X-4274941Y+4538961D01*
X-4274589Y+4536882D01*
X-4273852Y+4534803D01*
X-4272648Y+4532724D01*
X-4270807Y+4530674D01*
X-4268728Y+4529171D01*
X-4266649Y+4528214D01*
X-4264570Y+4527675D01*
X-4262491Y+4527500D01*
X-4262484Y+4527500D01*
X-4249984Y+4540000D02*
X-4250027Y+4538961D01*
X-4250379Y+4536882D01*
X-4251116Y+4534803D01*
X-4252320Y+4532724D01*
X-4254161Y+4530674D01*
X-4256240Y+4529171D01*
X-4258319Y+4528214D01*
X-4260398Y+4527675D01*
X-4262477Y+4527500D01*
X-4262484Y+4527500D01*
D48*
X-4372484Y+4875000D02*
X-4432484Y+4875000D01*
X-4432484Y+4565000D01*
X-4372484Y+4565000D01*
X-4372484Y+4875000D01*
D46*
X-4509164Y+4504200D02*
X-4482494Y+4529600D01*
X-4455824Y+4529600D01*
X-4429154Y+4504200D01*
X-4429154Y+4478800D01*
X-4455824Y+4453400D01*
X-4482494Y+4453400D01*
X-4509164Y+4478800D01*
X-4509164Y+4504200D01*
X-4455824Y+4478800D02*
X-4429154Y+4453400D01*
X-4322474Y+4529600D02*
X-4389149Y+4529600D01*
X-4389149Y+4504200D01*
X-4335809Y+4504200D01*
X-4322474Y+4491500D01*
X-4322474Y+4466100D01*
X-4335809Y+4453400D01*
X-4375814Y+4453400D01*
X-4389149Y+4466100D01*
X-4003824Y+3861220D02*
X-4003824Y+3708820D01*
X-4151144Y+3858680D02*
X-4151144Y+3708820D01*
X-3897144Y+3680880D02*
X-3973344Y+3680880D01*
X-3973344Y+3747555D01*
X-3960644Y+3760890D01*
X-3947944Y+3760890D01*
X-3935244Y+3747555D01*
X-3935244Y+3680880D01*
X-3935244Y+3747555D02*
X-3922544Y+3760890D01*
X-3897144Y+3760890D01*
X-3947944Y+3867570D02*
X-3935244Y+3854235D01*
X-3935244Y+3814230D01*
X-3947944Y+3800895D01*
X-3960644Y+3800895D01*
X-3973344Y+3814230D01*
X-3973344Y+3854235D01*
X-3960644Y+3867570D01*
X-3909844Y+3867570D01*
X-3897144Y+3854235D01*
X-3897144Y+3814230D01*
X-4003824Y+4336220D02*
X-4003824Y+4183820D01*
X-4151144Y+4333680D02*
X-4151144Y+4183820D01*
X-3897144Y+4102540D02*
X-3973344Y+4102540D01*
X-3973344Y+4169215D01*
X-3960644Y+4182550D01*
X-3947944Y+4182550D01*
X-3935244Y+4169215D01*
X-3935244Y+4102540D01*
X-3935244Y+4169215D02*
X-3922544Y+4182550D01*
X-3897144Y+4182550D01*
X-3947944Y+4235890D02*
X-3973344Y+4262560D01*
X-3897144Y+4262560D01*
X-3909844Y+4315900D02*
X-3960644Y+4315900D01*
X-3973344Y+4329235D01*
X-3973344Y+4382575D01*
X-3960644Y+4395910D01*
X-3909844Y+4395910D01*
X-3897144Y+4382575D01*
X-3897144Y+4329235D01*
X-3909844Y+4315900D01*
X-3897144Y+4315900D02*
X-3973344Y+4395910D01*
X-4003824Y+4806260D02*
X-4003824Y+4653860D01*
X-4151144Y+4803720D02*
X-4151144Y+4653860D01*
X-3897144Y+4572580D02*
X-3973344Y+4572580D01*
X-3973344Y+4639255D01*
X-3960644Y+4652590D01*
X-3947944Y+4652590D01*
X-3935244Y+4639255D01*
X-3935244Y+4572580D01*
X-3935244Y+4639255D02*
X-3922544Y+4652590D01*
X-3897144Y+4652590D01*
X-3947944Y+4705930D02*
X-3973344Y+4732600D01*
X-3897144Y+4732600D01*
X-3947944Y+4812610D02*
X-3973344Y+4839280D01*
X-3897144Y+4839280D01*
D52*
X-4114996Y+2760000D02*
X-4074996Y+2760000D01*
X-4074996Y+2800000D01*
X-4114996Y+2800000D01*
X-4114996Y+2760000D01*
D46*
X-3947059Y+2619820D02*
X-3972459Y+2646490D01*
X-3972459Y+2673160D01*
X-3947059Y+2699830D01*
X-3921659Y+2699830D01*
X-3896259Y+2673160D01*
X-3896259Y+2646490D01*
X-3921659Y+2619820D01*
X-3947059Y+2619820D01*
X-3921659Y+2673160D02*
X-3896259Y+2699830D01*
X-3959759Y+2739835D02*
X-3972459Y+2753170D01*
X-3972459Y+2793175D01*
X-3959759Y+2806510D01*
X-3947059Y+2806510D01*
X-3934359Y+2793175D01*
X-3934359Y+2753170D01*
X-3921659Y+2739835D01*
X-3896259Y+2739835D01*
X-3896259Y+2806510D01*
X-4273660Y+2283660D02*
X-4121260Y+2283660D01*
X-4271120Y+2136340D02*
X-4121260Y+2136340D01*
X-3896020Y+2115560D02*
X-3972220Y+2115560D01*
X-3972220Y+2182235D01*
X-3959520Y+2195570D01*
X-3946820Y+2195570D01*
X-3934120Y+2182235D01*
X-3934120Y+2115560D01*
X-3934120Y+2182235D02*
X-3921420Y+2195570D01*
X-3896020Y+2195570D01*
X-3972220Y+2302250D02*
X-3972220Y+2235575D01*
X-3946820Y+2235575D01*
X-3946820Y+2288915D01*
X-3934120Y+2302250D01*
X-3908720Y+2302250D01*
X-3896020Y+2288915D01*
X-3896020Y+2248910D01*
X-3908720Y+2235575D01*
X-4126340Y+2346340D02*
X-4278740Y+2346340D01*
X-4128880Y+2493660D02*
X-4278740Y+2493660D01*
X-4427780Y+2331080D02*
X-4503980Y+2331080D01*
X-4503980Y+2397755D01*
X-4491280Y+2411090D01*
X-4478580Y+2411090D01*
X-4465880Y+2397755D01*
X-4465880Y+2331080D01*
X-4465880Y+2397755D02*
X-4453180Y+2411090D01*
X-4427780Y+2411090D01*
X-4491280Y+2517770D02*
X-4503980Y+2504435D01*
X-4503980Y+2464430D01*
X-4491280Y+2451095D01*
X-4440480Y+2451095D01*
X-4427780Y+2464430D01*
X-4427780Y+2504435D01*
X-4440480Y+2517770D01*
X-4453180Y+2517770D01*
X-4465880Y+2504435D01*
X-4465880Y+2451095D01*
X-4973820Y+5726340D02*
X-5126220Y+5726340D01*
X-4976360Y+5873660D02*
X-5126220Y+5873660D01*
X-5197500Y+5619660D02*
X-5197500Y+5695860D01*
X-5130825Y+5695860D01*
X-5117490Y+5683160D01*
X-5117490Y+5670460D01*
X-5130825Y+5657760D01*
X-5197500Y+5657760D01*
X-5130825Y+5657760D02*
X-5117490Y+5645060D01*
X-5117490Y+5619660D01*
X-5064150Y+5670460D02*
X-5037480Y+5695860D01*
X-5037480Y+5619660D01*
X-4904130Y+5683160D02*
X-4917465Y+5695860D01*
X-4957470Y+5695860D01*
X-4970805Y+5683160D01*
X-4970805Y+5632360D01*
X-4957470Y+5619660D01*
X-4917465Y+5619660D01*
X-4904130Y+5632360D01*
X-4904130Y+5645060D01*
X-4917465Y+5657760D01*
X-4970805Y+5657760D01*
X-4893660Y+4991340D02*
X-4893660Y+5143740D01*
X-4746340Y+4993880D02*
X-4746340Y+5143740D01*
X-4796840Y+5368330D02*
X-4784140Y+5354995D01*
X-4784140Y+5314990D01*
X-4809540Y+5288320D01*
X-4834940Y+5288320D01*
X-4860340Y+5314990D01*
X-4860340Y+5354995D01*
X-4847640Y+5368330D01*
X-4860340Y+5408335D02*
X-4860340Y+5475010D01*
X-4847640Y+5475010D01*
X-4784140Y+5408335D01*
X-4410000Y+3280000D02*
X-4410000Y+3160000D01*
X-4650000Y+3280000D02*
X-4650000Y+3160000D01*
X-4759520Y+3113320D02*
X-4683320Y+3193330D01*
X-4683320Y+3113320D02*
X-4759520Y+3193330D01*
X-4746820Y+3233335D02*
X-4759520Y+3246670D01*
X-4759520Y+3286675D01*
X-4746820Y+3300010D01*
X-4734120Y+3300010D01*
X-4721420Y+3286675D01*
X-4721420Y+3246670D01*
X-4708720Y+3233335D01*
X-4683320Y+3233335D01*
X-4683320Y+3300010D01*
X-4166180Y+3433660D02*
X-4013780Y+3433660D01*
X-4163640Y+3286340D02*
X-4013780Y+3286340D01*
X-4119190Y+3476840D02*
X-4132525Y+3464140D01*
X-4172530Y+3464140D01*
X-4199200Y+3489540D01*
X-4199200Y+3514940D01*
X-4172530Y+3540340D01*
X-4132525Y+3540340D01*
X-4119190Y+3527640D01*
X-4012510Y+3540340D02*
X-4079185Y+3540340D01*
X-4079185Y+3514940D01*
X-4025845Y+3514940D01*
X-4012510Y+3502240D01*
X-4012510Y+3476840D01*
X-4025845Y+3464140D01*
X-4065850Y+3464140D01*
X-4079185Y+3476840D01*
X-4166180Y+3153660D02*
X-4013780Y+3153660D01*
X-4163640Y+3006340D02*
X-4013780Y+3006340D01*
X-4119190Y+3196840D02*
X-4132525Y+3184140D01*
X-4172530Y+3184140D01*
X-4199200Y+3209540D01*
X-4199200Y+3234940D01*
X-4172530Y+3260340D01*
X-4132525Y+3260340D01*
X-4119190Y+3247640D01*
X-4012510Y+3247640D02*
X-4025845Y+3260340D01*
X-4065850Y+3260340D01*
X-4079185Y+3247640D01*
X-4079185Y+3196840D01*
X-4065850Y+3184140D01*
X-4025845Y+3184140D01*
X-4012510Y+3196840D01*
X-4012510Y+3209540D01*
X-4025845Y+3222240D01*
X-4079185Y+3222240D01*
X-5560000Y+6744120D02*
X-5560000Y+6444120D01*
X-4540000Y+6744120D02*
X-4540000Y+6444120D01*
X-5560000Y+6744120D02*
X-4540000Y+6744120D01*
X-5560000Y+6444120D02*
X-5460000Y+6444120D01*
X-4540000Y+6444120D02*
X-4640000Y+6444120D01*
D53*
X-5560000Y+6774120D02*
X-5560000Y+6774120D01*
X-5560000Y+6794120D02*
X-5560000Y+6794120D01*
X-5560001Y+6774120D02*
X-5559999Y+6774120D01*
X-5560001Y+6794120D02*
X-5559999Y+6794120D01*
X-5560002Y+6774120D02*
X-5559998Y+6774120D01*
X-5560002Y+6794120D02*
X-5559998Y+6794120D01*
X-5560003Y+6774120D02*
X-5559997Y+6774120D01*
X-5560003Y+6794120D02*
X-5559997Y+6794120D01*
X-5560004Y+6774120D02*
X-5559996Y+6774120D01*
X-5560004Y+6794120D02*
X-5559996Y+6794120D01*
X-5560005Y+6774120D02*
X-5559995Y+6774120D01*
X-5560005Y+6794120D02*
X-5559995Y+6794120D01*
X-5560006Y+6774120D02*
X-5559994Y+6774120D01*
X-5560006Y+6794120D02*
X-5559994Y+6794120D01*
X-5560007Y+6774120D02*
X-5559993Y+6774120D01*
X-5560007Y+6794120D02*
X-5559993Y+6794120D01*
X-5560008Y+6774120D02*
X-5559992Y+6774120D01*
X-5560008Y+6794120D02*
X-5559992Y+6794120D01*
X-5560009Y+6774120D02*
X-5559991Y+6774120D01*
X-5560009Y+6794120D02*
X-5559991Y+6794120D01*
X-5560010Y+6774120D02*
X-5559990Y+6774120D01*
X-5560010Y+6794120D02*
X-5559990Y+6794120D01*
X-5560011Y+6774120D02*
X-5559989Y+6774120D01*
X-5560011Y+6794120D02*
X-5559989Y+6794120D01*
X-5560012Y+6774120D02*
X-5559988Y+6774120D01*
X-5560012Y+6794120D02*
X-5559988Y+6794120D01*
X-5560013Y+6774120D02*
X-5559987Y+6774120D01*
X-5560013Y+6794120D02*
X-5559987Y+6794120D01*
X-5560014Y+6774120D02*
X-5559986Y+6774120D01*
X-5560014Y+6794120D02*
X-5559986Y+6794120D01*
X-5560015Y+6774120D02*
X-5559985Y+6774120D01*
X-5560015Y+6794120D02*
X-5559985Y+6794120D01*
X-5560016Y+6774120D02*
X-5559984Y+6774120D01*
X-5560016Y+6794120D02*
X-5559984Y+6794120D01*
X-5560017Y+6774120D02*
X-5559983Y+6774120D01*
X-5560017Y+6794120D02*
X-5559983Y+6794120D01*
X-5560018Y+6774120D02*
X-5559982Y+6774120D01*
X-5560018Y+6794120D02*
X-5559982Y+6794120D01*
X-5560019Y+6774120D02*
X-5559981Y+6774120D01*
X-5560019Y+6794120D02*
X-5559981Y+6794120D01*
X-5560020Y+6774120D02*
X-5559980Y+6774120D01*
X-5560020Y+6794120D02*
X-5559980Y+6794120D01*
X-5560021Y+6774120D02*
X-5559979Y+6774120D01*
X-5560021Y+6794120D02*
X-5559979Y+6794120D01*
X-5560022Y+6774120D02*
X-5559978Y+6774120D01*
X-5560022Y+6794120D02*
X-5559978Y+6794120D01*
X-5560023Y+6774120D02*
X-5559977Y+6774120D01*
X-5560023Y+6794120D02*
X-5559977Y+6794120D01*
X-5560024Y+6774120D02*
X-5559976Y+6774120D01*
X-5560024Y+6794120D02*
X-5559976Y+6794120D01*
X-5560025Y+6774120D02*
X-5559975Y+6774120D01*
X-5560025Y+6794120D02*
X-5559975Y+6794120D01*
X-5560026Y+6774120D02*
X-5559974Y+6774120D01*
X-5560026Y+6794120D02*
X-5559974Y+6794120D01*
X-5560027Y+6774120D02*
X-5559973Y+6774120D01*
X-5560027Y+6794120D02*
X-5559973Y+6794120D01*
X-5560028Y+6774120D02*
X-5559972Y+6774120D01*
X-5560028Y+6794120D02*
X-5559972Y+6794120D01*
X-5560029Y+6774120D02*
X-5559971Y+6774120D01*
X-5560029Y+6794120D02*
X-5559971Y+6794120D01*
X-5560030Y+6774120D02*
X-5559970Y+6774120D01*
X-5560030Y+6794120D02*
X-5559970Y+6794120D01*
X-5560031Y+6774120D02*
X-5559969Y+6774120D01*
X-5560031Y+6794120D02*
X-5559969Y+6794120D01*
X-5560032Y+6774120D02*
X-5559968Y+6774120D01*
X-5560032Y+6794120D02*
X-5559968Y+6794120D01*
X-5560033Y+6774120D02*
X-5559967Y+6774120D01*
X-5560033Y+6794120D02*
X-5559967Y+6794120D01*
X-5560034Y+6774120D02*
X-5559966Y+6774120D01*
X-5560034Y+6794120D02*
X-5559966Y+6794120D01*
X-5560035Y+6774120D02*
X-5559965Y+6774120D01*
X-5560035Y+6794120D02*
X-5559965Y+6794120D01*
X-5560036Y+6774120D02*
X-5559964Y+6774120D01*
X-5560036Y+6794120D02*
X-5559964Y+6794120D01*
X-5560037Y+6774120D02*
X-5559963Y+6774120D01*
X-5560037Y+6794120D02*
X-5559963Y+6794120D01*
X-5560038Y+6774120D02*
X-5559962Y+6774120D01*
X-5560038Y+6794120D02*
X-5559962Y+6794120D01*
X-5560039Y+6774120D02*
X-5559961Y+6774120D01*
X-5560039Y+6794120D02*
X-5559961Y+6794120D01*
X-5560040Y+6774120D02*
X-5559960Y+6774120D01*
X-5560040Y+6794120D02*
X-5559960Y+6794120D01*
X-5560041Y+6774120D02*
X-5559959Y+6774120D01*
X-5560041Y+6794120D02*
X-5559959Y+6794120D01*
X-5560042Y+6774120D02*
X-5559958Y+6774120D01*
X-5560042Y+6794120D02*
X-5559958Y+6794120D01*
X-5560043Y+6774120D02*
X-5559957Y+6774120D01*
X-5560043Y+6794120D02*
X-5559957Y+6794120D01*
X-5560044Y+6774120D02*
X-5559956Y+6774120D01*
X-5560044Y+6794120D02*
X-5559956Y+6794120D01*
X-5560045Y+6774120D02*
X-5559955Y+6774120D01*
X-5560045Y+6794120D02*
X-5559955Y+6794120D01*
X-5560046Y+6774120D02*
X-5559954Y+6774120D01*
X-5560046Y+6794120D02*
X-5559954Y+6794120D01*
X-5560047Y+6774120D02*
X-5559953Y+6774120D01*
X-5560047Y+6794120D02*
X-5559953Y+6794120D01*
X-5560048Y+6774120D02*
X-5559952Y+6774120D01*
X-5560048Y+6794120D02*
X-5559952Y+6794120D01*
X-5560049Y+6774120D02*
X-5559951Y+6774120D01*
X-5560049Y+6794120D02*
X-5559951Y+6794120D01*
X-5560050Y+6774120D02*
X-5559950Y+6774120D01*
X-5560050Y+6794120D02*
X-5559950Y+6794120D01*
X-5560051Y+6774120D02*
X-5559949Y+6774120D01*
X-5560051Y+6794120D02*
X-5559949Y+6794120D01*
X-5560052Y+6774120D02*
X-5559948Y+6774120D01*
X-5560052Y+6794120D02*
X-5559948Y+6794120D01*
X-5560053Y+6774120D02*
X-5559947Y+6774120D01*
X-5560053Y+6794120D02*
X-5559947Y+6794120D01*
X-5560054Y+6774120D02*
X-5559946Y+6774120D01*
X-5560054Y+6794120D02*
X-5559946Y+6794120D01*
X-5560055Y+6774120D02*
X-5559945Y+6774120D01*
X-5560055Y+6794120D02*
X-5559945Y+6794120D01*
X-5560056Y+6774120D02*
X-5559944Y+6774120D01*
X-5560056Y+6794120D02*
X-5559944Y+6794120D01*
X-5560057Y+6774120D02*
X-5559943Y+6774120D01*
X-5560057Y+6794120D02*
X-5559943Y+6794120D01*
X-5560058Y+6774120D02*
X-5559942Y+6774120D01*
X-5560058Y+6794120D02*
X-5559942Y+6794120D01*
X-5560059Y+6774120D02*
X-5559941Y+6774120D01*
X-5560059Y+6794120D02*
X-5559941Y+6794120D01*
X-5560060Y+6774120D02*
X-5559940Y+6774120D01*
X-5560060Y+6794120D02*
X-5559940Y+6794120D01*
X-5560061Y+6774120D02*
X-5559939Y+6774120D01*
X-5560061Y+6794120D02*
X-5559939Y+6794120D01*
X-5560062Y+6774120D02*
X-5559938Y+6774120D01*
X-5560062Y+6794120D02*
X-5559938Y+6794120D01*
X-5560063Y+6774120D02*
X-5559937Y+6774120D01*
X-5560063Y+6794120D02*
X-5559937Y+6794120D01*
X-5560064Y+6774120D02*
X-5559936Y+6774120D01*
X-5560064Y+6794120D02*
X-5559936Y+6794120D01*
X-5560065Y+6774120D02*
X-5559935Y+6774120D01*
X-5560065Y+6794120D02*
X-5559935Y+6794120D01*
X-5560066Y+6774120D02*
X-5559934Y+6774120D01*
X-5560066Y+6794120D02*
X-5559934Y+6794120D01*
X-5560067Y+6774120D02*
X-5559933Y+6774120D01*
X-5560067Y+6794120D02*
X-5559933Y+6794120D01*
X-5560068Y+6774120D02*
X-5559932Y+6774120D01*
X-5560068Y+6794120D02*
X-5559932Y+6794120D01*
X-5560069Y+6774120D02*
X-5559931Y+6774120D01*
X-5560069Y+6794120D02*
X-5559931Y+6794120D01*
X-5560070Y+6774120D02*
X-5559930Y+6774120D01*
X-5560070Y+6794120D02*
X-5559930Y+6794120D01*
X-5560071Y+6774120D02*
X-5559929Y+6774120D01*
X-5560071Y+6794120D02*
X-5559929Y+6794120D01*
X-5560072Y+6774120D02*
X-5559928Y+6774120D01*
X-5560072Y+6794120D02*
X-5559928Y+6794120D01*
X-5560073Y+6774120D02*
X-5559927Y+6774120D01*
X-5560073Y+6794120D02*
X-5559927Y+6794120D01*
X-5560074Y+6774120D02*
X-5559926Y+6774120D01*
X-5560074Y+6794120D02*
X-5559926Y+6794120D01*
X-5560075Y+6774120D02*
X-5559925Y+6774120D01*
X-5560075Y+6794120D02*
X-5559925Y+6794120D01*
X-5560076Y+6774120D02*
X-5559924Y+6774120D01*
X-5560076Y+6794120D02*
X-5559924Y+6794120D01*
X-5560077Y+6774120D02*
X-5559923Y+6774120D01*
X-5560077Y+6794120D02*
X-5559923Y+6794120D01*
X-5560078Y+6774120D02*
X-5559922Y+6774120D01*
X-5560078Y+6794120D02*
X-5559922Y+6794120D01*
X-5560079Y+6774120D02*
X-5559921Y+6774120D01*
X-5560079Y+6794120D02*
X-5559921Y+6794120D01*
X-5560080Y+6774120D02*
X-5559920Y+6774120D01*
X-5560080Y+6794120D02*
X-5559920Y+6794120D01*
X-5560081Y+6774120D02*
X-5559919Y+6774120D01*
X-5560081Y+6794120D02*
X-5559919Y+6794120D01*
X-5560082Y+6774120D02*
X-5559918Y+6774120D01*
X-5560082Y+6794120D02*
X-5559918Y+6794120D01*
X-5560083Y+6774120D02*
X-5559917Y+6774120D01*
X-5560083Y+6794120D02*
X-5559917Y+6794120D01*
X-5560084Y+6774120D02*
X-5559916Y+6774120D01*
X-5560084Y+6794120D02*
X-5559916Y+6794120D01*
X-5560085Y+6774120D02*
X-5559915Y+6774120D01*
X-5560085Y+6794120D02*
X-5559915Y+6794120D01*
X-5560086Y+6774120D02*
X-5559914Y+6774120D01*
X-5560086Y+6794120D02*
X-5559914Y+6794120D01*
X-5560087Y+6774120D02*
X-5559913Y+6774120D01*
X-5560087Y+6794120D02*
X-5559913Y+6794120D01*
X-5560088Y+6774120D02*
X-5559912Y+6774120D01*
X-5560088Y+6794120D02*
X-5559912Y+6794120D01*
X-5560089Y+6774120D02*
X-5559911Y+6774120D01*
X-5560089Y+6794120D02*
X-5559911Y+6794120D01*
X-5560090Y+6774120D02*
X-5559910Y+6774120D01*
X-5560090Y+6794120D02*
X-5559910Y+6794120D01*
X-5560091Y+6774120D02*
X-5559909Y+6774120D01*
X-5560091Y+6794120D02*
X-5559909Y+6794120D01*
X-5560092Y+6774120D02*
X-5559908Y+6774120D01*
X-5560092Y+6794120D02*
X-5559908Y+6794120D01*
X-5560093Y+6774120D02*
X-5559907Y+6774120D01*
X-5560093Y+6794120D02*
X-5559907Y+6794120D01*
X-5560094Y+6774120D02*
X-5559906Y+6774120D01*
X-5560094Y+6794120D02*
X-5559906Y+6794120D01*
X-5560095Y+6774120D02*
X-5559905Y+6774120D01*
X-5560095Y+6794120D02*
X-5559905Y+6794120D01*
X-5560096Y+6774120D02*
X-5559904Y+6774120D01*
X-5560096Y+6794120D02*
X-5559904Y+6794120D01*
X-5560097Y+6774120D02*
X-5559903Y+6774120D01*
X-5560097Y+6794120D02*
X-5559903Y+6794120D01*
X-5560098Y+6774120D02*
X-5559902Y+6774120D01*
X-5560098Y+6794120D02*
X-5559902Y+6794120D01*
X-5560099Y+6774120D02*
X-5559901Y+6774120D01*
X-5560099Y+6794120D02*
X-5559901Y+6794120D01*
X-5565179Y+6775566D02*
X-5554821Y+6775566D01*
X-5565179Y+6792674D02*
X-5554821Y+6792674D01*
X-5569215Y+6780237D02*
X-5550785Y+6780237D01*
X-5569215Y+6788003D02*
X-5550785Y+6788003D01*
X-5570000Y+6784120D02*
X-5550000Y+6784120D01*
X-5570000Y+6784120D02*
X-5550000Y+6784120D01*
D46*
X-5550035Y+6784951D01*
X-5550316Y+6786615D01*
X-5550906Y+6788279D01*
X-5551870Y+6789943D01*
X-5553345Y+6791584D01*
X-5555009Y+6792785D01*
X-5556673Y+6793550D01*
X-5558337Y+6793981D01*
X-5560000Y+6794120D01*
X-5570000Y+6784120D02*
X-5569965Y+6784951D01*
X-5569684Y+6786615D01*
X-5569094Y+6788279D01*
X-5568130Y+6789943D01*
X-5566655Y+6791584D01*
X-5564991Y+6792785D01*
X-5563327Y+6793550D01*
X-5561663Y+6793981D01*
X-5560000Y+6794120D01*
X-5570000Y+6784120D02*
X-5569965Y+6783289D01*
X-5569684Y+6781625D01*
X-5569094Y+6779961D01*
X-5568130Y+6778297D01*
X-5566655Y+6776656D01*
X-5564991Y+6775455D01*
X-5563327Y+6774690D01*
X-5561663Y+6774259D01*
X-5560000Y+6774120D01*
X-5550000Y+6784120D02*
X-5550035Y+6783289D01*
X-5550316Y+6781625D01*
X-5550906Y+6779961D01*
X-5551870Y+6778297D01*
X-5553345Y+6776656D01*
X-5555009Y+6775455D01*
X-5556673Y+6774690D01*
X-5558337Y+6774259D01*
X-5560000Y+6774120D01*
X-4486680Y+6690000D02*
X-4486680Y+6677300D01*
X-4473345Y+6664600D01*
X-4420005Y+6664600D01*
X-4406670Y+6677300D01*
X-4406670Y+6740800D01*
X-4366665Y+6728100D02*
X-4353330Y+6740800D01*
X-4313325Y+6740800D01*
X-4299990Y+6728100D01*
X-4299990Y+6715400D01*
X-4313325Y+6702700D01*
X-4353330Y+6702700D01*
X-4366665Y+6690000D01*
X-4366665Y+6664600D01*
X-4299990Y+6664600D01*
X-7630000Y+1510000D02*
X-7630000Y+1270000D01*
X-7770000Y+1510000D02*
X-7770000Y+1270000D01*
X-7630000Y+1320000D02*
X-7770000Y+1320000D01*
X-7630000Y+1310000D02*
X-7770000Y+1310000D01*
X-7590000Y+1580000D02*
X-7590000Y+1540000D01*
X-7570000Y+1560000D02*
X-7610000Y+1560000D01*
X-7533320Y+1283320D02*
X-7609520Y+1283320D01*
X-7609520Y+1336660D01*
X-7584120Y+1363330D01*
X-7558720Y+1363330D01*
X-7533320Y+1336660D01*
X-7533320Y+1283320D01*
X-7596820Y+1403335D02*
X-7609520Y+1416670D01*
X-7609520Y+1456675D01*
X-7596820Y+1470010D01*
X-7584120Y+1470010D01*
X-7571420Y+1456675D01*
X-7558720Y+1470010D01*
X-7546020Y+1470010D01*
X-7533320Y+1456675D01*
X-7533320Y+1416670D01*
X-7546020Y+1403335D01*
X-7571420Y+1430005D02*
X-7571420Y+1456675D01*
X-7493660Y+2073820D02*
X-7493660Y+2226220D01*
X-7346340Y+2076360D02*
X-7346340Y+2226220D01*
X-7374140Y+2377460D02*
X-7450340Y+2377460D01*
X-7450340Y+2444135D01*
X-7437640Y+2457470D01*
X-7424940Y+2457470D01*
X-7412240Y+2444135D01*
X-7412240Y+2377460D01*
X-7412240Y+2444135D02*
X-7399540Y+2457470D01*
X-7374140Y+2457470D01*
X-7424940Y+2510810D02*
X-7450340Y+2537480D01*
X-7374140Y+2537480D01*
X-7437640Y+2604155D02*
X-7450340Y+2617490D01*
X-7450340Y+2657495D01*
X-7437640Y+2670830D01*
X-7424940Y+2670830D01*
X-7412240Y+2657495D01*
X-7412240Y+2617490D01*
X-7399540Y+2604155D01*
X-7374140Y+2604155D01*
X-7374140Y+2670830D01*
D43*
X-10000000Y+1000000D02*
X-3800000Y+1000000D01*
X-3800000Y+6800000D01*
X-10000000Y+6800000D01*
X-10000000Y+1000000D01*
D54*
X-5720000Y+1081100D02*
X-5706665Y+1068400D01*
X-5653325Y+1068400D01*
X-5639990Y+1081100D01*
X-5639990Y+1093800D01*
X-5653325Y+1106500D01*
X-5706665Y+1106500D01*
X-5720000Y+1119200D01*
X-5720000Y+1131900D01*
X-5706665Y+1144600D01*
X-5653325Y+1144600D01*
X-5639990Y+1131900D01*
X-5613320Y+1068400D02*
X-5613320Y+1144600D01*
X-5559980Y+1144600D01*
X-5533310Y+1119200D01*
X-5533310Y+1093800D01*
X-5559980Y+1068400D01*
X-5613320Y+1068400D01*
X-5319950Y+1081100D02*
X-5333285Y+1068400D01*
X-5373290Y+1068400D01*
X-5399960Y+1093800D01*
X-5399960Y+1119200D01*
X-5373290Y+1144600D01*
X-5333285Y+1144600D01*
X-5319950Y+1131900D01*
X-5279945Y+1119200D02*
X-5226605Y+1119200D01*
X-5213270Y+1106500D01*
X-5213270Y+1068400D01*
X-5279945Y+1068400D01*
X-5293280Y+1081100D01*
X-5279945Y+1093800D01*
X-5213270Y+1093800D01*
X-5186600Y+1068400D02*
X-5186600Y+1119200D01*
X-5186600Y+1106500D02*
X-5173265Y+1119200D01*
X-5119925Y+1119200D01*
X-5106590Y+1106500D01*
X-4999910Y+1106500D02*
X-5013245Y+1119200D01*
X-5066585Y+1119200D01*
X-5079920Y+1106500D01*
X-5079920Y+1081100D01*
X-5066585Y+1068400D01*
X-5013245Y+1068400D01*
X-4999910Y+1081100D01*
X-4999910Y+1068400D02*
X-4999910Y+1144600D01*
D46*
X-3850000Y+5960000D02*
X-4150000Y+5960000D01*
X-3850000Y+5240000D02*
X-4150000Y+5240000D01*
X-3850000Y+5960000D02*
X-3850000Y+5240000D01*
X-4150000Y+5960000D02*
X-4150000Y+5860000D01*
X-4150000Y+5240000D02*
X-4150000Y+5340000D01*
D53*
X-3850000Y+5980000D02*
X-3850000Y+5980000D01*
X-3850000Y+6000000D02*
X-3850000Y+6000000D01*
X-3850001Y+5980000D02*
X-3849999Y+5980000D01*
X-3850001Y+6000000D02*
X-3849999Y+6000000D01*
X-3850002Y+5980000D02*
X-3849998Y+5980000D01*
X-3850002Y+6000000D02*
X-3849998Y+6000000D01*
X-3850003Y+5980000D02*
X-3849997Y+5980000D01*
X-3850003Y+6000000D02*
X-3849997Y+6000000D01*
X-3850004Y+5980000D02*
X-3849996Y+5980000D01*
X-3850004Y+6000000D02*
X-3849996Y+6000000D01*
X-3850005Y+5980000D02*
X-3849995Y+5980000D01*
X-3850005Y+6000000D02*
X-3849995Y+6000000D01*
X-3850006Y+5980000D02*
X-3849994Y+5980000D01*
X-3850006Y+6000000D02*
X-3849994Y+6000000D01*
X-3850007Y+5980000D02*
X-3849993Y+5980000D01*
X-3850007Y+6000000D02*
X-3849993Y+6000000D01*
X-3850008Y+5980000D02*
X-3849992Y+5980000D01*
X-3850008Y+6000000D02*
X-3849992Y+6000000D01*
X-3850009Y+5980000D02*
X-3849991Y+5980000D01*
X-3850009Y+6000000D02*
X-3849991Y+6000000D01*
X-3850010Y+5980000D02*
X-3849990Y+5980000D01*
X-3850010Y+6000000D02*
X-3849990Y+6000000D01*
X-3850011Y+5980000D02*
X-3849989Y+5980000D01*
X-3850011Y+6000000D02*
X-3849989Y+6000000D01*
X-3850012Y+5980000D02*
X-3849988Y+5980000D01*
X-3850012Y+6000000D02*
X-3849988Y+6000000D01*
X-3850013Y+5980000D02*
X-3849987Y+5980000D01*
X-3850013Y+6000000D02*
X-3849987Y+6000000D01*
X-3850014Y+5980000D02*
X-3849986Y+5980000D01*
X-3850014Y+6000000D02*
X-3849986Y+6000000D01*
X-3850015Y+5980000D02*
X-3849985Y+5980000D01*
X-3850015Y+6000000D02*
X-3849985Y+6000000D01*
X-3850016Y+5980000D02*
X-3849984Y+5980000D01*
X-3850016Y+6000000D02*
X-3849984Y+6000000D01*
X-3850017Y+5980000D02*
X-3849983Y+5980000D01*
X-3850017Y+6000000D02*
X-3849983Y+6000000D01*
X-3850018Y+5980000D02*
X-3849982Y+5980000D01*
X-3850018Y+6000000D02*
X-3849982Y+6000000D01*
X-3850019Y+5980000D02*
X-3849981Y+5980000D01*
X-3850019Y+6000000D02*
X-3849981Y+6000000D01*
X-3850020Y+5980000D02*
X-3849980Y+5980000D01*
X-3850020Y+6000000D02*
X-3849980Y+6000000D01*
X-3850021Y+5980000D02*
X-3849979Y+5980000D01*
X-3850021Y+6000000D02*
X-3849979Y+6000000D01*
X-3850022Y+5980000D02*
X-3849978Y+5980000D01*
X-3850022Y+6000000D02*
X-3849978Y+6000000D01*
X-3850023Y+5980000D02*
X-3849977Y+5980000D01*
X-3850023Y+6000000D02*
X-3849977Y+6000000D01*
X-3850024Y+5980000D02*
X-3849976Y+5980000D01*
X-3850024Y+6000000D02*
X-3849976Y+6000000D01*
X-3850025Y+5980000D02*
X-3849975Y+5980000D01*
X-3850025Y+6000000D02*
X-3849975Y+6000000D01*
X-3850026Y+5980000D02*
X-3849974Y+5980000D01*
X-3850026Y+6000000D02*
X-3849974Y+6000000D01*
X-3850027Y+5980000D02*
X-3849973Y+5980000D01*
X-3850027Y+6000000D02*
X-3849973Y+6000000D01*
X-3850028Y+5980000D02*
X-3849972Y+5980000D01*
X-3850028Y+6000000D02*
X-3849972Y+6000000D01*
X-3850029Y+5980000D02*
X-3849971Y+5980000D01*
X-3850029Y+6000000D02*
X-3849971Y+6000000D01*
X-3850030Y+5980000D02*
X-3849970Y+5980000D01*
X-3850030Y+6000000D02*
X-3849970Y+6000000D01*
X-3850031Y+5980000D02*
X-3849969Y+5980000D01*
X-3850031Y+6000000D02*
X-3849969Y+6000000D01*
X-3850032Y+5980000D02*
X-3849968Y+5980000D01*
X-3850032Y+6000000D02*
X-3849968Y+6000000D01*
X-3850033Y+5980000D02*
X-3849967Y+5980000D01*
X-3850033Y+6000000D02*
X-3849967Y+6000000D01*
X-3850034Y+5980000D02*
X-3849966Y+5980000D01*
X-3850034Y+6000000D02*
X-3849966Y+6000000D01*
X-3850035Y+5980000D02*
X-3849965Y+5980000D01*
X-3850035Y+6000000D02*
X-3849965Y+6000000D01*
X-3850036Y+5980000D02*
X-3849964Y+5980000D01*
X-3850036Y+6000000D02*
X-3849964Y+6000000D01*
X-3850037Y+5980000D02*
X-3849963Y+5980000D01*
X-3850037Y+6000000D02*
X-3849963Y+6000000D01*
X-3850038Y+5980000D02*
X-3849962Y+5980000D01*
X-3850038Y+6000000D02*
X-3849962Y+6000000D01*
X-3850039Y+5980000D02*
X-3849961Y+5980000D01*
X-3850039Y+6000000D02*
X-3849961Y+6000000D01*
X-3850040Y+5980000D02*
X-3849960Y+5980000D01*
X-3850040Y+6000000D02*
X-3849960Y+6000000D01*
X-3850041Y+5980000D02*
X-3849959Y+5980000D01*
X-3850041Y+6000000D02*
X-3849959Y+6000000D01*
X-3850042Y+5980000D02*
X-3849958Y+5980000D01*
X-3850042Y+6000000D02*
X-3849958Y+6000000D01*
X-3850043Y+5980000D02*
X-3849957Y+5980000D01*
X-3850043Y+6000000D02*
X-3849957Y+6000000D01*
X-3850044Y+5980000D02*
X-3849956Y+5980000D01*
X-3850044Y+6000000D02*
X-3849956Y+6000000D01*
X-3850045Y+5980000D02*
X-3849955Y+5980000D01*
X-3850045Y+6000000D02*
X-3849955Y+6000000D01*
X-3850046Y+5980000D02*
X-3849954Y+5980000D01*
X-3850046Y+6000000D02*
X-3849954Y+6000000D01*
X-3850047Y+5980000D02*
X-3849953Y+5980000D01*
X-3850047Y+6000000D02*
X-3849953Y+6000000D01*
X-3850048Y+5980000D02*
X-3849952Y+5980000D01*
X-3850048Y+6000000D02*
X-3849952Y+6000000D01*
X-3850049Y+5980000D02*
X-3849951Y+5980000D01*
X-3850049Y+6000000D02*
X-3849951Y+6000000D01*
X-3850050Y+5980000D02*
X-3849950Y+5980000D01*
X-3850050Y+6000000D02*
X-3849950Y+6000000D01*
X-3850051Y+5980000D02*
X-3849949Y+5980000D01*
X-3850051Y+6000000D02*
X-3849949Y+6000000D01*
X-3850052Y+5980000D02*
X-3849948Y+5980000D01*
X-3850052Y+6000000D02*
X-3849948Y+6000000D01*
X-3850053Y+5980000D02*
X-3849947Y+5980000D01*
X-3850053Y+6000000D02*
X-3849947Y+6000000D01*
X-3850054Y+5980000D02*
X-3849946Y+5980000D01*
X-3850054Y+6000000D02*
X-3849946Y+6000000D01*
X-3850055Y+5980000D02*
X-3849945Y+5980000D01*
X-3850055Y+6000000D02*
X-3849945Y+6000000D01*
X-3850056Y+5980000D02*
X-3849944Y+5980000D01*
X-3850056Y+6000000D02*
X-3849944Y+6000000D01*
X-3850057Y+5980000D02*
X-3849943Y+5980000D01*
X-3850057Y+6000000D02*
X-3849943Y+6000000D01*
X-3850058Y+5980000D02*
X-3849942Y+5980000D01*
X-3850058Y+6000000D02*
X-3849942Y+6000000D01*
X-3850059Y+5980000D02*
X-3849941Y+5980000D01*
X-3850059Y+6000000D02*
X-3849941Y+6000000D01*
X-3850060Y+5980000D02*
X-3849940Y+5980000D01*
X-3850060Y+6000000D02*
X-3849940Y+6000000D01*
X-3850061Y+5980000D02*
X-3849939Y+5980000D01*
X-3850061Y+6000000D02*
X-3849939Y+6000000D01*
X-3850062Y+5980000D02*
X-3849938Y+5980000D01*
X-3850062Y+6000000D02*
X-3849938Y+6000000D01*
X-3850063Y+5980000D02*
X-3849937Y+5980000D01*
X-3850063Y+6000000D02*
X-3849937Y+6000000D01*
X-3850064Y+5980000D02*
X-3849936Y+5980000D01*
X-3850064Y+6000000D02*
X-3849936Y+6000000D01*
X-3850065Y+5980000D02*
X-3849935Y+5980000D01*
X-3850065Y+6000000D02*
X-3849935Y+6000000D01*
X-3850066Y+5980000D02*
X-3849934Y+5980000D01*
X-3850066Y+6000000D02*
X-3849934Y+6000000D01*
X-3850067Y+5980000D02*
X-3849933Y+5980000D01*
X-3850067Y+6000000D02*
X-3849933Y+6000000D01*
X-3850068Y+5980000D02*
X-3849932Y+5980000D01*
X-3850068Y+6000000D02*
X-3849932Y+6000000D01*
X-3850069Y+5980000D02*
X-3849931Y+5980000D01*
X-3850069Y+6000000D02*
X-3849931Y+6000000D01*
X-3850070Y+5980000D02*
X-3849930Y+5980000D01*
X-3850070Y+6000000D02*
X-3849930Y+6000000D01*
X-3850071Y+5980000D02*
X-3849929Y+5980000D01*
X-3850071Y+6000000D02*
X-3849929Y+6000000D01*
X-3850072Y+5980000D02*
X-3849928Y+5980000D01*
X-3850072Y+6000000D02*
X-3849928Y+6000000D01*
X-3850073Y+5980000D02*
X-3849927Y+5980000D01*
X-3850073Y+6000000D02*
X-3849927Y+6000000D01*
X-3850074Y+5980000D02*
X-3849926Y+5980000D01*
X-3850074Y+6000000D02*
X-3849926Y+6000000D01*
X-3850075Y+5980000D02*
X-3849925Y+5980000D01*
X-3850075Y+6000000D02*
X-3849925Y+6000000D01*
X-3850076Y+5980000D02*
X-3849924Y+5980000D01*
X-3850076Y+6000000D02*
X-3849924Y+6000000D01*
X-3850077Y+5980000D02*
X-3849923Y+5980000D01*
X-3850077Y+6000000D02*
X-3849923Y+6000000D01*
X-3850078Y+5980000D02*
X-3849922Y+5980000D01*
X-3850078Y+6000000D02*
X-3849922Y+6000000D01*
X-3850079Y+5980000D02*
X-3849921Y+5980000D01*
X-3850079Y+6000000D02*
X-3849921Y+6000000D01*
X-3850080Y+5980000D02*
X-3849920Y+5980000D01*
X-3850080Y+6000000D02*
X-3849920Y+6000000D01*
X-3850081Y+5980000D02*
X-3849919Y+5980000D01*
X-3850081Y+6000000D02*
X-3849919Y+6000000D01*
X-3850082Y+5980000D02*
X-3849918Y+5980000D01*
X-3850082Y+6000000D02*
X-3849918Y+6000000D01*
X-3850083Y+5980000D02*
X-3849917Y+5980000D01*
X-3850083Y+6000000D02*
X-3849917Y+6000000D01*
X-3850084Y+5980000D02*
X-3849916Y+5980000D01*
X-3850084Y+6000000D02*
X-3849916Y+6000000D01*
X-3850085Y+5980000D02*
X-3849915Y+5980000D01*
X-3850085Y+6000000D02*
X-3849915Y+6000000D01*
X-3850086Y+5980000D02*
X-3849914Y+5980000D01*
X-3850086Y+6000000D02*
X-3849914Y+6000000D01*
X-3850087Y+5980000D02*
X-3849913Y+5980000D01*
X-3850087Y+6000000D02*
X-3849913Y+6000000D01*
X-3850088Y+5980000D02*
X-3849912Y+5980000D01*
X-3850088Y+6000000D02*
X-3849912Y+6000000D01*
X-3850089Y+5980000D02*
X-3849911Y+5980000D01*
X-3850089Y+6000000D02*
X-3849911Y+6000000D01*
X-3850090Y+5980000D02*
X-3849910Y+5980000D01*
X-3850090Y+6000000D02*
X-3849910Y+6000000D01*
X-3850091Y+5980000D02*
X-3849909Y+5980000D01*
X-3850091Y+6000000D02*
X-3849909Y+6000000D01*
X-3850092Y+5980000D02*
X-3849908Y+5980000D01*
X-3850092Y+6000000D02*
X-3849908Y+6000000D01*
X-3850093Y+5980000D02*
X-3849907Y+5980000D01*
X-3850093Y+6000000D02*
X-3849907Y+6000000D01*
X-3850094Y+5980000D02*
X-3849906Y+5980000D01*
X-3850094Y+6000000D02*
X-3849906Y+6000000D01*
X-3850095Y+5980000D02*
X-3849905Y+5980000D01*
X-3850095Y+6000000D02*
X-3849905Y+6000000D01*
X-3850096Y+5980000D02*
X-3849904Y+5980000D01*
X-3850096Y+6000000D02*
X-3849904Y+6000000D01*
X-3850097Y+5980000D02*
X-3849903Y+5980000D01*
X-3850097Y+6000000D02*
X-3849903Y+6000000D01*
X-3850098Y+5980000D02*
X-3849902Y+5980000D01*
X-3850098Y+6000000D02*
X-3849902Y+6000000D01*
X-3850099Y+5980000D02*
X-3849901Y+5980000D01*
X-3850099Y+6000000D02*
X-3849901Y+6000000D01*
X-3855179Y+5981446D02*
X-3844821Y+5981446D01*
X-3855179Y+5998554D02*
X-3844821Y+5998554D01*
X-3859215Y+5986117D02*
X-3840785Y+5986117D01*
X-3859215Y+5993883D02*
X-3840785Y+5993883D01*
X-3860000Y+5990000D02*
X-3840000Y+5990000D01*
X-3860000Y+5990000D02*
X-3840000Y+5990000D01*
D46*
X-3840035Y+5990831D01*
X-3840316Y+5992495D01*
X-3840906Y+5994159D01*
X-3841870Y+5995823D01*
X-3843345Y+5997464D01*
X-3845009Y+5998665D01*
X-3846673Y+5999430D01*
X-3848337Y+5999861D01*
X-3850000Y+6000000D01*
X-3860000Y+5990000D02*
X-3859965Y+5990831D01*
X-3859684Y+5992495D01*
X-3859094Y+5994159D01*
X-3858130Y+5995823D01*
X-3856655Y+5997464D01*
X-3854991Y+5998665D01*
X-3853327Y+5999430D01*
X-3851663Y+5999861D01*
X-3850000Y+6000000D01*
X-3860000Y+5990000D02*
X-3859965Y+5989169D01*
X-3859684Y+5987505D01*
X-3859094Y+5985841D01*
X-3858130Y+5984177D01*
X-3856655Y+5982536D01*
X-3854991Y+5981335D01*
X-3853327Y+5980570D01*
X-3851663Y+5980139D01*
X-3850000Y+5980000D01*
X-3840000Y+5990000D02*
X-3840035Y+5989169D01*
X-3840316Y+5987505D01*
X-3840906Y+5985841D01*
X-3841870Y+5984177D01*
X-3843345Y+5982536D01*
X-3845009Y+5981335D01*
X-3846673Y+5980570D01*
X-3848337Y+5980139D01*
X-3850000Y+5980000D01*
X-4118100Y+5151090D02*
X-4118100Y+5138390D01*
X-4104765Y+5125690D01*
X-4051425Y+5125690D01*
X-4038090Y+5138390D01*
X-4038090Y+5201890D01*
X-3998085Y+5189190D02*
X-3984750Y+5201890D01*
X-3944745Y+5201890D01*
X-3931410Y+5189190D01*
X-3931410Y+5176490D01*
X-3944745Y+5163790D01*
X-3931410Y+5151090D01*
X-3931410Y+5138390D01*
X-3944745Y+5125690D01*
X-3984750Y+5125690D01*
X-3998085Y+5138390D01*
X-3971415Y+5163790D02*
X-3944745Y+5163790D01*
D54*
X-4564600Y+5794280D02*
X-4551900Y+5794280D01*
X-4551900Y+5779040D01*
X-4577300Y+5779040D01*
X-4590000Y+5794280D01*
X-4590000Y+5809520D01*
X-4577300Y+5824760D01*
X-4558250Y+5824760D01*
X-4551900Y+5817140D01*
X-4539200Y+5779040D02*
X-4539200Y+5824760D01*
X-4501100Y+5779040D01*
X-4501100Y+5824760D01*
X-4488400Y+5779040D02*
X-4488400Y+5824760D01*
X-4463000Y+5824760D01*
X-4450300Y+5809520D01*
X-4450300Y+5794280D01*
X-4463000Y+5779040D01*
X-4488400Y+5779040D01*
X-4590000Y+5679040D02*
X-4590000Y+5724760D01*
X-4551900Y+5679040D01*
X-4551900Y+5724760D01*
X-4501100Y+5686660D02*
X-4507450Y+5679040D01*
X-4526500Y+5679040D01*
X-4539200Y+5694280D01*
X-4539200Y+5709520D01*
X-4526500Y+5724760D01*
X-4507450Y+5724760D01*
X-4501100Y+5717140D01*
X-4590000Y+5579040D02*
X-4590000Y+5624760D01*
X-4558250Y+5624760D01*
X-4551900Y+5617140D01*
X-4551900Y+5609520D01*
X-4558250Y+5601900D01*
X-4590000Y+5601900D01*
X-4558250Y+5601900D02*
X-4551900Y+5594280D01*
X-4551900Y+5579040D01*
X-4539200Y+5624760D02*
X-4501100Y+5579040D01*
X-4539200Y+5579040D02*
X-4501100Y+5624760D01*
X-4590000Y+5514760D02*
X-4551900Y+5514760D01*
X-4570950Y+5514760D02*
X-4570950Y+5469040D01*
X-4539200Y+5514760D02*
X-4501100Y+5469040D01*
X-4539200Y+5469040D02*
X-4501100Y+5514760D01*
X-4593650Y+5417140D02*
X-4587300Y+5424760D01*
X-4568250Y+5424760D01*
X-4561900Y+5417140D01*
X-4561900Y+5409520D01*
X-4568250Y+5401900D01*
X-4561900Y+5394280D01*
X-4561900Y+5386660D01*
X-4568250Y+5379040D01*
X-4587300Y+5379040D01*
X-4593650Y+5386660D01*
X-4580950Y+5401900D02*
X-4568250Y+5401900D01*
X-4530150Y+5386660D02*
X-4523800Y+5386660D01*
X-4523800Y+5379040D01*
X-4530150Y+5379040D01*
X-4530150Y+5386660D01*
X-4492050Y+5417140D02*
X-4485700Y+5424760D01*
X-4466650Y+5424760D01*
X-4460300Y+5417140D01*
X-4460300Y+5409520D01*
X-4466650Y+5401900D01*
X-4460300Y+5394280D01*
X-4460300Y+5386660D01*
X-4466650Y+5379040D01*
X-4485700Y+5379040D01*
X-4492050Y+5386660D01*
X-4479350Y+5401900D02*
X-4466650Y+5401900D01*
X-4447600Y+5424760D02*
X-4447600Y+5401900D01*
X-4428550Y+5379040D01*
X-4409500Y+5401900D01*
X-4409500Y+5424760D01*
X-5372860Y+6213650D02*
X-5365240Y+6207300D01*
X-5365240Y+6188250D01*
X-5372860Y+6181900D01*
X-5380480Y+6181900D01*
X-5388100Y+6188250D01*
X-5395720Y+6181900D01*
X-5403340Y+6181900D01*
X-5410960Y+6188250D01*
X-5410960Y+6207300D01*
X-5403340Y+6213650D01*
X-5388100Y+6200950D02*
X-5388100Y+6188250D01*
X-5403340Y+6150150D02*
X-5403340Y+6143800D01*
X-5410960Y+6143800D01*
X-5410960Y+6150150D01*
X-5403340Y+6150150D01*
X-5372860Y+6112050D02*
X-5365240Y+6105700D01*
X-5365240Y+6086650D01*
X-5372860Y+6080300D01*
X-5380480Y+6080300D01*
X-5388100Y+6086650D01*
X-5395720Y+6080300D01*
X-5403340Y+6080300D01*
X-5410960Y+6086650D01*
X-5410960Y+6105700D01*
X-5403340Y+6112050D01*
X-5388100Y+6099350D02*
X-5388100Y+6086650D01*
X-5365240Y+6067600D02*
X-5388100Y+6067600D01*
X-5410960Y+6048550D01*
X-5388100Y+6029500D01*
X-5365240Y+6029500D01*
X-5315720Y+6184600D02*
X-5315720Y+6171900D01*
X-5330960Y+6171900D01*
X-5330960Y+6197300D01*
X-5315720Y+6210000D01*
X-5300480Y+6210000D01*
X-5285240Y+6197300D01*
X-5285240Y+6178250D01*
X-5292860Y+6171900D01*
X-5330960Y+6159200D02*
X-5285240Y+6159200D01*
X-5330960Y+6121100D01*
X-5285240Y+6121100D01*
X-5330960Y+6108400D02*
X-5285240Y+6108400D01*
X-5285240Y+6083000D01*
X-5300480Y+6070300D01*
X-5315720Y+6070300D01*
X-5330960Y+6083000D01*
X-5330960Y+6108400D01*
X-5222432Y+6210000D02*
X-5176712Y+6210000D01*
X-5199572Y+6190950D01*
X-5176712Y+6171900D01*
X-5222432Y+6171900D01*
X-5191952Y+6159200D02*
X-5176712Y+6146500D01*
X-5176712Y+6133800D01*
X-5191952Y+6121100D01*
X-5207192Y+6121100D01*
X-5222432Y+6133800D01*
X-5222432Y+6146500D01*
X-5207192Y+6159200D01*
X-5191952Y+6159200D01*
X-5214812Y+6108400D02*
X-5222432Y+6102050D01*
X-5222432Y+6076650D01*
X-5214812Y+6070300D01*
X-5207192Y+6070300D01*
X-5199572Y+6076650D01*
X-5199572Y+6102050D01*
X-5191952Y+6108400D01*
X-5184332Y+6108400D01*
X-5176712Y+6102050D01*
X-5176712Y+6076650D01*
X-5184332Y+6070300D01*
X-5176712Y+6051250D02*
X-5176712Y+6025850D01*
X-5176712Y+6038550D02*
X-5222432Y+6038550D01*
X-5222432Y+6051250D02*
X-5222432Y+6025850D01*
X-5113340Y+6061900D02*
X-5120960Y+6068250D01*
X-5120960Y+6087300D01*
X-5105720Y+6100000D01*
X-5090480Y+6100000D01*
X-5075240Y+6087300D01*
X-5075240Y+6068250D01*
X-5082860Y+6061900D01*
X-5075240Y+6049200D02*
X-5120960Y+6049200D01*
X-5120960Y+6011100D01*
X-5075240Y+5998400D02*
X-5120960Y+5998400D01*
X-5075240Y+5960300D02*
X-5098100Y+5979350D01*
X-5120960Y+5960300D01*
X-5098100Y+5998400D02*
X-5098100Y+5979350D01*
X-5013340Y+6171900D02*
X-5020960Y+6178250D01*
X-5020960Y+6197300D01*
X-5005720Y+6210000D01*
X-4990480Y+6210000D01*
X-4975240Y+6197300D01*
X-4975240Y+6178250D01*
X-4982860Y+6171900D01*
X-5013340Y+6159200D02*
X-5020960Y+6152850D01*
X-5020960Y+6127450D01*
X-5013340Y+6121100D01*
X-5005720Y+6121100D01*
X-4998100Y+6127450D01*
X-4998100Y+6152850D01*
X-4990480Y+6159200D01*
X-4982860Y+6159200D01*
X-4975240Y+6152850D01*
X-4975240Y+6127450D01*
X-4982860Y+6121100D01*
X-4920960Y+6090000D02*
X-4875240Y+6090000D01*
X-4875240Y+6064600D01*
X-4890480Y+6051900D01*
X-4905720Y+6051900D01*
X-4920960Y+6064600D01*
X-4920960Y+6090000D01*
X-4913340Y+6001100D02*
X-4920960Y+6007450D01*
X-4920960Y+6026500D01*
X-4905720Y+6039200D01*
X-4890480Y+6039200D01*
X-4875240Y+6026500D01*
X-4875240Y+6007450D01*
X-4882860Y+6001100D01*
X-4820960Y+6210000D02*
X-4775240Y+6210000D01*
X-4775240Y+6178250D01*
X-4782860Y+6171900D01*
X-4790480Y+6171900D01*
X-4798100Y+6178250D01*
X-4798100Y+6210000D01*
X-4798100Y+6178250D02*
X-4805720Y+6171900D01*
X-4820960Y+6171900D01*
X-4813340Y+6159200D02*
X-4820960Y+6152850D01*
X-4820960Y+6127450D01*
X-4813340Y+6121100D01*
X-4805720Y+6121100D01*
X-4798100Y+6127450D01*
X-4798100Y+6152850D01*
X-4790480Y+6159200D01*
X-4782860Y+6159200D01*
X-4775240Y+6152850D01*
X-4775240Y+6127450D01*
X-4782860Y+6121100D01*
X-4775240Y+6108400D02*
X-4775240Y+6070300D01*
X-4775240Y+6089350D02*
X-4820960Y+6089350D01*
X-4720960Y+6100000D02*
X-4675240Y+6100000D01*
X-4675240Y+6068250D01*
X-4682860Y+6061900D01*
X-4690480Y+6061900D01*
X-4698100Y+6068250D01*
X-4705720Y+6061900D01*
X-4713340Y+6061900D01*
X-4720960Y+6068250D01*
X-4720960Y+6100000D01*
X-4698100Y+6100000D02*
X-4698100Y+6068250D01*
X-4675240Y+6049200D02*
X-4713340Y+6049200D01*
X-4720960Y+6042850D01*
X-4720960Y+6017450D01*
X-4713340Y+6011100D01*
X-4675240Y+6011100D01*
X-4713340Y+5998400D02*
X-4720960Y+5992050D01*
X-4720960Y+5966650D01*
X-4713340Y+5960300D01*
X-4705720Y+5960300D01*
X-4698100Y+5966650D01*
X-4698100Y+5992050D01*
X-4690480Y+5998400D01*
X-4682860Y+5998400D01*
X-4675240Y+5992050D01*
X-4675240Y+5966650D01*
X-4682860Y+5960300D01*
X-4675240Y+5909500D02*
X-4720960Y+5947600D01*
X-4675240Y+5947600D02*
X-4698100Y+5928550D01*
M02*
