G04 PROTEUS GERBER X2 FILE*
%TF.GenerationSoftware,Labcenter,Proteus,8.17-SP5-Build39395*%
%TF.CreationDate,2024-11-13T15:27:42+00:00*%
%TF.FileFunction,Soldermask,Bot*%
%TF.FilePolarity,Negative*%
%TF.Part,Single*%
%TF.SameCoordinates,{0a1d241a-e0a6-4a76-8978-5e44ef8297c2}*%
%FSLAX45Y45*%
%MOMM*%
G01*
%TA.AperFunction,Material*%
%ADD55C,1.016000*%
%AMPPAD052*
4,1,36,
-0.195200,1.227000,
0.195200,1.227000,
0.282210,1.218230,
0.363260,1.193060,
0.436600,1.153240,
0.500510,1.100510,
0.553240,1.036600,
0.593060,0.963260,
0.618230,0.882210,
0.627000,0.795200,
0.627000,-0.795200,
0.618230,-0.882210,
0.593060,-0.963260,
0.553240,-1.036600,
0.500510,-1.100510,
0.436600,-1.153240,
0.363260,-1.193060,
0.282210,-1.218230,
0.195200,-1.227000,
-0.195200,-1.227000,
-0.282210,-1.218230,
-0.363260,-1.193060,
-0.436600,-1.153240,
-0.500510,-1.100510,
-0.553240,-1.036600,
-0.593060,-0.963260,
-0.618230,-0.882210,
-0.627000,-0.795200,
-0.627000,0.795200,
-0.618230,0.882210,
-0.593060,0.963260,
-0.553240,1.036600,
-0.500510,1.100510,
-0.436600,1.153240,
-0.363260,1.193060,
-0.282210,1.218230,
-0.195200,1.227000,
0*%
%TA.AperFunction,Material*%
%ADD58PPAD052*%
%TA.AperFunction,Material*%
%ADD77C,0.850000*%
%TA.AperFunction,Material*%
%ADD81C,5.080000*%
%AMPPAD082*
4,1,36,
-0.762000,0.508000,
-0.762000,-0.508000,
-0.759420,-0.533590,
-0.752020,-0.557430,
-0.740310,-0.579000,
-0.724800,-0.597800,
-0.706000,-0.613310,
-0.684430,-0.625020,
-0.660590,-0.632420,
-0.635000,-0.635000,
0.635000,-0.635000,
0.660590,-0.632420,
0.684430,-0.625020,
0.706000,-0.613310,
0.724800,-0.597800,
0.740310,-0.579000,
0.752020,-0.557430,
0.759420,-0.533590,
0.762000,-0.508000,
0.762000,0.508000,
0.759420,0.533590,
0.752020,0.557430,
0.740310,0.579000,
0.724800,0.597800,
0.706000,0.613310,
0.684430,0.625020,
0.660590,0.632420,
0.635000,0.635000,
-0.635000,0.635000,
-0.660590,0.632420,
-0.684430,0.625020,
-0.706000,0.613310,
-0.724800,0.597800,
-0.740310,0.579000,
-0.752020,0.557430,
-0.759420,0.533590,
-0.762000,0.508000,
0*%
%TA.AperFunction,Material*%
%ADD92PPAD082*%
%AMPPAD083*
4,1,36,
0.300000,1.127000,
-0.300000,1.127000,
-0.325590,1.124420,
-0.349430,1.117020,
-0.371000,1.105310,
-0.389800,1.089800,
-0.405310,1.071000,
-0.417020,1.049430,
-0.424420,1.025590,
-0.427000,1.000000,
-0.427000,-1.000000,
-0.424420,-1.025590,
-0.417020,-1.049430,
-0.405310,-1.071000,
-0.389800,-1.089800,
-0.371000,-1.105310,
-0.349430,-1.117020,
-0.325590,-1.124420,
-0.300000,-1.127000,
0.300000,-1.127000,
0.325590,-1.124420,
0.349430,-1.117020,
0.371000,-1.105310,
0.389800,-1.089800,
0.405310,-1.071000,
0.417020,-1.049430,
0.424420,-1.025590,
0.427000,-1.000000,
0.427000,1.000000,
0.424420,1.025590,
0.417020,1.049430,
0.405310,1.071000,
0.389800,1.089800,
0.371000,1.105310,
0.349430,1.117020,
0.325590,1.124420,
0.300000,1.127000,
0*%
%TA.AperFunction,Material*%
%ADD93PPAD083*%
%AMPPAD084*
4,1,36,
0.375000,0.627000,
-0.375000,0.627000,
-0.400590,0.624420,
-0.424430,0.617020,
-0.446000,0.605310,
-0.464800,0.589800,
-0.480310,0.571000,
-0.492020,0.549430,
-0.499420,0.525590,
-0.502000,0.500000,
-0.502000,-0.500000,
-0.499420,-0.525590,
-0.492020,-0.549430,
-0.480310,-0.571000,
-0.464800,-0.589800,
-0.446000,-0.605310,
-0.424430,-0.617020,
-0.400590,-0.624420,
-0.375000,-0.627000,
0.375000,-0.627000,
0.400590,-0.624420,
0.424430,-0.617020,
0.446000,-0.605310,
0.464800,-0.589800,
0.480310,-0.571000,
0.492020,-0.549430,
0.499420,-0.525590,
0.502000,-0.500000,
0.502000,0.500000,
0.499420,0.525590,
0.492020,0.549430,
0.480310,0.571000,
0.464800,0.589800,
0.446000,0.605310,
0.424430,0.617020,
0.400590,0.624420,
0.375000,0.627000,
0*%
%ADD94PPAD084*%
%TA.AperFunction,Profile*%
%ADD43C,0.101600*%
%TD.AperFunction*%
D55*
X-7939907Y+5384997D03*
X-7940252Y+5511980D03*
X-8300234Y+4272345D03*
X-8300122Y+4144942D03*
X-8800000Y+3300000D03*
X-8800000Y+3800000D03*
X-8398114Y+5257935D03*
X-9700000Y+4600000D03*
X-5899936Y+4623438D03*
X-9300000Y+5000000D03*
X-4800000Y+6300000D03*
X-5900000Y+5893081D03*
X-6900000Y+5170000D03*
X-6900000Y+5370000D03*
X-7600273Y+4368634D03*
X-7100000Y+5170000D03*
X-7100000Y+5370000D03*
X-5000000Y+6300000D03*
X-5900268Y+4876823D03*
X-9300000Y+5560000D03*
X-5200000Y+6300000D03*
X-8640000Y+1400000D03*
X-9509072Y+2024082D03*
X-7599158Y+4496077D03*
X-5412946Y+2669540D03*
X-7100000Y+2700000D03*
X-6400000Y+3260000D03*
X-6990286Y+2589199D03*
X-5500000Y+2400000D03*
X-9300000Y+3400000D03*
X-9225712Y+4200452D03*
X-9147318Y+4400097D03*
X-7940155Y+5639069D03*
X-9400000Y+4200000D03*
X-9400000Y+4500000D03*
X-9400000Y+4800000D03*
X-9812491Y+5113161D03*
X-9360000Y+6100000D03*
X-5100000Y+6200000D03*
X-4900000Y+6200000D03*
X-5900000Y+4750000D03*
X-5900489Y+4495974D03*
X-4700000Y+6200000D03*
X-4610000Y+3800000D03*
X-6327783Y+4099684D03*
X-5400000Y+3200000D03*
X-5600000Y+3900000D03*
X-5700000Y+5200000D03*
X-5790000Y+3200000D03*
X-5700000Y+4000000D03*
X-5600000Y+3200000D03*
X-5700000Y+3800000D03*
X-5900000Y+5004000D03*
X-7700000Y+3600000D03*
X-4402318Y+3898946D03*
X-4402447Y+4349596D03*
X-4664053Y+4543324D03*
X-7939864Y+5765983D03*
X-4610000Y+4261362D03*
X-5241263Y+4798737D03*
X-4440000Y+5600000D03*
X-4420000Y+2620000D03*
X-5313169Y+4509120D03*
X-6200000Y+2800000D03*
X-6200000Y+3402711D03*
X-8500000Y+1840000D03*
X-9080002Y+1840000D03*
X-9400000Y+2500000D03*
X-9400000Y+3552861D03*
X-7700000Y+3500000D03*
X-8590000Y+3300000D03*
X-7700000Y+3400000D03*
X-8380000Y+3300000D03*
X-7700000Y+3200000D03*
X-9010000Y+3200000D03*
X-9200000Y+3963845D03*
X-8170000Y+3200000D03*
X-7600000Y+1990000D03*
X-7700000Y+1650000D03*
X-4300000Y+5500000D03*
X-5030000Y+5000000D03*
X-7344572Y+4420036D03*
X-6690000Y+4620000D03*
X-6973453Y+1851247D03*
X-6803120Y+1826880D03*
X-6300000Y+1900000D03*
X-4470000Y+2210000D03*
X-6630000Y+1810000D03*
X-7140000Y+1790000D03*
X-7900000Y+6500000D03*
X-6206739Y+4370000D03*
X-6300000Y+4600000D03*
X-6300000Y+4902540D03*
X-6300000Y+6300000D03*
X-6200000Y+6500000D03*
X-7900000Y+6200000D03*
X-5700000Y+6420000D03*
D58*
X-7332000Y+1223000D03*
X-7332000Y+1622990D03*
X-6468000Y+1622988D03*
X-6468000Y+1223000D03*
D55*
X-8000000Y+2100000D03*
X-8835612Y+2061008D03*
X-7900000Y+6020000D03*
X-6580000Y+2420000D03*
X-7210000Y+2420000D03*
D77*
X-9814120Y+2250000D03*
X-9814120Y+1950000D03*
D81*
X-9700000Y+1300000D03*
X-9700000Y+6500000D03*
X-4100000Y+6500000D03*
X-4100000Y+1300000D03*
D55*
X-9110000Y+1200000D03*
X-8000000Y+2390000D03*
X-9690920Y+4301060D03*
X-9562760Y+3353050D03*
X-9570000Y+4921060D03*
X-9821840Y+3353050D03*
X-7470000Y+4100000D03*
X-8480000Y+4500000D03*
X-8660000Y+4020000D03*
X-9220000Y+2660000D03*
X-8530000Y+5750000D03*
X-8530000Y+6060000D03*
X-9410000Y+5953940D03*
X-9750000Y+5460000D03*
X-9050000Y+5160000D03*
X-4930000Y+2930000D03*
X-3930000Y+1990000D03*
X-4410000Y+2880000D03*
X-4470000Y+2420000D03*
X-6300000Y+2200000D03*
X-5630000Y+2930000D03*
X-8550000Y+6400000D03*
X-5300000Y+6300000D03*
X-5800000Y+6020000D03*
X-4690000Y+1130000D03*
X-3930000Y+2880000D03*
X-4300000Y+5800000D03*
D92*
X-6690000Y+5380000D03*
X-6690000Y+5166640D03*
X-7280000Y+5380000D03*
X-7280000Y+5166640D03*
X-7460000Y+5380000D03*
X-7460000Y+5166640D03*
X-7640000Y+5380000D03*
X-7640000Y+5166640D03*
D93*
X-6700000Y+5850000D03*
X-6800000Y+5850000D03*
X-6900000Y+5850000D03*
X-7000000Y+5850000D03*
X-7100000Y+5850000D03*
D94*
X-6540000Y+6080000D03*
X-7260000Y+6080000D03*
D55*
X-7420000Y+3260000D03*
X-4680000Y+5220000D03*
D43*
X-10000000Y+1000000D02*
X-3800000Y+1000000D01*
X-3800000Y+6800000D01*
X-10000000Y+6800000D01*
X-10000000Y+1000000D01*
M02*
