G04 PROTEUS GERBER X2 FILE*
%TF.GenerationSoftware,Labcenter,Proteus,8.17-SP5-Build39395*%
%TF.CreationDate,2024-11-13T15:27:42+00:00*%
%TF.FileFunction,Plated,1,2,PTH*%
%TF.FilePolarity,Positive*%
%TF.Part,Single*%
%TF.SameCoordinates,{0a1d241a-e0a6-4a76-8978-5e44ef8297c2}*%
%FSLAX45Y45*%
%MOMM*%
G01*
%TA.AperFunction,ViaDrill*%
%ADD164C,0.381000*%
%TA.AperFunction,ComponentDrill*%
%ADD165C,0.600000*%
%TA.AperFunction,OtherDrill,Unknown*%
%ADD166C,0.381000*%
%ADD167C,3.200000*%
%TD.AperFunction*%
D164*
X-7939907Y+5384997D03*
X-7940252Y+5511980D03*
X-8300234Y+4272345D03*
X-8300122Y+4144942D03*
X-8800000Y+3300000D03*
X-8800000Y+3800000D03*
X-8398114Y+5257935D03*
X-9700000Y+4600000D03*
X-5899936Y+4623438D03*
X-9300000Y+5000000D03*
X-4800000Y+6300000D03*
X-5900000Y+5893081D03*
X-6900000Y+5170000D03*
X-6900000Y+5370000D03*
X-7600273Y+4368634D03*
X-7100000Y+5170000D03*
X-7100000Y+5370000D03*
X-5000000Y+6300000D03*
X-5900268Y+4876823D03*
X-9300000Y+5560000D03*
X-5200000Y+6300000D03*
X-8640000Y+1400000D03*
X-9509072Y+2024082D03*
X-7599158Y+4496077D03*
X-5412946Y+2669540D03*
X-7100000Y+2700000D03*
X-6400000Y+3260000D03*
X-6990286Y+2589199D03*
X-5500000Y+2400000D03*
X-9300000Y+3400000D03*
X-9225712Y+4200452D03*
X-9147318Y+4400097D03*
X-7940155Y+5639069D03*
X-9400000Y+4200000D03*
X-9400000Y+4500000D03*
X-9400000Y+4800000D03*
X-9812491Y+5113161D03*
X-9360000Y+6100000D03*
X-5100000Y+6200000D03*
X-4900000Y+6200000D03*
X-5900000Y+4750000D03*
X-5900489Y+4495974D03*
X-4700000Y+6200000D03*
X-4610000Y+3800000D03*
X-6327783Y+4099684D03*
X-5400000Y+3200000D03*
X-5600000Y+3900000D03*
X-5700000Y+5200000D03*
X-5790000Y+3200000D03*
X-5700000Y+4000000D03*
X-5600000Y+3200000D03*
X-5700000Y+3800000D03*
X-5900000Y+5004000D03*
X-7700000Y+3600000D03*
X-4402318Y+3898946D03*
X-4402447Y+4349596D03*
X-4664053Y+4543324D03*
X-7939864Y+5765983D03*
X-4610000Y+4261362D03*
X-5241263Y+4798737D03*
X-4440000Y+5600000D03*
X-4420000Y+2620000D03*
X-5313169Y+4509120D03*
X-6200000Y+2800000D03*
X-6200000Y+3402711D03*
X-8500000Y+1840000D03*
X-9080002Y+1840000D03*
X-9400000Y+2500000D03*
X-9400000Y+3552861D03*
X-7700000Y+3500000D03*
X-8590000Y+3300000D03*
X-7700000Y+3400000D03*
X-8380000Y+3300000D03*
X-7700000Y+3200000D03*
X-9010000Y+3200000D03*
X-9200000Y+3963845D03*
X-8170000Y+3200000D03*
X-7600000Y+1990000D03*
X-7700000Y+1650000D03*
X-4300000Y+5500000D03*
X-5030000Y+5000000D03*
X-7344572Y+4420036D03*
X-6690000Y+4620000D03*
X-6973453Y+1851247D03*
X-6803120Y+1826880D03*
X-6300000Y+1900000D03*
X-4470000Y+2210000D03*
X-6630000Y+1810000D03*
X-7140000Y+1790000D03*
X-7900000Y+6500000D03*
X-6206739Y+4370000D03*
X-6300000Y+4600000D03*
X-6300000Y+4902540D03*
X-6300000Y+6300000D03*
X-6200000Y+6500000D03*
X-7900000Y+6200000D03*
X-5700000Y+6420000D03*
D165*
X-7333270Y+1283000D02*
X-7330730Y+1283000D01*
X-7330730Y+1163000D01*
X-7333270Y+1163000D01*
X-7333270Y+1283000D01*
X-7333270Y+1682990D02*
X-7330730Y+1682990D01*
X-7330730Y+1562990D01*
X-7333270Y+1562990D01*
X-7333270Y+1682990D01*
X-6469270Y+1682988D02*
X-6466730Y+1682988D01*
X-6466730Y+1562988D01*
X-6469270Y+1562988D01*
X-6469270Y+1682988D01*
X-6469270Y+1283000D02*
X-6466730Y+1283000D01*
X-6466730Y+1163000D01*
X-6469270Y+1163000D01*
X-6469270Y+1283000D01*
D166*
X-8000000Y+2100000D03*
X-8835612Y+2061008D03*
X-7900000Y+6020000D03*
X-6580000Y+2420000D03*
X-7210000Y+2420000D03*
D167*
X-9700000Y+1300000D03*
X-9700000Y+6500000D03*
X-4100000Y+6500000D03*
X-4100000Y+1300000D03*
D166*
X-9110000Y+1200000D03*
X-8000000Y+2390000D03*
X-9690920Y+4301060D03*
X-9562760Y+3353050D03*
X-9570000Y+4921060D03*
X-9821840Y+3353050D03*
X-7470000Y+4100000D03*
X-8480000Y+4500000D03*
X-8660000Y+4020000D03*
X-9220000Y+2660000D03*
X-8530000Y+5750000D03*
X-8530000Y+6060000D03*
X-9410000Y+5953940D03*
X-9750000Y+5460000D03*
X-9050000Y+5160000D03*
X-4930000Y+2930000D03*
X-3930000Y+1990000D03*
X-4410000Y+2880000D03*
X-4470000Y+2420000D03*
X-6300000Y+2200000D03*
X-5630000Y+2930000D03*
X-8550000Y+6400000D03*
X-5300000Y+6300000D03*
X-5800000Y+6020000D03*
X-4690000Y+1130000D03*
X-3930000Y+2880000D03*
X-4300000Y+5800000D03*
X-7420000Y+3260000D03*
X-4680000Y+5220000D03*
M02*
